<svg width="12" height="52" viewBox="0 0 12 52" fill="none" xmlns="http://www.w3.org/2000/svg">
<path d="M11.2048 14.3511H1.39551V29.8604H11.2048V14.3511Z" fill="#0EC69A"/>
<circle cx="4" cy="19" r="1.5" fill="white" stroke="#2A2C57"/>
<circle cx="8" cy="27" r="1.5" fill="white" stroke="#2A2C57"/>
<path d="M6.3001 51.0694C3.1187 51.0694 0.600098 48.5508 0.600098 45.3694V5.46943C0.600098 5.07176 0.865214 4.80664 1.26289 4.80664C1.66056 4.80664 1.92568 5.07176 1.92568 5.46943V45.3694C1.92568 47.7555 3.91405 49.7439 6.3001 49.7439C8.68614 49.7439 10.6745 47.7555 10.6745 45.3694V5.46943C10.6745 5.07176 10.9396 4.80664 11.3373 4.80664C11.735 4.80664 12.0001 5.07176 12.0001 5.46943V45.3694C12.0001 48.5508 9.48149 51.0694 6.3001 51.0694Z" fill="#2A2C57"/>
<path d="M11.3371 30.5228H1.79292C1.39524 30.5228 1.13013 30.2577 1.13013 29.8601C1.13013 29.4624 1.39524 29.1973 1.79292 29.1973H11.3371C11.7348 29.1973 11.9999 29.4624 11.9999 29.8601C11.9999 30.2577 11.7348 30.5228 11.3371 30.5228Z" fill="#2A2C57"/>
<path d="M11.3371 10.9047H1.79292C1.39524 10.9047 1.13013 10.6396 1.13013 10.2419C1.13013 9.84422 1.39524 9.5791 1.79292 9.5791H11.3371C11.7348 9.5791 11.9999 9.84422 11.9999 10.2419C11.9999 10.507 11.7348 10.9047 11.3371 10.9047Z" fill="#2A2C57"/>
<path d="M11.3371 15.5438H1.79292C1.39524 15.5438 1.13013 15.2787 1.13013 14.8811C1.13013 14.4834 1.39524 14.2183 1.79292 14.2183H11.3371C11.7348 14.2183 11.9999 14.4834 11.9999 14.8811C11.9999 15.2787 11.7348 15.5438 11.3371 15.5438Z" fill="#2A2C57"/>
<path d="M11.3373 6.13222H1.26289C0.865214 6.13222 0.600098 5.86711 0.600098 5.46943C0.600098 5.07176 0.865214 4.80664 1.26289 4.80664H11.3373C11.735 4.80664 12.0001 5.07176 12.0001 5.46943C12.0001 5.86711 11.735 6.13222 11.3373 6.13222Z" fill="#2A2C57"/>
<path d="M9.48119 2.15566H3.38351C3.1184 2.15566 2.98584 1.89054 2.98584 1.49287C2.98584 1.09519 3.1184 0.830078 3.38351 0.830078H9.48119C9.7463 0.830078 9.87886 1.09519 9.87886 1.49287C9.87886 1.89054 9.7463 2.15566 9.48119 2.15566Z" fill="#2A2C57"/>
<path d="M9.87905 1.09519V5.73473C9.87905 5.99985 9.61393 6.1324 9.21626 6.1324C8.81858 6.1324 8.55347 5.99985 8.55347 5.86729V1.09519C8.55347 0.962636 8.81858 0.830078 9.21626 0.830078C9.61393 0.830078 9.87905 0.962636 9.87905 1.09519Z" fill="#2A2C57"/>
<path d="M4.31142 1.09519V5.73473C4.31142 5.99985 4.0463 6.1324 3.64863 6.1324C3.25096 6.1324 2.98584 5.99985 2.98584 5.86729V1.09519C2.98584 0.962636 3.25096 0.830078 3.64863 0.830078C4.0463 0.830078 4.31142 0.962636 4.31142 1.09519Z" fill="#2A2C57"/>
</svg>
