<svg width="45" height="45" viewBox="0 0 45 45" fill="none" xmlns="http://www.w3.org/2000/svg">
<path d="M30.6998 29.0501L22.4498 10.3501L15.2998 16.9501L23.5498 35.6501L30.6998 29.0501Z" fill="#0EC69A"/>
<path d="M11.78 29.9299C11.56 29.7099 11.45 29.5999 11.34 29.3799L3.75004 31.3599C1.11004 32.1299 0.780044 35.7599 3.20004 36.9699L3.97004 37.2999C5.95004 38.3999 7.60004 40.0499 8.59004 42.0299L8.92004 42.7999C10.13 45.2199 13.76 44.8899 14.53 42.2499L16.51 34.6599C16.29 34.5499 16.18 34.3299 15.96 34.2199L11.78 29.9299Z" fill="#0EC69A"/>
<path d="M11.6701 44.9999C10.3501 44.9999 9.14014 44.2299 8.48014 43.0199L8.15014 42.2499C7.16014 40.3799 5.62014 38.8399 3.75014 37.8499L2.98014 37.5199C1.66014 36.7499 0.890141 35.4299 1.00014 33.9999C1.11014 32.5699 2.10014 31.3599 3.53014 30.9199L11.2301 28.9399C11.4501 28.9399 11.6701 28.9399 11.7801 29.1599C11.8901 29.3799 12.1101 29.4899 12.2201 29.7099L16.4001 33.8899C16.5101 33.9999 16.7301 34.2199 16.9501 34.3299C17.1701 34.4399 17.1701 34.6599 17.1701 34.8799L15.1901 42.4699C14.6401 43.8999 13.4301 44.7799 12.0001 44.9999C11.8901 44.9999 11.7801 44.9999 11.6701 44.9999ZM11.1201 30.0399L3.86014 31.9099C2.65014 32.2399 2.21014 33.2299 2.10014 34.1099C1.99014 34.8799 2.32014 35.9799 3.42014 36.5299L4.19014 36.8599C6.28014 37.9599 8.04014 39.6099 9.03014 41.6999L9.36014 42.4699C9.91014 43.5699 11.0101 43.8999 11.7801 43.7899C12.5501 43.6799 13.5401 43.2399 13.9801 42.0299L15.8501 34.7699C15.7401 34.6599 15.6301 34.5499 15.5201 34.4399L11.3401 30.2599C11.3401 30.2599 11.2301 30.1499 11.1201 30.0399Z" fill="#2A2C57"/>
<path d="M42.0301 8.59029C40.0501 7.60029 38.4001 5.95029 37.4101 3.97029L36.9701 3.20029C35.7601 0.780288 32.1301 1.11029 31.3601 3.75029L29.3801 11.3403C29.6001 11.4503 29.7101 11.6703 29.9301 11.7803L34.1101 15.9603C34.3301 16.1803 34.4401 16.2903 34.5501 16.5103L42.1401 14.5303C44.7801 13.7603 45.1101 10.1303 42.6901 8.92029L42.0301 8.59029Z" fill="#0EC69A"/>
<path d="M34.6601 17.1701C34.5501 17.1701 34.3301 17.0601 34.2201 16.9501C34.1101 16.7301 33.8901 16.6201 33.7801 16.4001L29.6001 12.2201C29.4901 12.1101 29.2701 11.8901 29.0501 11.7801C28.8301 11.6701 28.8301 11.4501 28.8301 11.2301L30.8101 3.64011C31.2501 2.10011 32.4601 1.11011 34.0001 1.00011C35.5401 0.890107 36.8601 1.55011 37.5201 2.87011L37.8501 3.64011C38.8401 5.51011 40.3801 7.05011 42.2501 8.04011L43.0201 8.37011C44.3401 9.03011 45.1101 10.3501 44.8901 11.8901C44.7801 13.3201 43.7901 14.5301 42.3601 14.9701L34.6601 16.9501C34.7701 17.0601 34.6601 17.1701 34.6601 17.1701ZM30.0401 11.1201C30.1501 11.2301 30.2601 11.3401 30.3701 11.4501L34.5501 15.6301C34.6601 15.7401 34.7701 15.8501 34.8801 15.9601L42.1401 14.0901C43.3501 13.7601 43.7901 12.7701 43.9001 11.8901C44.0101 11.1201 43.6801 10.0201 42.5801 9.47011L41.8101 9.14011C39.7201 8.04011 37.9601 6.39011 36.9701 4.30011L36.6401 3.53011C36.0901 2.43011 34.9901 2.10011 34.2201 2.21011C33.4501 2.32011 32.4601 2.76011 32.0201 3.97011L30.0401 11.1201Z" fill="#2A2C57"/>
<path d="M23.55 35.9803C23.44 35.9803 23.44 35.9803 23.33 35.9803C23.22 35.9803 23.11 35.8703 23 35.6503L14.86 17.0603C14.75 16.8403 14.86 16.6203 14.97 16.4003L20.03 11.3403C20.69 10.6803 21.35 10.2403 22.23 9.80029C22.45 9.80029 22.67 9.80029 22.78 9.80029C22.89 9.80029 23 9.91029 23.11 10.1303L31.25 28.7203C31.36 28.9403 31.25 29.1603 31.14 29.3803L26.08 34.4403C25.42 35.1003 24.76 35.5403 23.88 35.9803C23.77 35.9803 23.66 35.9803 23.55 35.9803ZM16.18 16.9503L23.88 34.6603C24.43 34.3303 24.87 34.0003 25.2 33.6703L30.04 28.8303L22.34 11.1203C21.9 11.4503 21.35 11.7803 21.02 12.1103L16.18 16.9503Z" fill="#2A2C57"/>
<path d="M20.8001 36.64C18.9301 36.64 17.0601 35.98 15.6301 34.55L11.4501 30.37C10.1301 29.05 9.36011 27.18 9.36011 25.2C9.36011 23.22 10.1301 21.46 11.4501 20.03L20.1401 11.34C21.4601 10.02 23.3301 9.25 25.3101 9.25C27.2901 9.25 29.0501 10.02 30.4801 11.34L34.6601 15.52C37.5201 18.38 37.5201 23 34.6601 25.75L25.9701 34.44C24.4301 35.98 22.6701 36.64 20.8001 36.64ZM25.2001 10.46C23.5501 10.46 22.0101 11.12 20.8001 12.22L12.1101 20.91C10.9001 22.12 10.3501 23.66 10.3501 25.31C10.3501 26.96 11.0101 28.5 12.1101 29.71L16.2901 33.89C18.7101 36.31 22.5601 36.31 24.9801 33.89L33.6701 25.2C36.0901 22.78 36.0901 18.93 33.6701 16.51L29.6001 12.22C28.3901 11.01 26.8501 10.46 25.2001 10.46Z" fill="#2A2C57"/>
</svg>
