<svg width="169" height="132" viewBox="0 0 169 132" fill="none" xmlns="http://www.w3.org/2000/svg">
<path d="M139.394 6.97439C139.394 9.82135 137.104 12.147 134.252 12.147C131.4 12.147 129.552 9.82135 129.552 6.97439C129.552 4.12744 131.44 1.80176 134.252 1.80176C137.064 1.80176 139.394 4.12744 139.394 6.97439Z" fill="#6FD2FE"/>
<path d="M134.252 12.9091C131.119 12.9091 128.749 10.3428 128.749 6.9345C128.749 3.52617 131.119 1 134.252 1C137.506 1 140.197 3.68656 140.197 6.97459C140.197 10.2626 137.546 12.9091 134.252 12.9091ZM134.252 2.60392C132.002 2.60392 130.355 4.44842 130.355 6.97459C130.355 9.50077 132.002 11.3453 134.252 11.3453C136.622 11.3453 138.59 9.38047 138.59 6.97459C138.59 4.56872 136.662 2.60392 134.252 2.60392Z" fill="#2A2C57"/>
<path d="M139.394 6.97488C139.514 10.704 137.626 12.1876 135.417 12.1475C133.248 12.1074 131.44 9.82184 131.44 6.97488C131.44 4.12793 133.248 1.80225 135.417 1.80225C137.626 1.80225 139.313 4.12793 139.394 6.97488Z" fill="#CCCCCC"/>
<path d="M135.538 12.9092C135.497 12.9092 135.457 12.9092 135.377 12.9092C132.726 12.829 130.637 10.2226 130.637 6.93456C130.637 3.64652 132.766 0.959961 135.417 0.959961C138.028 0.959961 140.077 3.52623 140.197 6.89446C140.278 9.50082 139.434 10.9043 138.711 11.626C137.908 12.5082 136.783 12.9092 135.538 12.9092ZM135.417 2.60398C133.69 2.60398 132.244 4.56878 132.244 6.97465C132.244 9.34043 133.69 11.3052 135.417 11.3453C136.02 11.3453 136.863 11.225 137.546 10.5835C138.269 9.86171 138.631 8.61867 138.591 7.01475C138.51 4.52868 137.104 2.60398 135.417 2.60398Z" fill="#2A2C57"/>
<path d="M129.231 25.9412C129.07 25.9412 128.869 25.9011 128.708 25.7407C128.347 25.46 128.307 24.9388 128.588 24.618L141.885 8.3382C142.005 8.17781 141.965 8.01742 141.925 7.93722C141.884 7.85702 141.804 7.73673 141.603 7.73673H135.979C135.537 7.73673 135.176 7.37585 135.176 6.93477C135.176 6.49369 135.537 6.13281 135.979 6.13281H141.603C142.367 6.13281 143.049 6.57389 143.371 7.25556C143.692 7.93722 143.612 8.73918 143.13 9.34065L129.833 25.6204C129.672 25.8209 129.431 25.9412 129.231 25.9412Z" fill="#2A2C57"/>
<path d="M148.673 34.843C149.155 34.9633 149.437 35.4445 149.356 35.8856C149.236 36.3667 148.754 36.6474 148.312 36.5672L136.702 34.3618C136.22 34.2415 135.939 33.7604 136.019 33.3193C136.14 32.8381 136.622 32.5574 137.064 32.6376L148.673 34.843Z" fill="white"/>
<path d="M148.473 37.3693C148.352 37.3693 148.232 37.3693 148.111 37.3292L136.542 35.1238C136.06 35.0035 135.698 34.7629 135.457 34.362C135.216 33.961 135.136 33.5199 135.216 33.0788C135.297 32.6378 135.578 32.2769 135.979 32.0363C136.381 31.7957 136.823 31.7155 137.265 31.7957L148.834 34.0011C148.834 34.0011 148.834 34.0011 148.874 34.0011C149.798 34.2016 150.361 35.1238 150.16 36.006C149.959 36.848 149.276 37.3693 148.473 37.3693ZM136.903 33.3996H136.863C136.823 33.3996 136.823 33.4397 136.823 33.4397C136.823 33.4798 136.823 33.4798 136.823 33.5199C136.823 33.56 136.863 33.56 136.863 33.56L148.432 35.7654C148.513 35.7654 148.553 35.7654 148.553 35.6852C148.553 35.6451 148.553 35.605 148.473 35.5649L136.903 33.3595C136.903 33.3996 136.903 33.3996 136.903 33.3996Z" fill="#2A2C57"/>
<path d="M129.592 29.1089C128.226 28.7882 126.861 29.6703 126.539 31.0337C126.218 32.397 127.102 33.7603 128.467 34.0811L135.618 35.8053C136.984 36.1261 138.35 35.2439 138.671 33.8806C138.992 32.5173 138.109 31.1539 136.743 30.8332L129.592 29.1089Z" fill="#B9E9FF"/>
<path d="M136.14 36.6874C135.899 36.6874 135.658 36.6473 135.417 36.6072L128.266 34.883C126.499 34.482 125.334 32.6776 125.736 30.9133C125.937 30.0312 126.459 29.3094 127.222 28.8282C127.985 28.3471 128.869 28.1867 129.753 28.3872L136.903 30.1114C137.747 30.3119 138.51 30.8331 138.992 31.595C139.474 32.3569 139.635 33.239 139.434 34.1212C139.233 35.0033 138.711 35.7251 137.948 36.2063C137.385 36.4869 136.783 36.6874 136.14 36.6874ZM129.03 29.8708C128.226 29.8708 127.503 30.4321 127.343 31.2341C127.142 32.1564 127.744 33.1187 128.668 33.3192L135.819 35.0434C136.743 35.2439 137.667 34.6424 137.867 33.7202C137.988 33.2791 137.867 32.7979 137.626 32.3969C137.385 31.996 136.984 31.7153 136.542 31.6351L129.391 29.9109C129.271 29.8708 129.15 29.8708 129.03 29.8708Z" fill="#2A2C57"/>
<path d="M130.436 36.9679C133.297 36.9679 135.618 33.3774 135.618 28.9483C135.618 24.5192 133.297 20.9287 130.436 20.9287C127.574 20.9287 125.253 24.5192 125.253 28.9483C125.253 33.3774 127.574 36.9679 130.436 36.9679Z" fill="#B9E9FF"/>
<path d="M130.436 37.7701C127.101 37.7701 124.45 33.9207 124.45 28.9485C124.45 23.9764 127.061 20.127 130.436 20.127C133.77 20.127 136.421 23.9764 136.421 28.9485C136.421 33.9207 133.77 37.7701 130.436 37.7701ZM130.436 21.771C128.066 21.771 126.057 25.059 126.057 28.9886C126.057 32.9182 128.066 36.2062 130.436 36.2062C132.806 36.2062 134.814 32.9182 134.814 28.9886C134.814 25.059 132.806 21.771 130.436 21.771Z" fill="#2A2C57"/>
<path d="M126.619 35.5648C128.794 35.5648 130.556 32.836 130.556 29.4699C130.556 26.1038 128.794 23.375 126.619 23.375C124.445 23.375 122.683 26.1038 122.683 29.4699C122.683 32.836 124.445 35.5648 126.619 35.5648Z" fill="#FFB932"/>
<path d="M126.62 36.3264C123.968 36.3264 121.879 33.3191 121.879 29.4296C121.879 25.5401 123.968 22.5327 126.62 22.5327C129.271 22.5327 131.36 25.5401 131.36 29.4296C131.36 33.3191 129.271 36.3264 126.62 36.3264ZM126.62 24.1767C124.932 24.1767 123.486 26.5826 123.486 29.4697C123.486 32.3567 124.932 34.7626 126.62 34.7626C128.307 34.7626 129.753 32.3567 129.753 29.4697C129.753 26.5826 128.307 24.1767 126.62 24.1767Z" fill="#2A2C57"/>
<path d="M128.99 21.2495C124.169 21.2495 112.841 27.5048 112.76 33.3992C112.72 35.5244 120.433 44.3058 120.433 44.3058H126.579L120.433 35.5244L130.355 36.9278C130.355 36.9278 125.173 35.5244 125.173 28.9082C125.254 22.7331 128.99 21.2495 128.99 21.2495Z" fill="#36BBF9"/>
<path d="M126.62 45.1481H120.473C120.232 45.1481 120.032 45.0679 119.871 44.8674C118.023 42.7422 111.957 35.685 111.997 33.3994C112.037 29.4698 116.215 26.1417 118.666 24.4575C122.241 22.0517 126.419 20.4478 128.99 20.4478C129.391 20.4478 129.713 20.7284 129.793 21.0893C129.873 21.4502 129.673 21.8512 129.311 21.9715C129.15 22.0517 126.057 23.3749 126.057 28.9084C126.057 34.7627 130.436 36.086 130.637 36.1261C131.038 36.2463 131.279 36.6473 131.199 37.0483C131.119 37.4493 130.717 37.73 130.315 37.6899L122.201 36.527L127.262 43.7848C127.423 44.0254 127.463 44.3461 127.302 44.6268C127.182 44.9476 126.901 45.1481 126.62 45.1481ZM120.835 43.5442H125.053L119.79 36.0058C119.59 35.7251 119.59 35.4043 119.75 35.1236C119.911 34.8429 120.232 34.7226 120.554 34.7627L126.901 35.685C125.615 34.3617 124.41 32.2366 124.41 28.9886C124.41 25.9011 125.294 23.8561 126.258 22.5729C121.156 24.0967 113.644 29.0287 113.564 33.4395C113.604 34.5221 117.3 39.4542 120.835 43.5442Z" fill="#2A2C57"/>
<path d="M88.2159 69.4873C83.3953 69.4873 78.2534 76.344 78.2534 85.0052C78.2534 93.6664 84.48 99.4405 89.3808 99.4405C94.2817 99.4405 100.147 99.4405 102.718 99.4405V105.535H63.5508V69.4873H88.2159Z" fill="#B9E9FF"/>
<path d="M102.718 106.338H63.551C63.1091 106.338 62.7476 105.977 62.7476 105.536V69.4875C62.7476 69.0464 63.1091 68.6855 63.551 68.6855H88.2161C88.6579 68.6855 89.0195 69.0464 89.0195 69.4875C89.0195 69.9286 88.6579 70.2895 88.2161 70.2895C83.0742 70.2895 79.057 78.1888 79.057 85.0054C79.057 93.4661 85.0827 98.6387 89.381 98.6387H102.718C103.16 98.6387 103.521 98.9996 103.521 99.4407V105.536C103.521 106.017 103.16 106.338 102.718 106.338ZM64.3544 104.734H101.914V100.243H89.381C83.7571 100.243 77.4502 93.7067 77.4502 85.0054C77.4502 80.755 78.6152 76.7051 80.7442 73.5374C81.6682 72.1741 82.6724 71.0914 83.7972 70.2895H64.3544V104.734Z" fill="#2A2C57"/>
<path d="M1.165 98.2776L17.3941 72.4946C20.3668 67.763 25.5489 64.9161 31.1327 64.9161H89.8227C90.9877 64.9161 91.9518 65.8784 91.9518 67.0413V67.0814C91.9518 68.2442 90.9877 69.2066 89.8227 69.2066H77.7312C72.1876 69.2066 66.3628 77.0657 66.3628 86.9699C66.3628 96.8741 73.4731 103.49 79.097 103.49C84.721 103.49 94.362 103.49 97.2945 103.49C100.227 103.49 102.677 101.445 102.677 86.9699V58.9415C102.677 49.7591 110.149 42.2607 119.389 42.2607H127.865C137.064 42.2607 144.576 49.719 144.576 58.9415V73.2564C144.576 78.0682 144.576 108.061 144.576 108.061H9.48042C9.48042 108.102 -0.682875 106.538 1.165 98.2776Z" fill="#36BBF9"/>
<path d="M144.576 108.904H9.48031C9.44014 108.904 9.39997 108.904 9.3598 108.904C9.11877 108.864 3.89652 108.022 1.40591 104.413C0.20078 102.648 -0.160761 100.523 0.401635 98.1574C0.401635 98.0772 0.441806 97.997 0.522149 97.9168L16.7513 72.1339C19.8846 67.1617 25.2676 64.1544 31.1727 64.1544H89.8628C91.4696 64.1544 92.7953 65.4776 92.7953 67.0815V67.1216C92.7953 68.7255 91.4696 70.0488 89.8628 70.0488H77.7713C71.8259 70.0488 67.2062 79.151 67.2062 87.0102C67.2062 96.754 74.1559 102.729 79.1371 102.729H97.3346C98.9415 102.729 101.914 102.729 101.914 87.0102V58.9817C101.914 49.3582 109.747 41.499 119.429 41.499H127.905C137.546 41.499 145.419 49.3181 145.419 58.9817V108.102C145.379 108.543 145.018 108.904 144.576 108.904ZM9.52048 107.3H143.732V58.9416C143.732 50.2003 136.622 43.0628 127.825 43.0628H119.348C110.591 43.0628 103.441 50.1602 103.441 58.9416V86.9701C103.441 99.4406 101.713 104.292 97.2543 104.292H79.0567C72.6695 104.292 65.5191 96.8743 65.5191 86.9701C65.5191 82.1583 66.8447 77.507 69.255 73.8982C71.6251 70.4096 74.6781 68.3646 77.6909 68.3646H89.7824C90.5055 68.3646 91.1081 67.7632 91.1081 67.0414V67.0013C91.1081 66.2796 90.5055 65.6781 89.7824 65.6781H31.1727C25.83 65.6781 20.9291 68.3646 18.1171 72.8957L1.96831 98.5584C1.5666 100.443 1.8478 102.087 2.77173 103.41C4.69995 106.337 8.99826 107.179 9.52048 107.3Z" fill="#2A2C57"/>
<path d="M30.7707 130.677C44.0157 130.677 54.7529 120.569 54.7529 108.102C54.7529 95.6336 44.0157 85.5264 30.7707 85.5264C17.5258 85.5264 6.78857 95.6336 6.78857 108.102C6.78857 120.569 17.5258 130.677 30.7707 130.677Z" fill="#CCCCCC"/>
<path d="M30.7709 131.479C17.1128 131.479 5.98535 120.973 5.98535 108.102C5.98535 95.2303 17.1128 84.7246 30.7709 84.7246C44.4291 84.7246 55.5565 95.2303 55.5565 108.102C55.5565 120.973 44.4693 131.479 30.7709 131.479ZM30.7709 86.3285C17.9965 86.3285 7.5922 96.1124 7.5922 108.102C7.5922 120.091 17.9965 129.875 30.7709 129.875C43.5454 129.875 53.9497 120.091 53.9497 108.102C53.9497 96.1124 43.5855 86.3285 30.7709 86.3285Z" fill="#2A2C57"/>
<path d="M144.214 130.677C157.459 130.677 168.196 120.569 168.196 108.102C168.196 95.6336 157.459 85.5264 144.214 85.5264C130.969 85.5264 120.232 95.6336 120.232 108.102C120.232 120.569 130.969 130.677 144.214 130.677Z" fill="#CCCCCC"/>
<path d="M144.214 131.479C130.556 131.479 119.429 120.973 119.429 108.102C119.429 95.2303 130.556 84.7246 144.214 84.7246C157.872 84.7246 169 95.2303 169 108.102C169 120.973 157.872 131.479 144.214 131.479ZM144.214 86.3285C131.44 86.3285 121.036 96.1124 121.036 108.102C121.036 120.091 131.44 129.875 144.214 129.875C156.989 129.875 167.393 120.091 167.393 108.102C167.393 96.1124 156.989 86.3285 144.214 86.3285Z" fill="#2A2C57"/>
<path d="M123.526 81.4365V48.7166C123.526 47.1528 124.811 45.8696 126.378 45.8696H126.418C127.864 45.8696 129.069 46.9523 129.27 48.3958C129.873 53.809 131.721 66.1993 135.658 67.9636C140.759 70.2492 140.237 74.4595 140.237 74.4595" fill="#6FD2FE"/>
<path d="M123.526 82.2387C123.084 82.2387 122.723 81.8778 122.723 81.4367V48.7168C122.723 46.7119 124.37 45.0679 126.378 45.0679H126.418C128.266 45.0679 129.833 46.4713 130.034 48.3158C131.239 58.9017 133.489 66.1594 135.939 67.242C141.523 69.7281 141.001 74.3795 141.001 74.58C140.96 75.021 140.559 75.3418 140.117 75.2616C139.675 75.2215 139.354 74.8206 139.434 74.3795C139.434 74.2191 139.755 70.6905 135.336 68.6856C133.127 67.6831 130.154 63.3926 128.467 48.4762C128.347 47.4337 127.463 46.6718 126.418 46.6718H126.378C125.253 46.6718 124.33 47.594 124.33 48.7168V81.4367C124.33 81.8778 123.968 82.2387 123.526 82.2387Z" fill="#323854"/>
<path d="M123.526 81.9981C123.365 81.9981 123.205 81.958 123.084 81.8778C122.843 81.7174 122.723 81.4768 122.723 81.1961V48.7167C122.723 48.0752 122.883 47.4737 123.205 46.9123C123.406 46.5515 123.807 46.4312 124.169 46.5515C125.454 47.0326 126.378 48.1955 126.499 49.5588C127.704 60.1447 129.953 67.4024 132.404 68.485C137.988 70.9711 137.465 75.6225 137.465 75.823C137.425 76.1037 137.224 76.3442 136.983 76.4645L123.807 81.958C123.727 81.9981 123.647 81.9981 123.526 81.9981ZM124.33 48.5163C124.33 48.5564 124.33 48.6366 124.33 48.6767V79.9932L135.899 75.1814C135.859 74.1389 135.336 71.5726 131.761 69.9286C129.552 68.9261 126.579 64.6356 124.892 49.7192C124.892 49.2781 124.651 48.837 124.33 48.5163Z" fill="#2A2C57"/>
<path d="M123.526 82.2387C123.084 82.2387 122.723 81.8778 122.723 81.4367V48.7168C122.723 46.7119 124.37 45.0679 126.378 45.0679H126.418C128.266 45.0679 129.833 46.4713 130.034 48.3158C131.239 58.9017 133.489 66.1594 135.939 67.242C141.523 69.7281 141.001 74.3795 141.001 74.58C140.96 75.021 140.559 75.3418 140.117 75.2616C139.675 75.2215 139.354 74.8206 139.434 74.3795C139.434 74.2191 139.755 70.6905 135.336 68.6856C133.127 67.6831 130.154 63.3926 128.467 48.4762C128.347 47.4337 127.463 46.6718 126.418 46.6718H126.378C125.253 46.6718 124.33 47.594 124.33 48.7168V81.4367C124.33 81.8778 123.968 82.2387 123.526 82.2387Z" fill="#2A2C57"/>
<path d="M140.639 78.7095C140.639 81.2357 139.353 83.2806 137.787 83.2806H136.742C135.176 83.2806 133.89 81.2357 133.89 78.7095V73.2963C133.89 70.7701 135.176 68.7251 136.742 68.7251H137.787C139.353 68.7251 140.639 70.7701 140.639 73.2963V78.7095Z" fill="#B9E9FF"/>
<path d="M137.787 84.0828H136.742C134.694 84.0828 133.087 81.717 133.087 78.7097V73.2965C133.087 70.2891 134.694 67.9233 136.742 67.9233H137.787C139.836 67.9233 141.443 70.2891 141.443 73.2965V78.7097C141.443 81.717 139.836 84.0828 137.787 84.0828ZM136.742 69.4872C135.778 69.4872 134.694 71.051 134.694 73.2564V78.6696C134.694 80.875 135.778 82.4388 136.742 82.4388H137.787C138.751 82.4388 139.836 80.875 139.836 78.6696V73.2564C139.836 71.051 138.751 69.4872 137.787 69.4872H136.742Z" fill="#2A2C57"/>
<path d="M110.149 108.101C110.149 108.101 116.817 72.8152 142.487 73.2964C163.938 73.6974 167.152 93.7062 168.196 93.3855H132.404" fill="#B9E9FF"/>
<path d="M110.149 108.903C110.109 108.903 110.069 108.903 109.988 108.903C109.547 108.823 109.265 108.382 109.346 107.981C109.426 107.62 111.113 98.919 115.974 90.1777C122.522 78.429 131.681 72.3341 142.487 72.5346C160.443 72.8554 165.907 86.3283 167.996 91.3806C168.196 91.9019 168.437 92.4633 168.558 92.7039C168.759 92.8241 168.92 93.0246 168.96 93.2652C169.04 93.6662 168.799 94.0271 168.437 94.1474C168.237 94.2276 168.076 94.2276 167.915 94.1875H132.364C131.922 94.1875 131.56 93.8266 131.56 93.3855C131.56 92.9444 131.922 92.5836 132.364 92.5836H166.75C166.67 92.3831 166.59 92.1826 166.509 91.9821C164.541 87.1703 159.319 74.4593 142.447 74.1385C132.123 73.9781 123.687 79.5918 117.38 90.9395C112.6 99.4804 110.912 108.222 110.912 108.302C110.872 108.623 110.511 108.903 110.149 108.903Z" fill="#2A2C57"/>
<path d="M27.7986 130.677C39.4018 130.677 48.8081 120.569 48.8081 108.102C48.8081 95.6336 39.4018 85.5264 27.7986 85.5264C16.1953 85.5264 6.78906 95.6336 6.78906 108.102C6.78906 120.569 16.1953 130.677 27.7986 130.677Z" fill="#8E8E8E"/>
<path d="M27.7986 130.677C39.4018 130.677 48.8081 120.569 48.8081 108.102C48.8081 95.6336 39.4018 85.5264 27.7986 85.5264C16.1953 85.5264 6.78906 95.6336 6.78906 108.102C6.78906 120.569 16.1953 130.677 27.7986 130.677Z" fill="url(#paint0_linear)"/>
<path d="M14.8635 110.187C14.8635 100.162 22.4156 92.0624 31.7353 92.0624C41.055 92.0624 48.6072 100.202 48.6072 110.187C48.6072 110.628 48.6072 111.069 48.567 111.47C48.7277 110.347 48.8081 109.224 48.8081 108.061C48.8081 95.591 39.408 85.4863 27.7986 85.4863C16.1891 85.4863 6.78906 95.591 6.78906 108.061C6.78906 120.532 16.1891 130.637 27.7986 130.637C33.6636 130.637 39.0063 128.03 42.8226 123.86C39.8499 126.627 35.9935 128.311 31.7755 128.311C22.4156 128.351 14.8635 120.211 14.8635 110.187Z" fill="#707175"/>
<path d="M48.5267 111.51C47.8438 116.281 45.7951 120.612 42.7822 123.9C46.0763 120.812 48.2053 116.442 48.5267 111.51Z" fill="#51BFE0"/>
<path d="M27.7983 131.479C15.7871 131.479 5.98535 120.973 5.98535 108.102C5.98535 95.2303 15.7469 84.7246 27.7983 84.7246C39.8496 84.7246 49.6112 95.2303 49.6112 108.102C49.6112 120.973 39.8094 131.479 27.7983 131.479ZM27.7983 86.3285C16.6709 86.3285 7.5922 96.1124 7.5922 108.102C7.5922 120.091 16.6307 129.875 27.7983 129.875C38.9257 129.875 48.0044 120.091 48.0044 108.102C48.0044 96.1124 38.9257 86.3285 27.7983 86.3285Z" fill="#2A2C57"/>
<path d="M141.201 130.677C152.805 130.677 162.211 120.569 162.211 108.102C162.211 95.6336 152.805 85.5264 141.201 85.5264C129.598 85.5264 120.192 95.6336 120.192 108.102C120.192 120.569 129.598 130.677 141.201 130.677Z" fill="#8E8E8E"/>
<path d="M141.201 130.677C152.805 130.677 162.211 120.569 162.211 108.102C162.211 95.6336 152.805 85.5264 141.201 85.5264C129.598 85.5264 120.192 95.6336 120.192 108.102C120.192 120.569 129.598 130.677 141.201 130.677Z" fill="url(#paint1_linear)"/>
<path d="M141.201 85.5264C129.592 85.5264 120.192 95.631 120.192 108.102C120.192 120.572 129.592 130.677 141.201 130.677C152.811 130.677 162.211 120.572 162.211 108.102C162.211 95.631 152.771 85.5264 141.201 85.5264ZM145.982 125.504C137.024 125.504 129.793 117.725 129.793 108.102C129.793 98.478 137.024 90.699 145.982 90.699C154.94 90.699 162.171 98.478 162.171 108.102C162.171 117.725 154.94 125.504 145.982 125.504Z" fill="#707175"/>
<path d="M141.202 131.479C129.19 131.479 119.389 120.973 119.389 108.102C119.389 95.2303 129.15 84.7246 141.202 84.7246C153.253 84.7246 163.015 95.2303 163.015 108.102C163.015 120.973 153.213 131.479 141.202 131.479ZM141.202 86.3285C130.074 86.3285 120.996 96.1124 120.996 108.102C120.996 120.091 130.034 129.875 141.202 129.875C152.329 129.875 161.408 120.091 161.408 108.102C161.408 96.1124 152.329 86.3285 141.202 86.3285Z" fill="#2A2C57"/>
<path d="M141.202 121.896C134.091 121.896 128.307 115.72 128.307 108.102C128.307 100.483 134.091 94.3081 141.202 94.3081C148.312 94.3081 154.097 100.483 154.097 108.102C154.097 115.72 148.312 121.896 141.202 121.896ZM141.202 95.912C134.975 95.912 129.913 101.405 129.913 108.102C129.913 114.798 134.975 120.292 141.202 120.292C147.428 120.292 152.49 114.798 152.49 108.102C152.49 101.405 147.428 95.912 141.202 95.912Z" fill="#2A2C57"/>
<path d="M141.201 116.081C145.306 116.081 148.633 112.509 148.633 108.102C148.633 103.695 145.306 100.122 141.201 100.122C137.097 100.122 133.77 103.695 133.77 108.102C133.77 112.509 137.097 116.081 141.201 116.081Z" fill="#36BBF9"/>
<path d="M141.201 116.883C136.662 116.883 132.966 112.954 132.966 108.102C132.966 103.25 136.662 99.3203 141.201 99.3203C145.741 99.3203 149.436 103.25 149.436 108.102C149.436 112.954 145.741 116.883 141.201 116.883ZM141.201 100.924C137.546 100.924 134.573 104.132 134.573 108.102C134.573 112.071 137.546 115.279 141.201 115.279C144.857 115.279 147.83 112.071 147.83 108.102C147.83 104.132 144.857 100.924 141.201 100.924Z" fill="#2A2C57"/>
<path d="M27.4369 121.896C20.3266 121.896 14.542 115.72 14.542 108.102C14.542 100.483 20.3266 94.3081 27.4369 94.3081C34.5472 94.3081 40.3319 100.483 40.3319 108.102C40.3319 115.72 34.5472 121.896 27.4369 121.896ZM27.4369 95.912C21.2104 95.912 16.1488 101.405 16.1488 108.102C16.1488 114.798 21.2104 120.292 27.4369 120.292C33.6635 120.292 38.725 114.798 38.725 108.102C38.725 101.405 33.6635 95.912 27.4369 95.912Z" fill="#2A2C57"/>
<path d="M27.4365 116.081C31.5409 116.081 34.8682 112.509 34.8682 108.102C34.8682 103.695 31.5409 100.122 27.4365 100.122C23.3322 100.122 20.0049 103.695 20.0049 108.102C20.0049 112.509 23.3322 116.081 27.4365 116.081Z" fill="#36BBF9"/>
<path d="M27.4367 116.883C22.8974 116.883 19.2017 112.954 19.2017 108.102C19.2017 103.25 22.8974 99.3203 27.4367 99.3203C31.9761 99.3203 35.6718 103.25 35.6718 108.102C35.6718 112.954 31.9761 116.883 27.4367 116.883ZM27.4367 100.924C23.7812 100.924 20.8085 104.132 20.8085 108.102C20.8085 112.071 23.7812 115.279 27.4367 115.279C31.0923 115.279 34.065 112.071 34.065 108.102C34.065 104.132 31.0923 100.924 27.4367 100.924Z" fill="#2A2C57"/>
<path d="M143.973 106.458C145.058 108.102 144.576 110.307 142.929 111.39C141.282 112.473 139.072 111.991 137.988 110.347L126.258 92.5037C125.173 90.8597 125.655 88.6543 127.302 87.5717C128.949 86.489 131.159 86.9702 132.243 88.6142L143.973 106.458Z" fill="#B9E9FF"/>
<path d="M143.25 108.142C141.603 109.225 139.394 108.743 138.309 107.099L126.579 89.2558C126.459 89.0553 126.338 88.8548 126.258 88.6543C125.535 89.777 125.495 91.3008 126.298 92.5037L138.028 110.347C139.113 111.991 141.322 112.432 142.969 111.39C144.415 110.427 144.938 108.623 144.335 107.099C144.054 107.5 143.692 107.861 143.25 108.142Z" fill="#6FD2FE"/>
<path d="M141 112.753C140.719 112.753 140.398 112.713 140.117 112.673C138.992 112.432 137.988 111.751 137.345 110.788L125.615 92.9448C124.972 91.9825 124.771 90.8196 124.972 89.6568C125.213 88.534 125.896 87.5316 126.86 86.89C128.869 85.5668 131.6 86.1282 132.926 88.1331L144.656 105.977C145.982 107.982 145.419 110.708 143.411 112.031C142.688 112.513 141.844 112.753 141 112.753ZM129.27 87.8123C128.748 87.8123 128.226 87.9727 127.744 88.2534C127.141 88.6543 126.7 89.2558 126.539 89.9776C126.378 90.6993 126.539 91.4211 126.941 92.0627L138.671 109.906C139.072 110.508 139.675 110.949 140.398 111.109C141.121 111.27 141.844 111.109 142.487 110.708C143.772 109.866 144.134 108.182 143.29 106.899L131.56 89.0553C131.078 88.2534 130.194 87.8123 129.27 87.8123Z" fill="#2A2C57"/>
<path d="M103.32 108.102C103.32 108.102 109.989 73.2969 135.658 73.2969C158.315 73.2969 161.368 93.3859 161.368 93.3859H125.575L118.786 108.102H103.32Z" fill="#6FD2FE"/>
<path d="M118.786 108.904H103.32C103.079 108.904 102.838 108.783 102.718 108.623C102.557 108.422 102.517 108.182 102.557 107.941C102.637 107.58 104.324 98.9994 109.185 90.2981C115.733 78.6296 124.892 72.4946 135.698 72.4946C147.749 72.4946 154.297 78.1484 157.712 82.88C161.368 88.0125 162.171 93.0649 162.211 93.2654C162.251 93.5059 162.171 93.7465 162.01 93.9069C161.85 94.0673 161.649 94.1876 161.408 94.1876H126.137L119.549 108.462C119.389 108.703 119.107 108.904 118.786 108.904ZM104.325 107.3H118.264L124.852 93.0248C124.972 92.7441 125.254 92.5436 125.575 92.5436H160.403C160.002 90.8996 158.917 87.2908 156.346 83.7221C151.726 77.3064 144.777 74.0584 135.698 74.0584C125.374 74.0584 116.938 79.7925 110.591 91.06C106.735 97.9167 104.887 104.814 104.325 107.3Z" fill="#2A2C57"/>
<path d="M61.8235 92.5033C61.8235 101.124 54.6329 108.101 45.7953 108.101H16.872C7.99421 108.101 0.84375 106.818 0.84375 101.124C0.84375 90.8192 19.8447 73.2964 35.7525 73.2964H45.7953C54.6329 73.2964 61.8235 80.2734 61.8235 88.8945V92.5033Z" fill="#B9E9FF"/>
<path d="M16.8721 108.904C11.6499 108.904 7.95411 108.462 5.30281 107.5C1.8481 106.257 0.0805664 104.132 0.0805664 101.125C0.0805664 95.9118 4.57973 88.8545 11.8507 82.7596C19.6037 76.2638 28.3209 72.5347 35.7927 72.5347H45.7953C55.0749 72.5347 62.627 79.8726 62.627 88.9347V92.5436C62.627 101.606 55.0749 108.944 45.7953 108.944H16.8721C16.9123 108.904 16.8721 108.904 16.8721 108.904ZM35.7927 74.0985C19.7644 74.0985 1.68741 91.7416 1.68741 101.125C1.68741 103.45 3.01306 105.014 5.82504 106.016C8.27548 106.899 11.8909 107.3 16.8721 107.3H16.9123H45.8355C54.2313 107.3 61.0604 100.643 61.0604 92.5035V88.8946C61.0604 80.7548 54.2313 74.0985 45.8355 74.0985H35.7927Z" fill="#2A2C57"/>
<path d="M54.0702 92.5038C54.0702 101.125 47.8035 108.102 40.0504 108.102H14.823C7.06992 108.102 0.803223 106.819 0.803223 101.125C0.803223 90.8197 17.3939 73.2969 31.3333 73.2969H40.0906C47.8436 73.2969 54.1103 80.2739 54.1103 88.895V92.5038H54.0702Z" fill="#6FD2FE"/>
<path d="M14.783 108.904C10.2035 108.904 6.94961 108.462 4.57951 107.5C1.5265 106.257 0 104.092 0 101.125C0 95.9118 3.93677 88.8947 10.2838 82.7597C17.0727 76.2237 24.7454 72.4946 31.3335 72.4946H40.0908C48.2455 72.4946 54.9139 79.8325 54.9139 88.8947V92.5035C54.9139 101.566 48.2857 108.904 40.0908 108.904H14.783ZM31.3335 74.0985C17.3539 74.0985 1.60685 91.7416 1.60685 101.125C1.60685 103.45 2.73164 105.014 5.22225 106.017C7.35132 106.899 10.4847 107.3 14.783 107.3C14.783 107.3 14.783 107.3 14.8232 107.3H40.0908C47.3618 107.3 53.3071 100.643 53.3071 92.5035V88.8947C53.3071 80.7548 47.4019 74.0985 40.0908 74.0985H31.3335Z" fill="#2A2C57"/>
<path d="M92.1524 60.0646C92.1524 62.5908 90.1037 64.6357 87.5729 64.6357H41.0146C38.4838 64.6357 36.4351 62.5908 36.4351 60.0646V49.9198C36.4351 47.3936 38.4838 45.3486 41.0146 45.3486H61.1805C64.4745 45.3486 67.648 46.5516 70.1387 48.757L70.219 48.8372C72.6694 51.0425 75.843 52.2455 79.1772 52.2455H87.5729C90.1037 52.2455 92.1524 54.2905 92.1524 56.8166V60.0646Z" fill="#373737"/>
<path d="M36.4756 60.3452C36.5961 62.7511 38.6047 64.6758 41.0551 64.6758H87.5733C90.0237 64.6758 91.9921 62.7511 92.1528 60.3452H36.4756Z" fill="#1B1B1B"/>
<path d="M87.5731 65.4374H41.0148C38.0421 65.4374 35.6318 63.0315 35.6318 60.0643V49.9195C35.6318 46.9523 38.0421 44.5464 41.0148 44.5464H61.1807C64.6756 44.5464 68.0499 45.8295 70.6611 48.1552L70.7414 48.2354C73.0713 50.2804 76.044 51.4432 79.1372 51.4432H87.5731C90.5458 51.4432 92.956 53.8491 92.956 56.8164V60.1044C92.956 63.0315 90.5458 65.4374 87.5731 65.4374ZM41.0148 46.1503C38.9259 46.1503 37.2387 47.8344 37.2387 49.9195V60.0643C37.2387 62.1494 38.9259 63.8335 41.0148 63.8335H87.5731C89.662 63.8335 91.3492 62.1494 91.3492 60.0643V56.7763C91.3492 54.6912 89.662 53.0071 87.5731 53.0071H79.1774C75.6825 53.0071 72.3081 51.7239 69.697 49.3982L69.6166 49.318C67.2867 47.273 64.314 46.1102 61.2208 46.1102H41.0148V46.1503Z" fill="#2A2C57"/>
<path d="M79.9405 60.0646C79.9405 62.5908 77.8918 64.6357 75.361 64.6357H28.8027C26.2719 64.6357 24.2231 62.5908 24.2231 60.0646V49.9198C24.2231 47.3936 26.2719 45.3486 28.8027 45.3486H48.9686C52.2626 45.3486 55.4361 46.5516 57.9267 48.757L58.0071 48.8372C60.4575 51.0425 63.631 52.2455 66.9652 52.2455H75.361C77.8918 52.2455 79.9405 54.2905 79.9405 56.8166V60.0646Z" fill="#4F4F4F"/>
<path d="M24.2231 60.0645C24.2231 62.5906 26.2719 64.6356 28.8027 64.6356H75.3208C77.8516 64.6356 79.9004 62.5906 79.9004 60.0645H24.2231Z" fill="#373737"/>
<path d="M75.3612 65.4374H28.8029C25.8302 65.4374 23.4199 63.0315 23.4199 60.0643V49.9195C23.4199 46.9523 25.8302 44.5464 28.8029 44.5464H48.9688C52.4637 44.5464 55.838 45.8295 58.4492 48.1552L58.5295 48.2354C60.8594 50.2804 63.8321 51.4432 66.9253 51.4432H75.321C78.2937 51.4432 80.704 53.8491 80.704 56.8164V60.1044C80.7441 63.0315 78.2937 65.4374 75.3612 65.4374ZM28.8029 46.1503C26.714 46.1503 25.0268 47.8344 25.0268 49.9195V60.0643C25.0268 62.1494 26.714 63.8335 28.8029 63.8335H75.321C77.4099 63.8335 79.0971 62.1494 79.0971 60.0643V56.7763C79.0971 54.6912 77.4099 53.0071 75.321 53.0071H66.9253C63.4304 53.0071 60.056 51.7239 57.4449 49.3982L57.3645 49.318C55.0346 47.273 52.0619 46.1102 48.9688 46.1102H28.8029V46.1503Z" fill="#2A2C57"/>
<path d="M98.0577 8.37809C98.0577 11.7463 95.3261 14.473 91.9919 14.473C88.6577 14.473 86.4482 11.7463 86.4482 8.37809C86.4482 5.00986 88.6577 2.2832 91.9919 2.2832C95.3261 2.2832 98.0577 5.00986 98.0577 8.37809Z" fill="#6FD2FE"/>
<path d="M91.9921 15.2751C88.2963 15.2751 85.645 12.3881 85.645 8.37829C85.645 4.3685 88.3365 1.48145 91.9921 1.48145C95.7681 1.48145 98.8613 4.56899 98.8613 8.37829C98.8613 12.1876 95.7681 15.2751 91.9921 15.2751ZM91.9921 3.08536C89.2604 3.08536 87.2519 5.33085 87.2519 8.37829C87.2519 11.4658 89.2604 13.6712 91.9921 13.6712C94.8844 13.6712 97.2545 11.3054 97.2545 8.37829C97.2545 5.45114 94.8844 3.08536 91.9921 3.08536Z" fill="#2A2C57"/>
<path d="M93.3577 14.473C95.9535 14.473 98.0578 11.7442 98.0578 8.37809C98.0578 5.01198 95.9535 2.2832 93.3577 2.2832C90.762 2.2832 88.6577 5.01198 88.6577 8.37809C88.6577 11.7442 90.762 14.473 93.3577 14.473Z" fill="#CCCCCC"/>
<path d="M93.3579 15.2751C90.3451 15.2751 87.8545 12.1876 87.8545 8.37829C87.8545 4.56899 90.3049 1.48145 93.3579 1.48145C96.4109 1.48145 98.8614 4.56899 98.8614 8.37829C98.8614 12.1876 96.4109 15.2751 93.3579 15.2751ZM93.3579 3.08536C91.2289 3.08536 89.4613 5.45114 89.4613 8.37829C89.4613 11.3054 91.1887 13.6712 93.3579 13.6712C95.5272 13.6712 97.2545 11.3054 97.2545 8.37829C97.2545 5.45114 95.5272 3.08536 93.3579 3.08536Z" fill="#2A2C57"/>
<path d="M115.412 29.7903C116.738 29.3893 118.184 30.111 118.586 31.4343C118.987 32.7575 118.264 34.201 116.939 34.602L109.989 36.9277C108.663 37.3287 107.217 36.6069 106.815 35.2837C106.414 33.9604 107.137 32.5169 108.462 32.1159L115.412 29.7903Z" fill="#B9E9FF"/>
<path d="M109.226 37.8901C107.779 37.8901 106.494 36.9679 106.012 35.5644C105.449 33.8001 106.454 31.9155 108.221 31.3542L115.171 29.0285C116.015 28.7478 116.938 28.828 117.742 29.2691C118.545 29.67 119.108 30.3918 119.389 31.2339C119.67 32.0759 119.59 32.9982 119.148 33.8001C118.746 34.6021 118.023 35.1635 117.179 35.4441L110.23 37.7698C109.908 37.8099 109.587 37.8901 109.226 37.8901ZM115.693 30.5522L108.744 32.8779C107.82 33.1586 107.297 34.161 107.579 35.0432C107.86 35.9654 108.864 36.4867 109.748 36.1659L116.697 33.8402C117.139 33.6798 117.501 33.3992 117.742 32.9982C117.943 32.5972 117.983 32.116 117.862 31.6749C117.742 31.2339 117.42 30.873 117.019 30.6725C116.577 30.4319 116.135 30.3918 115.693 30.5522Z" fill="#2A2C57"/>
<path d="M96.8525 37.088C96.3705 37.2484 96.1294 37.7296 96.2499 38.2108C96.4106 38.692 96.8927 38.9325 97.3747 38.8123L108.743 35.6445C109.225 35.4841 109.466 35.0029 109.346 34.5218C109.185 34.0406 108.703 33.8 108.221 33.9203L96.8525 37.088Z" fill="white"/>
<path d="M97.1339 39.6143C96.4109 39.6143 95.7681 39.1331 95.5271 38.4114C95.2459 37.5292 95.728 36.5669 96.6519 36.2862C96.6519 36.2862 96.6519 36.2862 96.6921 36.2862L108.06 33.1184C108.462 32.9982 108.944 33.0383 109.346 33.2387C109.748 33.4392 110.029 33.8001 110.19 34.2412C110.31 34.6823 110.27 35.1233 110.069 35.5243C109.868 35.9253 109.507 36.206 109.065 36.3664L97.616 39.5341C97.4553 39.5742 97.2946 39.6143 97.1339 39.6143ZM97.0938 37.85C97.0536 37.85 97.0134 37.9302 97.0536 37.9703C97.0536 38.0104 97.1339 38.0505 97.1741 38.0104L108.583 34.8427C108.583 34.8427 108.583 34.8427 108.623 34.8026C108.623 34.7625 108.623 34.7625 108.623 34.7224C108.623 34.6823 108.583 34.6823 108.583 34.6823C108.543 34.6823 108.543 34.6823 108.502 34.6823L97.0938 37.85Z" fill="#2A2C57"/>
<path d="M118.103 29.1088C117.661 29.1088 117.3 28.7479 117.3 28.3068V22.3723C117.3 21.5704 116.858 20.8486 116.175 20.4476L97.0936 9.54097C96.6919 9.30038 96.2098 9.18009 95.7278 9.18009H92.7551C92.3132 9.18009 91.9517 8.81921 91.9517 8.37813C91.9517 7.93705 92.3132 7.57617 92.7551 7.57617H95.7278C96.491 7.57617 97.2543 7.77666 97.897 8.13754L116.978 19.0442C118.183 19.7259 118.907 21.009 118.907 22.3723V28.3068C118.907 28.7479 118.545 29.1088 118.103 29.1088Z" fill="#2A2C57"/>
<path d="M105.208 64.916H102.717V74.9806H105.208C106.895 74.9806 108.261 73.6173 108.261 71.9331V67.9635C108.261 66.2793 106.895 64.916 105.208 64.916Z" fill="#B9E9FF"/>
<path d="M105.208 75.7828H102.717C102.276 75.7828 101.914 75.4219 101.914 74.9808V64.9162C101.914 64.4751 102.276 64.1143 102.717 64.1143H105.208C107.337 64.1143 109.065 65.8385 109.065 67.9637V71.9334C109.065 74.0585 107.337 75.7828 105.208 75.7828ZM103.521 74.1788H105.208C106.453 74.1788 107.458 73.1764 107.458 71.9334V67.9637C107.458 66.7206 106.453 65.7182 105.208 65.7182H103.521V74.1788Z" fill="#2A2C57"/>
<path d="M168.157 132H4.61983C4.17795 132 3.81641 131.639 3.81641 131.198C3.81641 130.757 4.17795 130.396 4.61983 130.396H168.157C168.598 130.396 168.96 130.757 168.96 131.198C168.96 131.639 168.598 132 168.157 132Z" fill="#2A2C57"/>
<path opacity="0.42" d="M42.7824 78.4695C42.7824 79.3116 42.0994 79.9932 41.2558 79.9932H32.5387C31.6951 79.9932 31.0122 79.3116 31.0122 78.4695C31.0122 77.6275 31.6951 76.9458 32.5387 76.9458H41.2558C42.0994 76.9458 42.7824 77.6275 42.7824 78.4695Z" fill="white"/>
<path opacity="0.42" d="M141.483 78.4695C141.483 79.3116 140.8 79.9932 139.956 79.9932H134.814C133.971 79.9932 133.288 79.3116 133.288 78.4695C133.288 77.6275 133.971 76.9458 134.814 76.9458H139.956C140.8 76.9458 141.483 77.6275 141.483 78.4695Z" fill="white"/>
<defs>
<linearGradient id="paint0_linear" x1="28.0022" y1="109.614" x2="34.9404" y2="158.537" gradientUnits="userSpaceOnUse">
<stop stop-color="#707175"/>
<stop offset="1" stop-color="white" stop-opacity="0"/>
</linearGradient>
<linearGradient id="paint1_linear" x1="140.191" y1="99.0863" x2="148.196" y2="171.266" gradientUnits="userSpaceOnUse">
<stop stop-color="#707175"/>
<stop offset="1" stop-color="white" stop-opacity="0"/>
</linearGradient>
</defs>
</svg>
