<svg width="151" height="158" viewBox="0 0 151 158" fill="none" xmlns="http://www.w3.org/2000/svg">
<path d="M78.1363 156.509C115.193 156.438 145.176 126.34 145.105 89.2827C145.034 52.2258 114.936 22.2429 77.8787 22.3141C40.8218 22.3852 10.8389 52.4834 10.9101 89.5403C10.9812 126.597 41.0794 156.58 78.1363 156.509Z" fill="#88DDFF"/>
<path fill-rule="evenodd" clip-rule="evenodd" d="M77.8807 23.2306C41.3299 23.3008 11.7566 52.9879 11.8267 89.5387C11.8969 126.089 41.5841 155.663 78.1348 155.593C114.686 155.522 144.259 125.835 144.189 89.2846C144.119 52.7338 114.431 23.1605 77.8807 23.2306ZM9.99386 89.5422C9.92174 51.9792 40.3141 21.4699 77.8772 21.3977C115.44 21.3256 145.95 51.718 146.022 89.2811C146.094 126.844 115.701 157.353 78.1383 157.426C40.5753 157.498 10.066 127.105 9.99386 89.5422Z" fill="#323854"/>
<path d="M79.0388 156.507C112.743 156.442 140.009 127.457 139.941 91.7667C139.872 56.0763 112.494 27.1961 78.7907 27.2608C45.0869 27.3255 17.8202 56.3107 17.8887 92.001C17.9572 127.691 45.3351 156.572 79.0388 156.507Z" fill="url(#paint0_linear)"/>
<path d="M50 28.5039C46.8687 30.0477 43.8589 31.8609 41 33.926C42.0457 34.0575 43.0476 34.3301 44.0321 34.5039C45.8848 32.3528 47.8793 30.3476 50 28.5039Z" fill="#36BBF9"/>
<path d="M122.656 131.258C122.734 128.704 123.246 123.895 122.935 121.502C116.185 126.635 108.42 130.253 100.163 132.111C91.9065 133.97 83.3495 134.026 75.0691 132.276C74.4196 134.498 73.555 136.708 72.2971 137.665C69.7172 139.625 65.2572 139.4 64.7952 142.235C64.3331 145.07 68.3357 152.622 68.3403 154.509C68.3448 156.396 59.4111 150.749 57.7598 146.027C56.4287 142.226 56.4515 130.149 55.898 124.484C42.9282 116.304 33.6125 103.386 29.9065 88.4431C28.8499 88.4431 27.9213 88.2222 27.3678 87.5227C25.721 85.401 24.0605 76.6658 23.5894 74.5395C23.1182 72.4133 22.4046 69.8176 21.2336 70.2916C20.0625 70.7656 19.1294 73.84 18.1871 73.6053C17.4552 73.4212 15.726 69.2423 14.8798 66.5039C9.75331 80.992 9.70583 96.8083 14.7452 111.327C19.7847 125.846 29.6079 138.195 42.5841 146.322C55.5604 154.45 70.9092 157.868 86.0825 156.01C101.256 154.151 115.341 147.127 126 136.105C124.225 134.922 122.592 133.302 122.656 131.258Z" fill="#36BBF9"/>
<path d="M112.508 51.1582C110.855 52.2043 106.06 49.7724 103.918 50.3521C101.777 50.9317 99.6718 53.9751 101.09 55.8138C102.509 57.6525 105.061 56.8373 103.513 57.4079C102.606 57.7312 101.779 58.2386 101.084 58.8971C100.39 59.5557 99.8442 60.3506 99.483 61.2302C98.9994 62.3941 98.3085 67.6746 100.657 68.3675C103.006 69.0604 111.596 67.6973 113.959 65.8722C116.322 64.0471 119.864 64.5135 122.466 65.4193C125.068 66.3251 126.496 70.564 133.345 69.2552C135.924 68.7615 139.457 66.5379 141 65.22C136.776 53.486 129.154 44.2654 120.605 37.5039C120.605 37.513 114.162 50.1166 112.508 51.1582Z" fill="#36BBF9"/>
<path fill-rule="evenodd" clip-rule="evenodd" d="M77.8807 23.2306C41.3299 23.3008 11.7566 52.9879 11.8267 89.5387C11.8969 126.089 41.5841 155.663 78.1348 155.593C114.686 155.522 144.259 125.835 144.189 89.2846C144.119 52.7338 114.431 23.1605 77.8807 23.2306ZM9.99386 89.5422C9.92174 51.9792 40.3141 21.4699 77.8772 21.3977C115.44 21.3256 145.95 51.718 146.022 89.2811C146.094 126.844 115.701 157.353 78.1383 157.426C40.5753 157.498 10.066 127.105 9.99386 89.5422Z" fill="#2A2C57"/>
<path d="M101.18 46.5653C101.892 48.2027 104.139 47.3621 105.325 46.5653C106.511 45.7685 108.486 43.7501 107.891 42.7432C107.296 41.7362 104.725 41.1408 103.539 41.7493C102.353 42.3579 100.396 44.7659 101.18 46.5653Z" fill="#36BBF9"/>
<path d="M103.127 44.8775C103.636 45.9692 105.239 45.4108 106.089 44.8775C106.939 44.3443 108.347 42.9965 107.922 42.329C107.497 41.6614 105.659 41.2625 104.822 41.6656C103.986 42.0687 102.569 43.6725 103.127 44.8775Z" fill="white"/>
<path fill-rule="evenodd" clip-rule="evenodd" d="M107.873 41.0144C108.197 41.1831 108.558 41.4358 108.787 41.8041C109.099 42.3047 109.012 42.837 108.879 43.1983C108.744 43.5681 108.509 43.9169 108.269 44.2115C107.787 44.8042 107.13 45.3641 106.614 45.695C106.104 46.0221 105.337 46.3819 104.563 46.4786C104.17 46.5278 103.712 46.517 103.272 46.3398C102.807 46.1522 102.434 45.8052 102.21 45.3139L102.209 45.3117L102.209 45.3117C101.739 44.2744 102.145 43.2012 102.603 42.4772C103.071 41.7374 103.768 41.0751 104.386 40.7709C105.101 40.4186 106.049 40.4657 106.764 40.6229C107.148 40.7073 107.534 40.8377 107.873 41.0144ZM106.359 42.3532C105.799 42.2299 105.364 42.2792 105.215 42.3528C104.968 42.4744 104.5 42.8722 104.164 43.4043C103.818 43.9514 103.779 44.3614 103.885 44.5974C103.923 44.6805 103.954 44.693 103.975 44.7015L103.976 44.7018C104.023 44.7208 104.132 44.7436 104.329 44.719C104.735 44.6682 105.236 44.4513 105.604 44.2152C105.967 43.9827 106.477 43.5491 106.832 43.1127C106.987 42.9218 107.085 42.765 107.135 42.653C107.103 42.6313 107.061 42.6056 107.006 42.5771C106.838 42.4897 106.613 42.4091 106.359 42.3532ZM107.171 42.5482C107.171 42.5481 107.171 42.5499 107.17 42.5537C107.17 42.5501 107.17 42.5482 107.171 42.5482Z" fill="#2A2C57"/>
<path d="M16.0554 70.704C17.2289 70.2471 19.1449 74.5968 19.6217 76.7077C20.0984 78.8185 21.7578 87.4905 23.408 89.5968C25.0582 91.7031 29.9951 89.5968 31.8791 89.5968C33.7631 89.5968 38.9567 95.0385 40.8315 96.4275C42.9951 98.0266 43.6552 97.7982 41.2899 101.855C38.9246 105.913 39.9147 110.687 41.079 114.905C42.2433 119.122 50.2469 121.452 51.4479 123.563C52.6489 125.674 52.1905 143.022 53.8453 147.71C55.5001 152.398 60.4415 146.737 60.8999 143.922C61.3583 141.108 65.8368 141.332 68.4176 139.385C70.9983 137.439 71.9288 130.302 72.7356 128.42C73.5424 126.537 76.4028 127.711 78.273 125.829C80.1432 123.947 82.724 115.736 83.8883 109.17C85.0526 102.605 76.8199 103.322 72.8869 101.769C68.9539 100.215 69.2793 100.521 66.2127 96.3498C63.146 92.1783 57.5032 94.9151 56.096 95.3857C54.6887 95.8563 51.3837 92.3473 49.9718 92.4707C48.56 92.5941 47.6019 94.5222 45.1037 93.9054C43.7285 93.5673 41.9683 90.7071 40.3227 89.7933C38.677 88.8795 39.8414 83.9312 37.9574 82.2955C36.0734 80.6598 30.9027 84.6531 29.2479 83.0174C27.5931 81.3817 33.213 76.7122 36.5043 75.7664C39.7955 74.8207 48.9817 81.6239 51.1774 77.9047C52.0575 76.397 53.4419 72.5407 55.633 69.283C57.5445 66.4457 60.2765 64.1429 61.1337 63.1606C63.0131 61.0451 70.7599 65.2577 76.3478 58.0753C77.7963 56.2157 70.5995 50.1161 67.0699 48.7134C63.5403 47.3107 56.018 52.2498 53.9049 52.492C51.7917 52.7341 53.9324 50.1663 55.578 48.1697C56.1418 47.4843 57.4528 44.8206 61.1016 44.4231C68.1288 43.6555 76.5632 45.6613 76.3844 38.986C76.3202 36.6147 66.8132 35.8242 64.2233 35.5227C61.6333 35.2211 54.3495 38.657 51.5258 38.1956C48.7021 37.7341 45.1725 36.1486 42.1104 36.368C32.6446 36.9756 14.8819 71.1746 16.0554 70.704Z" fill="#36BBF9"/>
<path d="M18.3227 73.7745C19.2609 74.0076 20.1946 70.9552 21.3708 70.4846C22.547 70.0139 23.2518 72.5911 23.7278 74.7021C24.2037 76.8132 25.8605 85.4859 27.5081 87.5924C29.1557 89.6989 34.0848 87.5924 35.9659 87.5924C37.8469 87.5924 43.0323 93.0346 44.9041 94.4237C47.0643 96.023 47.7234 95.7945 45.3618 99.8521C43.0002 103.91 43.9888 108.685 45.1513 112.902C46.3138 117.12 54.3047 119.45 55.5038 121.561C56.7029 123.672 56.2452 141.022 57.8974 145.711C59.5496 150.399 68.4879 156.01 68.4833 154.132C68.4787 152.254 64.4741 144.76 64.9363 141.945C65.3986 139.131 69.8654 139.355 72.4421 137.408C75.0188 135.461 75.9479 128.324 76.7534 126.441C77.5589 124.559 80.4147 125.733 82.282 123.851C84.1493 121.968 86.726 113.757 87.8885 107.191C89.051 100.624 80.8312 101.342 76.9044 99.7882C72.9776 98.2346 73.3025 98.5407 70.2407 94.3688C67.1789 90.197 61.545 92.9341 60.14 93.4047C58.7349 93.8754 55.4351 90.3661 54.0255 90.4894C52.6159 90.6128 49.3344 94.3597 47.9248 94.41C46.5151 94.4602 46.0346 88.7393 44.387 87.8026C42.7394 86.8659 43.9064 81.9401 42.0254 80.3042C40.1444 78.6684 34.9819 82.662 33.3297 81.0262C31.6775 79.3904 36.84 74.9215 40.1261 73.9802C43.4121 73.0389 47.1788 77.0143 48.8218 76.073C50.4648 75.1317 51.3985 72.3169 52.5655 69.2645C53.7326 66.2122 59.8333 61.4966 61.7189 59.3992C63.6045 57.3019 66.4192 59.6231 68.5336 60.5598C70.6481 61.4966 75.5772 58.6727 76.6161 56.557C77.655 54.4414 74.6161 48.1174 71.092 46.7191C67.568 45.3209 60.0576 50.2558 57.9477 50.498C55.8379 50.7402 55.5862 44.8731 57.2292 42.8763C58.8722 40.8794 68.0302 42.2731 72.0211 41.2084C76.012 40.1438 76.9502 40.1438 76.5978 37.7997C76.2454 35.4555 70.8494 33.8243 68.2636 33.5227C65.6778 33.2211 58.4054 36.6573 55.5862 36.1958C52.7669 35.7343 49.2383 34.0984 46.1856 34.368C44.4419 34.5142 42.6936 33.8837 40.8217 33.6643C28.8943 41.6551 19.8448 53.2508 15 66.7514C15.8558 69.4428 17.5904 73.5918 18.3227 73.7745Z" fill="white"/>
<path d="M61.0375 146.148C60.8187 147.422 61.5913 149.686 62.4756 151.897C65.2401 153.941 68.0046 155.148 68 154.144C68 152.543 64.8399 146.732 64.407 143.504C62.7176 144.07 61.2841 144.685 61.0375 146.148Z" fill="#FFD371"/>
<path fill-rule="evenodd" clip-rule="evenodd" d="M65.3367 142.641C65.5541 142.787 65.6992 143.032 65.7314 143.309C65.9119 144.853 66.6799 147.09 67.4587 149.266C67.5167 149.428 67.5746 149.59 67.6322 149.75C67.9515 150.64 68.2596 151.498 68.4979 152.238C68.639 152.677 68.7611 153.09 68.8487 153.456C68.9329 153.809 68.9998 154.176 69 154.504M61 146.032C61.156 144.973 61.6986 144.233 62.3814 143.702C63.0337 143.194 63.8456 142.851 64.6122 142.556C64.853 142.464 65.1193 142.495 65.3367 142.641M63.3636 145.201C62.9566 145.518 62.7368 145.86 62.6686 146.325L62.6682 146.327C62.5995 146.786 62.6819 147.546 62.9289 148.573C63.1511 149.497 63.4804 150.537 63.8454 151.596C65.0003 152.554 66.117 153.294 66.9295 153.682C67.0215 153.726 67.1057 153.763 67.1822 153.795C67.113 153.525 67.0189 153.208 66.9032 152.849C66.6757 152.142 66.3807 151.32 66.0608 150.428C66.0027 150.266 65.9437 150.102 65.8842 149.935C65.2783 148.242 64.6021 146.315 64.2496 144.68C63.903 144.843 63.6073 145.011 63.3636 145.201ZM67.7483 153.959C67.7484 153.959 67.7462 153.959 67.7415 153.959C67.7458 153.959 67.7482 153.959 67.7483 153.959Z" fill="#323854"/>
<path d="M67.33 50.7154C63.8374 49.3161 56.3941 54.2548 54.3031 54.4972C52.212 54.7395 51.9626 48.868 53.5909 46.8696C53.9765 46.4123 54.7884 46.1105 55.8588 45.9551C55.919 44.8852 56.2688 43.8524 56.8703 42.969C58.4942 40.9706 67.5749 42.3654 71.5302 41.2999L72.4736 41.0484C71.2535 39.1095 66.7948 37.7879 64.5178 37.5227C61.955 37.2209 54.7476 40.6597 51.9535 40.1978C49.1594 39.736 45.6623 38.0989 42.6369 38.3687C40.9087 38.515 39.176 37.884 37.3209 37.6645C32.8525 40.6796 28.7617 44.2279 25.1376 48.2324C20.7983 53.845 17.376 60.1202 15 66.821C15.8391 69.5419 17.5582 73.6803 18.2794 73.877C19.2093 74.1102 20.1346 71.0555 21.3003 70.5845C22.466 70.1135 23.1645 72.6926 23.6362 74.8053C24.108 76.9179 25.7499 85.5972 27.3828 87.7053C29.0157 89.8134 33.9008 87.7053 35.7651 87.7053C36.6722 87.7053 38.3732 89.0086 40.0832 90.5039C39.6296 88.6473 39.9335 85.5606 38.5319 84.3305C36.6677 82.6935 31.5513 86.6901 29.9138 85.053C28.8525 83.9876 30.6396 81.7331 32.912 80.0229C33.3293 78.0108 37.2528 74.8647 39.9244 74.0782C42.7639 73.2551 45.9616 76.1725 47.8123 76.3097C48.0624 76.3392 48.3155 76.2913 48.538 76.1726C50.1664 75.2305 51.0917 72.4137 52.2483 69.359C52.3553 69.0919 52.4827 68.8335 52.6293 68.5862C54.3666 65.5589 59.6009 61.4296 61.3064 59.4862C63.1661 57.3689 65.9647 59.7102 68.0603 60.6477C69.226 61.169 71.2354 60.5242 72.9998 59.4862C73.027 56.8248 70.3554 51.9272 67.33 50.7154Z" fill="#0EC69A"/>
<path d="M73.8424 103.902C69.9036 102.337 70.2211 102.641 67.1428 98.4265C64.0645 94.2117 58.4002 96.9769 56.9875 97.4524C55.5749 97.9279 52.2573 94.3825 50.8401 94.5071C49.9198 94.5902 47.7847 94.7933 46.3215 95.9336C46.119 96.5522 46.1466 98.7727 45.4426 100.01C43.0867 104.128 44.0622 108.934 45.231 113.195C46.3997 117.456 54.4338 119.81 55.6393 121.943C56.8449 124.076 56.3848 141.604 58.0459 146.341C58.7913 148.464 61.0046 150.773 63.2224 152.504C62.3482 150.196 61.5843 147.814 61.8006 146.502C62.0537 144.97 63.4709 144.333 65.132 143.76C65.0757 143.361 65.0757 142.955 65.132 142.555C65.5277 140.136 68.8131 139.938 71.4083 138.719C71.8578 138.515 72.285 138.264 72.6829 137.971C74.5511 136.554 75.5588 132.431 76.2766 129.505C76.4673 128.62 76.7148 127.749 77.0174 126.896C77.6202 125.484 79.3595 125.775 80.9884 125.234C82.4977 121.735 84.0575 116.145 84.8904 111.385C86.0453 104.742 77.7812 105.485 73.8424 103.902Z" fill="#0EC69A"/>
<path d="M113.04 48.1057C111.388 49.1559 108.553 47.5374 106.427 48.1057C104.301 48.674 102.184 51.7427 103.601 53.5884C105.019 55.4342 109.037 55.6797 109.041 57.3118C109.046 58.9439 103.638 59.6531 103.155 60.8215C102.672 61.9899 100.817 65.4904 103.155 66.186C105.493 66.8816 112.115 64.6949 114.472 62.8582C116.828 61.0215 120.372 61.4943 122.972 62.4036C125.572 63.3128 126.999 67.5681 133.842 66.2542C136.136 65.795 138.263 64.7351 140 63.1855C135.637 53.1581 128.851 44.3402 120.238 37.5039C120.238 37.5039 114.697 47.0646 113.04 48.1057Z" fill="white"/>
<path d="M140.372 73.8626C138.06 73.6657 132.245 73.1575 129.243 72.7912C125.445 72.3333 122.359 74.4487 120.361 74.9249C118.363 75.4011 117.123 73.0521 112.622 71.8845C108.121 70.7169 105.165 69.4898 101.876 71.8479C98.5873 74.206 91.9769 77.4982 92.0001 89.3118C92.0001 94.2478 97.9489 96.116 103.412 97.5538C108.875 98.9915 111.244 96.551 114.334 97.5538C117.424 98.5565 116.337 108.172 115.393 111.936C114.449 115.7 119.602 122.174 120.454 123.58C121.305 124.986 120.569 131.337 120.454 134.391C120.389 136.424 143.037 110.581 143 92.3705C143.001 86.1101 142.116 79.8803 140.372 73.8626Z" fill="#36BBF9"/>
<path d="M142.422 70.8477C140.154 70.6499 134.454 70.1393 131.511 69.7713C127.788 69.3113 124.763 71.4365 122.804 71.9149C120.845 72.3933 119.629 70.0335 115.217 68.8605C110.804 67.6875 105.444 69.5873 102.224 71.9563C99.0044 74.3253 94.9909 81.414 95 86.3728C95.0091 91.3316 100.832 93.2084 106.188 94.6528C111.543 96.0972 113.865 93.6454 116.895 94.6528C119.924 95.6602 119.48 107.823 118.555 111.599C117.629 115.376 122.06 119.383 122.894 120.799C123.729 122.216 123.008 128.592 122.894 131.66C122.831 133.702 124.45 135.34 126.223 136.504C134.38 127.978 140.172 117.418 143.014 105.892C145.855 94.3658 145.645 82.2831 142.404 70.8661L142.422 70.8477Z" fill="white"/>
<path d="M123.708 124.324C123.577 124.038 123.433 123.764 123.277 123.504C123.277 126.097 123.047 129.563 123 131.612C122.997 132.674 123.265 133.701 123.754 134.504C123.881 131.142 124.262 125.661 123.708 124.324Z" fill="#FFD371"/>
<path fill-rule="evenodd" clip-rule="evenodd" d="M122.917 122.563C123.255 122.424 123.633 122.535 123.866 122.84C124.091 123.133 124.298 123.443 124.486 123.766C124.493 123.778 124.499 123.79 124.506 123.802C124.795 124.35 124.903 125.153 124.955 125.91C125.01 126.72 125.009 127.682 124.982 128.681C124.947 129.983 124.863 131.415 124.787 132.712C124.748 133.391 124.71 134.033 124.683 134.599C124.664 134.988 124.436 135.326 124.105 135.452C123.774 135.579 123.407 135.468 123.178 135.173C122.414 134.189 121.996 132.93 122 131.629C122 131.62 122 131.611 122 131.602C122.024 130.79 122.083 129.762 122.146 128.672C122.165 128.349 122.184 128.022 122.202 127.693C122.284 126.235 122.356 124.734 122.356 123.46C122.356 123.059 122.58 122.701 122.917 122.563Z" fill="#323854"/>
<path d="M114.021 62.7277C116.377 60.8441 119.921 61.315 122.521 62.2568C125.121 63.1986 126.547 67.6062 133.39 66.2453C135.448 65.8236 137.373 64.8941 139 63.5376C135.03 55.3472 129.514 48.0427 122.769 42.0459C122.528 41.8334 122.245 41.6773 121.939 41.5886C121.632 41.4998 121.311 41.4806 120.997 41.5321C120.682 41.5837 120.383 41.7049 120.119 41.8871C119.856 42.0694 119.634 42.3084 119.47 42.5875C117.583 43.6517 115.232 50.1924 113.58 51.2755C111.928 52.3586 109.093 50.6869 106.967 51.2755C106.336 51.498 105.755 51.8471 105.258 52.3024C104.761 52.7576 104.358 53.3098 104.072 53.9266C105.826 55.1274 108.587 55.5277 108.591 56.931C108.591 57.6232 107.671 58.1506 106.594 58.6215C108.085 59.2854 109.585 59.7752 109.59 60.8111C109.59 62.5017 104.187 63.2363 103.704 64.4465C103.548 64.8326 103.244 65.473 103 66.1841C105.536 66.7256 111.748 64.5595 114.021 62.7277Z" fill="#0EC69A"/>
<path d="M129 69.6059C130.619 70.542 132.331 70.7498 134 70.2126C133.002 70.0137 132.078 69.8247 131.313 69.6457C130.545 69.471 129.769 69.4577 129 69.6059Z" fill="#FFD371"/>
<path d="M105 69.5039C107.06 69.3752 109.082 69.0382 111 68.5039C108.932 68.6013 106.904 68.9394 105 69.5039Z" fill="#FFD371"/>
<path d="M143.353 74.8358C141.086 74.6386 135.405 74.1342 132.471 73.7673C128.749 73.3088 125.725 75.4274 123.766 75.9043C121.807 76.3812 120.592 74.0287 116.181 72.8594C111.769 71.69 106.41 73.5839 103.191 75.9455C100.099 78.2109 96.2856 84.8234 96 89.7025C97.8952 92.376 102.166 93.6967 106.179 94.7789C111.533 96.228 113.855 93.7746 116.884 94.7789C118.035 95.1549 118.697 97.1497 118.996 99.6855C119.504 103.813 119.114 109.343 118.543 111.677C118.176 113.172 118.661 114.704 119.423 116.098C120.579 118.207 122.383 120 122.882 120.848C123.177 121.348 123.276 122.467 123.276 123.834C123.488 124.085 123.684 124.35 123.861 124.627C124.614 125.902 124.102 131.203 123.925 134.472C124.584 135.267 125.361 135.952 126.228 136.504C133.933 128.48 139.535 118.636 142.526 107.867C145.516 97.0981 145.801 85.7442 143.353 74.8358Z" fill="#0EC69A"/>
<path d="M34 38.5039C35.2899 37.4572 36.6233 36.4572 38 35.5039C36.6382 36.4544 35.3049 37.4544 34 38.5039Z" fill="#36BBF9"/>
<path d="M39 35.5039C39.33 34.7896 39.6625 34.1539 40 33.5039C39.665 34.1539 39.33 34.8182 39 35.5039Z" fill="#36BBF9"/>
<path d="M19 56.5039C19.9376 55.142 20.9376 53.8086 22 52.5039C20.9376 53.8032 19.9376 55.1365 19 56.5039Z" fill="#36BBF9"/>
<path d="M57.8451 145.764C59.4817 150.424 68.3357 156.001 68.3312 154.134C68.3267 152.268 64.3598 144.819 64.8177 142.021C65.2756 139.224 69.7003 139.446 72.2527 137.511C73.4994 136.567 74.3562 134.391 75 132.193C68.2627 130.776 61.8297 128.172 56 124.504C56.5712 130.095 56.5259 142.012 57.8451 145.764Z" fill="#21AA8F"/>
<path d="M18.2924 73.7371C19.2312 73.9707 20.1653 70.9111 21.3422 70.4393C22.519 69.9675 23.2242 72.5508 23.7005 74.6669C24.1767 76.783 25.8344 85.4763 27.4829 87.5879C28.0369 88.2978 28.9665 88.5039 30.0243 88.5039C27.6662 78.9822 27.7087 69.0238 30.148 59.5225C32.5873 50.0212 37.347 41.2745 44 34.0673C42.9697 33.8932 41.921 33.6093 40.8266 33.5039L40.5336 33.7009C39.9154 34.1222 39.3018 34.5482 38.7019 34.9833L38.5645 35.0841C37.1633 36.1131 35.8033 37.1926 34.4844 38.3224L34.457 38.3453C33.8067 38.9071 33.1672 39.4796 32.5383 40.0629L32.4238 40.1682C31.16 41.3499 29.9388 42.5713 28.7605 43.8324L28.7147 43.8828C28.1346 44.5179 27.5653 45.1638 27.0066 45.8203L26.9242 45.9165C25.8069 47.2386 24.7384 48.6051 23.7188 50.0158L23.6684 50.0845C23.1616 50.7868 22.6701 51.4998 22.1939 52.2235L22.1481 52.2968C21.1865 53.7533 20.2813 55.248 19.4327 56.7809L19.3869 56.8633C18.9656 57.6298 18.558 58.4054 18.1642 59.1901V59.2268C17.3766 60.8024 16.65 62.4131 15.9845 64.059L15.9433 64.1597C15.6136 64.9811 15.2992 65.8101 15 66.6468C15.8243 69.395 17.5598 73.5539 18.2924 73.7371Z" fill="#21AA8F"/>
<path d="M24 50.5039C24.9486 49.1303 25.9486 47.797 27 46.5039C25.9486 47.797 24.9486 49.1303 24 50.5039Z" fill="#FFD371"/>
<path d="M120 37.5039C122.108 39.0583 124.112 40.728 126 42.5039C124.112 40.7279 122.108 39.0582 120 37.5039Z" fill="#36BBF9"/>
<path d="M139 61.5039C139.347 61.8355 139.676 62.1697 140 62.5039C139.682 62.1671 139.349 61.8338 139 61.5039Z" fill="#36BBF9"/>
<path d="M144.987 87.5039C141.939 101.212 134.25 113.38 123.277 121.861C123.585 124.238 123.079 129.083 123.002 131.645C122.939 133.693 124.551 135.336 126.317 136.504C126.676 136.125 127.031 135.742 127.383 135.355C127.733 134.97 128.078 134.581 128.418 134.187C128.755 133.797 129.089 133.401 129.421 133.001V132.978C129.749 132.581 130.073 132.18 130.392 131.774L130.419 131.737C130.72 131.337 131.03 130.932 131.35 130.523L131.39 130.468C131.691 130.065 131.992 129.659 132.294 129.249L132.343 129.18C132.644 128.774 132.929 128.365 133.197 127.953L133.256 127.865C133.533 127.459 133.804 127.048 134.069 126.633L134.137 126.527C134.399 126.121 134.656 125.71 134.909 125.295L134.995 125.156C135.242 124.75 135.486 124.341 135.727 123.929L135.817 123.772C136.052 123.366 136.282 122.958 136.508 122.549L136.612 122.36C136.832 121.956 137.049 121.552 137.262 121.146L137.375 120.929C137.583 120.529 137.786 120.127 137.985 119.724L138.107 119.475C138.3 119.078 138.49 118.68 138.676 118.28L138.807 117.994C138.985 117.603 139.16 117.211 139.331 116.817L139.467 116.494C139.632 116.11 139.795 115.722 139.955 115.331L140.095 114.976C140.248 114.593 140.397 114.21 140.546 113.827L140.691 113.434C140.831 113.061 140.967 112.682 141.102 112.304L141.251 111.87C141.378 111.501 141.504 111.132 141.626 110.763C141.676 110.606 141.725 110.449 141.775 110.301C141.888 109.941 142.005 109.577 142.114 109.217C142.164 109.046 142.213 108.875 142.263 108.704C142.367 108.354 142.466 107.998 142.566 107.643C142.615 107.458 142.66 107.274 142.71 107.089C142.8 106.743 142.891 106.397 142.977 106.051C143.026 105.852 143.072 105.654 143.117 105.456C143.198 105.119 143.279 104.782 143.352 104.445C143.397 104.233 143.442 104.016 143.487 103.803C143.555 103.476 143.627 103.148 143.69 102.82C143.736 102.59 143.776 102.359 143.821 102.128C143.88 101.814 143.939 101.501 143.993 101.205C144.047 100.91 144.074 100.711 144.11 100.462C144.147 100.213 144.21 99.8577 144.255 99.5393C144.3 99.2209 144.327 99.0132 144.363 98.7456C144.4 98.4779 144.445 98.1641 144.481 97.8734C144.517 97.5826 144.544 97.3011 144.576 97.0196C144.607 96.7381 144.639 96.4705 144.666 96.1936C144.693 95.9167 144.72 95.5706 144.747 95.2706C144.774 94.9707 144.793 94.7676 144.811 94.5138C144.833 94.1723 144.851 93.8262 144.874 93.4847C144.874 93.2586 144.901 93.0232 144.915 92.8063C144.915 92.4048 144.946 92.0034 144.955 91.5972C144.955 91.4265 144.955 91.2557 144.955 91.085C144.955 90.5097 144.955 89.9328 144.955 89.3544C145.018 88.6807 145 88.0715 144.987 87.5039Z" fill="#21AA8F"/>
<path d="M126 42.5039C127.399 44.1031 128.732 45.7698 130 47.5039C128.735 45.7698 127.402 44.1031 126 42.5039Z" fill="#36BBF9"/>
<path fill-rule="evenodd" clip-rule="evenodd" d="M65.3974 32.9057C66.4851 32.6339 67.5752 32.4315 68.4082 32.5286C69.7899 32.6896 71.8766 33.1959 73.6808 33.9716C74.5831 34.3596 75.4582 34.8331 76.1464 35.3955C76.8211 35.9468 77.4249 36.6734 77.562 37.5847C77.6554 38.2052 77.6886 38.8069 77.5305 39.3496C77.3555 39.9507 76.9795 40.3753 76.4766 40.6859C76.0158 40.9705 75.4282 41.1717 74.7771 41.36C74.3565 41.4817 73.8598 41.611 73.3007 41.7567C72.9875 41.8382 72.6546 41.9249 72.3045 42.0183C71.1972 42.3134 69.7845 42.4276 68.3273 42.4783C67.3275 42.513 66.2596 42.5185 65.2128 42.5239C64.7288 42.5264 64.2493 42.5289 63.7831 42.5342C62.2829 42.5514 60.9108 42.5979 59.8227 42.7553C59.2796 42.8339 58.8411 42.9356 58.5093 43.0593C58.1689 43.1863 58.0132 43.3099 57.9512 43.3852C57.6712 43.7251 57.4203 44.306 57.2605 45.0632C57.104 45.8041 57.052 46.6327 57.1069 47.3958C57.1629 48.1735 57.3242 48.8046 57.5343 49.1944C57.6372 49.3854 57.7272 49.4724 57.7767 49.5064C57.8088 49.5284 57.8238 49.5315 57.8577 49.5276C58.0049 49.5107 58.2666 49.4409 58.6681 49.2904C59.0549 49.1454 59.5146 48.9477 60.0396 48.7119C60.3622 48.5669 60.7099 48.4072 61.0754 48.2393C61.877 47.8711 62.7643 47.4636 63.6609 47.0856C64.9723 46.5329 66.3713 46.0133 67.6889 45.7251C68.9837 45.4419 70.3361 45.3504 71.4754 45.8021C73.5412 46.621 75.3187 48.784 76.4308 50.8811C76.9981 51.9509 77.426 53.065 77.6415 54.0781C77.8482 55.0501 77.8955 56.096 77.4969 56.9072C77.1579 57.5968 76.5485 58.2664 75.8625 58.8518C75.1633 59.4484 74.3241 60.0087 73.4538 60.4649C72.5861 60.9197 71.6577 61.2867 70.7781 61.4749C69.9219 61.6581 68.9886 61.6982 68.2003 61.3492C67.7308 61.1414 67.2283 60.8701 66.7496 60.6115C66.6461 60.5556 66.5437 60.5003 66.443 60.4464C65.8529 60.1304 65.2937 59.8459 64.7589 59.6527C64.2218 59.4586 63.7774 59.3827 63.4106 59.4236C63.075 59.461 62.7498 59.6008 62.4249 59.9618C61.9176 60.5257 61.1467 61.245 60.2967 62.0242C60.1141 62.1916 59.9268 62.3626 59.7362 62.5367C59.0249 63.1864 58.266 63.8795 57.5195 64.5925C56.5732 65.4963 55.6667 66.4132 54.9299 67.2827C54.1813 68.166 53.6613 68.9391 53.4252 69.556C53.3212 69.8278 53.218 70.1006 53.1151 70.3726C52.6516 71.598 52.1945 72.8067 51.6962 73.831C51.0965 75.0637 50.3504 76.2244 49.2725 76.8414C48.4803 77.2948 47.5797 77.0833 46.9151 76.8476C46.3428 76.6446 45.703 76.3291 45.0851 76.0244C44.9465 75.956 44.8089 75.8882 44.6735 75.8223C43.8978 75.4449 43.1333 75.0995 42.382 74.8981C41.6358 74.698 40.9627 74.6572 40.3534 74.8316C38.8926 75.2497 36.9021 76.5052 35.4753 77.8778C34.7627 78.5634 34.2609 79.2123 34.026 79.7264C33.792 80.2386 33.9202 80.3459 33.9337 80.3572C33.9341 80.3576 33.9345 80.3579 33.9346 80.358C34.0196 80.442 34.2557 80.5607 34.9393 80.4519C35.5926 80.3479 36.3711 80.0838 37.2644 79.7801L37.2716 79.7777C38.1182 79.4898 39.0713 79.1658 39.9404 79.0326C40.7911 78.9022 41.8204 78.9116 42.6066 79.5948C43.2829 80.1824 43.6256 81.0092 43.8259 81.7907C44.0275 82.5777 44.1146 83.4472 44.1885 84.2144L44.1964 84.2972C44.2703 85.0654 44.3327 85.7156 44.4608 86.2377C44.6001 86.8058 44.7586 86.9608 44.825 86.9985C45.5188 87.3927 45.958 88.1819 46.2605 88.857C46.5713 89.5504 46.8372 90.3659 47.0764 91.0998L47.1057 91.1895C47.3638 91.9806 47.5874 92.6515 47.8215 93.1245C47.8988 93.2806 47.9642 93.3873 48.0145 93.457C48.0477 93.4443 48.0875 93.4275 48.1346 93.4052C48.3022 93.326 48.5081 93.2038 48.7518 93.0376C49.2421 92.7033 49.7981 92.2524 50.393 91.7667L50.4655 91.7074C51.0227 91.2524 51.6122 90.7709 52.1521 90.3934C52.4353 90.1954 52.7254 90.0113 53.0082 89.8692C53.2802 89.7325 53.6069 89.6028 53.9512 89.5727C54.3183 89.5406 54.6701 89.6292 54.9577 89.7342C55.255 89.8427 55.5563 89.996 55.8445 90.1615C56.3368 90.4441 56.8733 90.8114 57.378 91.1569C57.4579 91.2116 57.5369 91.2658 57.6149 91.3189C58.2108 91.7252 58.7494 92.0801 59.213 92.3085C59.4427 92.4217 59.6201 92.4865 59.7498 92.5154C59.8284 92.5329 59.8685 92.5325 59.8803 92.5319C59.9862 92.496 60.1334 92.4396 60.3157 92.3698C61.1662 92.0442 62.7784 91.4271 64.4959 91.2337C66.6505 90.9912 69.222 91.376 71.0234 93.8283C71.1011 93.9342 71.1765 94.0369 71.2496 94.1365C72.661 96.0588 73.232 96.8366 73.8742 97.3541C74.4624 97.8282 75.1048 98.081 76.7104 98.7129C76.8939 98.7852 77.09 98.8624 77.3001 98.9454C78.1889 99.2967 79.3503 99.529 80.6819 99.7878L80.7781 99.8065C82.0438 100.052 83.436 100.323 84.6814 100.756C85.9555 101.199 87.198 101.852 88.027 102.943C88.8833 104.069 89.2001 105.531 88.8745 107.368C88.2843 110.699 87.3367 114.441 86.298 117.595C85.7787 119.172 85.232 120.617 84.6895 121.797C84.1603 122.948 83.593 123.943 83.0038 124.536C81.8807 125.668 80.4701 125.903 79.4716 126.069C79.4253 126.077 79.3798 126.085 79.3353 126.092C78.1843 126.286 77.8326 126.43 77.6544 126.846C77.4879 127.235 77.2963 127.953 77.0484 128.945C77.0134 129.085 76.9776 129.23 76.9408 129.378C76.7269 130.239 76.4826 131.223 76.1973 132.208C75.8633 133.361 75.4635 134.55 74.9697 135.588C74.4839 136.609 73.8639 137.579 73.0433 138.199C72.295 138.764 71.4363 139.152 70.6136 139.461C70.2 139.617 69.7833 139.757 69.3863 139.888C69.3366 139.905 69.2872 139.921 69.2382 139.938C68.8908 140.053 68.5616 140.162 68.245 140.276C66.7151 140.826 66.0097 141.325 65.8723 142.161C65.7914 142.653 65.9022 143.481 66.2109 144.602C66.5095 145.685 66.9543 146.912 67.4257 148.139C67.598 148.588 67.7755 149.041 67.9496 149.485C68.2434 150.234 68.5277 150.96 68.7613 151.599C68.9493 152.114 69.1139 152.598 69.2325 153.022C69.3461 153.428 69.4384 153.85 69.4393 154.214C69.4401 154.52 69.3431 154.878 69.0464 155.153C68.771 155.409 68.4405 155.483 68.1988 155.5C67.7389 155.531 67.224 155.383 66.7663 155.205C65.8009 154.831 64.5591 154.11 63.3037 153.208C62.0397 152.301 60.7166 151.177 59.5954 149.967C58.4844 148.768 57.5201 147.429 57.0466 146.087C56.5896 144.791 56.3018 142.717 56.0938 140.403C55.8832 138.059 55.747 135.362 55.6258 132.766C55.6097 132.422 55.5939 132.079 55.5782 131.739C55.4752 129.509 55.3779 127.4 55.2472 125.679C55.1719 124.688 55.0868 123.845 54.9864 123.192C54.8786 122.492 54.7711 122.15 54.715 122.051C54.6462 121.93 54.4896 121.747 54.189 121.502C53.8972 121.264 53.5192 121.007 53.064 120.724C52.5456 120.403 51.9988 120.09 51.4114 119.754C50.9183 119.472 50.3967 119.174 49.8392 118.84C48.6758 118.144 47.4657 117.353 46.464 116.446C45.4664 115.542 44.6086 114.462 44.2525 113.172C43.0949 108.975 41.9733 103.832 44.5548 99.4004C45.1461 98.3855 45.52 97.6854 45.7309 97.1737C45.9478 96.6478 45.9316 96.4595 45.9212 96.4109L45.9209 96.4098C45.9169 96.3905 45.8996 96.3078 45.6284 96.0878C45.4918 95.977 45.3226 95.8558 45.0996 95.6992C45.0702 95.6786 45.0401 95.6574 45.0092 95.6358C44.8128 95.4981 44.5866 95.3395 44.3429 95.1593L44.3421 95.1586C43.8296 94.7787 43.1173 94.1437 42.3467 93.4462C42.1907 93.305 42.0313 93.1602 41.8692 93.0131C41.2135 92.4177 40.513 91.7817 39.8112 91.1724C38.9338 90.4106 38.0811 89.7141 37.3446 89.2123C36.9762 88.9612 36.6566 88.7725 36.3923 88.6496C36.1123 88.5194 35.9688 88.4985 35.9308 88.4985C35.5783 88.4985 35.0193 88.6035 34.2395 88.7739C34.1202 88.8 33.997 88.8272 33.8706 88.8552C33.2178 88.9998 32.4791 89.1633 31.7474 89.2784C30.8774 89.4151 29.9423 89.4968 29.0856 89.38C28.2213 89.262 27.3418 88.927 26.7308 88.1466C26.2149 87.4875 25.7611 86.4182 25.365 85.272C24.9575 84.0929 24.5729 82.7152 24.2294 81.3542C23.7239 79.3513 23.2943 77.3285 23.0116 75.9972C22.9116 75.5265 22.83 75.1423 22.7699 74.8759C22.5302 73.8133 22.251 72.7246 21.9103 71.9691C21.7675 71.6525 21.6425 71.4613 21.5529 71.3596C21.4737 71.4225 21.3518 71.5417 21.1884 71.7544C20.9762 72.0307 20.7689 72.3612 20.5391 72.7278C20.514 72.7678 20.4887 72.8082 20.463 72.849C20.2225 73.2317 19.9378 73.6796 19.6342 74.0122C19.3815 74.2889 18.8098 74.8286 18.0261 74.6341L18.0251 74.6338C17.639 74.5376 17.3718 74.2566 17.2381 74.1039C17.0701 73.9121 16.9077 73.6752 16.755 73.4254C16.4471 72.9216 16.1164 72.2622 15.793 71.5484C15.1439 70.1158 14.4822 68.3699 14.043 66.9899C13.9822 66.7988 13.986 66.593 14.0538 66.4043C18.9757 52.7006 28.1692 40.9304 40.2865 32.8195C40.4681 32.6979 40.6873 32.6451 40.9046 32.6705C41.6198 32.7542 42.3367 32.8982 42.9972 33.0308C43.2412 33.0798 43.4776 33.1273 43.7033 33.1696C44.5755 33.3331 45.3499 33.4345 46.095 33.3723C47.7965 33.2226 49.5789 33.6042 51.2101 34.0408C51.7209 34.1775 52.2122 34.3179 52.6864 34.4534C53.7883 34.7682 54.7978 35.0566 55.744 35.2113C56.2604 35.2958 57.0937 35.207 58.2062 34.956C59.2886 34.7119 60.5138 34.3447 61.7673 33.9611C61.8875 33.9244 62.0079 33.8874 62.1285 33.8505C63.2508 33.5064 64.3851 33.1587 65.3974 32.9057ZM58.6108 36.7413C57.481 36.9961 56.3435 37.1641 55.4471 37.0175C54.3895 36.8445 53.2152 36.5092 52.066 36.181C51.6155 36.0524 51.1688 35.9248 50.7346 35.8086C49.1269 35.3783 47.612 35.0759 46.2545 35.1957L46.2505 35.1961C45.2485 35.28 44.2735 35.1389 43.3644 34.9685C43.0891 34.9168 42.8233 34.8635 42.5628 34.8111C42.0404 34.7062 41.5391 34.6055 41.0231 34.5317C29.4586 42.3597 20.6624 53.6266 15.8868 66.7294C16.3032 67.9945 16.8919 69.5298 17.465 70.7946C17.7752 71.4793 18.0703 72.0614 18.3215 72.4724C18.3536 72.5249 18.384 72.5729 18.4127 72.6168C18.5539 72.4325 18.7145 72.1855 18.9083 71.8769C18.9337 71.8366 18.9596 71.7952 18.986 71.7531C19.2072 71.3998 19.4629 70.9915 19.7319 70.6413C20.0168 70.2703 20.4229 69.8172 20.9613 69.6019C21.2666 69.4799 21.5949 69.4448 21.9226 69.5176C22.2407 69.5883 22.5011 69.7478 22.7056 69.926C23.0953 70.2657 23.3747 70.7551 23.5836 71.2182C24.0101 72.1638 24.3227 73.4225 24.56 74.4739C24.6264 74.7682 24.7128 75.1752 24.8169 75.6653C25.0998 76.9973 25.5129 78.9429 26.0087 80.9074C26.3464 82.2456 26.7164 83.5667 27.0996 84.6754C27.4941 85.817 27.8672 86.6244 28.1769 87.02C28.3916 87.2943 28.7489 87.4867 29.3342 87.5665C29.9272 87.6474 30.6547 87.5972 31.4618 87.4703C32.1319 87.365 32.8051 87.2161 33.4582 87.0716C33.5886 87.0428 33.7182 87.0141 33.8468 86.986C34.5751 86.8268 35.3406 86.6681 35.9308 86.6681C36.3641 86.6681 36.7954 86.8176 37.1678 86.9908C37.5559 87.1713 37.9663 87.4193 38.3796 87.7009C39.2064 88.2643 40.1237 89.0172 41.0158 89.7918C41.7345 90.4158 42.4542 91.0692 43.1109 91.6655C43.2712 91.811 43.4278 91.9532 43.5797 92.0907C44.3701 92.8062 45.011 93.3741 45.4366 93.6897C45.6597 93.8547 45.8653 93.9988 46.0619 94.1367C46.0934 94.1588 46.1247 94.1807 46.1559 94.2026C46.2523 94.2703 46.3489 94.3384 46.4433 94.4069C46.3422 94.2529 46.2541 94.0919 46.1764 93.9349C45.8713 93.3186 45.6063 92.5081 45.361 91.7559L45.3464 91.7113C45.0952 90.9411 44.8557 90.2069 44.5855 89.6039C44.2891 88.9426 44.0489 88.664 43.917 88.5891C43.1577 88.1577 42.8432 87.3444 42.6785 86.6726C42.5177 86.0169 42.4437 85.2433 42.3755 84.5303C42.371 84.483 42.3665 84.436 42.362 84.3893C42.2862 83.6013 42.2091 82.8718 42.0482 82.2439C41.8859 81.6105 41.6679 81.2064 41.4015 80.9749C41.2451 80.8391 40.9207 80.7341 40.2191 80.8416C39.5386 80.946 38.7441 81.2108 37.8563 81.5126L37.7714 81.5415C36.9504 81.8208 36.0418 82.1299 35.2285 82.2593C34.4173 82.3885 33.3857 82.3927 32.6426 81.6577C31.8201 80.844 31.991 79.7672 32.3564 78.9673C32.7289 78.1521 33.4161 77.3161 34.2016 76.5603C35.7714 75.0501 38.0147 73.5968 39.8474 73.0722C40.8849 72.7753 41.9188 72.8786 42.8582 73.1305C43.7924 73.3809 44.6923 73.7951 45.4778 74.1772C45.6393 74.2558 45.7944 74.3321 45.9437 74.4056C46.5547 74.7064 47.0692 74.9596 47.5299 75.123C48.1392 75.3392 48.328 75.2718 48.3593 75.2539C48.9281 74.9283 49.4732 74.2083 50.0455 73.0319C50.5037 72.09 50.9236 70.9806 51.3858 69.7594C51.4916 69.4797 51.5997 69.1941 51.711 68.9033C52.0598 67.9919 52.7427 67.0285 53.5286 66.101C54.3263 65.1598 55.2859 64.1918 56.2506 63.2704C57.0135 62.5418 57.7921 61.8307 58.505 61.1795C58.6935 61.0074 58.8774 60.8394 59.0552 60.6764C59.9197 59.884 60.6219 59.2254 61.0595 58.7392C61.6796 58.05 62.4157 57.6927 63.2069 57.6046C63.9667 57.5199 64.7144 57.6899 65.3837 57.9317C66.0553 58.1744 66.7168 58.5157 67.3108 58.8337C67.4265 58.8957 67.539 58.9564 67.6487 59.0156C68.1246 59.2723 68.5474 59.5005 68.9445 59.6762C69.2158 59.7963 69.6947 59.8347 70.3934 59.6853C71.0686 59.5408 71.8378 59.2443 72.6002 58.8446C73.3601 58.4463 74.0836 57.961 74.6698 57.4609C75.2691 56.9495 75.6677 56.4711 75.8494 56.1014C75.9714 55.8533 76.0285 55.3131 75.8466 54.458C75.6735 53.6441 75.3144 52.6903 74.8089 51.7369C73.7753 49.7879 72.2639 48.0843 70.7977 47.503C70.171 47.2546 69.258 47.2557 68.0819 47.513C66.9286 47.7652 65.6513 48.2337 64.3751 48.7716C63.505 49.1384 62.6666 49.5235 61.8782 49.8857C61.5046 50.0573 61.1423 50.2238 60.7931 50.3807C60.2598 50.6203 59.7569 50.8376 59.3135 51.0038C58.8848 51.1645 58.4487 51.3022 58.0673 51.3459C57.0041 51.4679 56.2995 50.7686 55.9182 50.061C55.5377 49.3549 55.3424 48.4376 55.2768 47.5269C55.2102 46.6015 55.2717 45.6015 55.465 44.6859C55.6549 43.7866 55.99 42.8832 56.5334 42.2234C56.8831 41.7988 57.3745 41.5285 57.8668 41.3449C58.3679 41.158 58.9479 41.0324 59.5594 40.944C60.7804 40.7673 62.2618 40.7212 63.7621 40.704C64.2542 40.6984 64.7477 40.6959 65.2387 40.6934C66.2704 40.6881 67.2909 40.6828 68.2634 40.6491C69.7036 40.599 70.9383 40.4879 71.8309 40.25C72.211 40.1487 72.5568 40.0586 72.8739 39.9761C73.412 39.836 73.8672 39.7175 74.2661 39.6021C74.9052 39.4172 75.2806 39.2718 75.5108 39.1297C75.6988 39.0135 75.7416 38.9314 75.7686 38.839C75.8125 38.6881 75.8308 38.4096 75.7475 37.8564C75.7081 37.594 75.5034 37.2361 74.9837 36.8115C74.4776 36.3979 73.7724 36.0041 72.9546 35.6525C71.3185 34.9491 69.4053 34.4876 68.1953 34.3466C67.7324 34.2926 66.9396 34.4072 65.8433 34.6811C64.881 34.9217 63.7948 35.2546 62.6618 35.6018C62.5435 35.6381 62.4246 35.6745 62.3054 35.711C61.0596 36.0922 59.7707 36.4797 58.6108 36.7413ZM47.3301 95.2093C47.5034 95.4347 47.6454 95.7022 47.7152 96.0272C47.8447 96.6295 47.6852 97.2459 47.4278 97.87C47.1646 98.5083 46.7335 99.3034 46.1413 100.32C43.9889 104.015 44.849 108.435 46.0216 112.686C46.248 113.507 46.8283 114.303 47.6976 115.091C48.5629 115.875 49.6485 116.591 50.7833 117.271C51.2587 117.555 51.768 117.847 52.2681 118.134C52.9004 118.496 53.518 118.85 54.0331 119.17C54.516 119.47 54.97 119.775 55.3507 120.085C55.7228 120.389 56.0793 120.741 56.311 121.149C56.5554 121.578 56.6964 122.242 56.8 122.915C56.911 123.635 57.0002 124.533 57.0768 125.541C57.2097 127.291 57.3084 129.431 57.4112 131.658C57.4269 131.997 57.4426 132.339 57.4586 132.681C57.58 135.28 57.7147 137.94 57.9213 140.24C58.1307 142.57 58.4065 144.428 58.7774 145.479C59.1319 146.485 59.9084 147.609 60.9428 148.725C61.9669 149.83 63.1936 150.874 64.3756 151.723C65.5663 152.578 66.6668 153.203 67.4315 153.499C67.4427 153.504 67.4538 153.508 67.4648 153.512C67.3648 153.155 67.2188 152.723 67.0374 152.226C66.8097 151.603 66.5405 150.916 66.2537 150.184C66.078 149.736 65.8957 149.271 65.7123 148.794C65.2375 147.558 64.7655 146.262 64.4417 145.087C64.128 143.949 63.9108 142.782 64.0616 141.865C64.3875 139.882 66.1522 139.083 67.6222 138.554C67.9629 138.431 68.3165 138.314 68.6618 138.2C68.7104 138.184 68.7589 138.168 68.8072 138.152C69.2033 138.02 69.5897 137.89 69.9663 137.749C70.7238 137.464 71.3932 137.149 71.9362 136.739C72.4068 136.384 72.8716 135.729 73.312 134.803C73.7443 133.894 74.1121 132.813 74.4346 131.7C74.7092 130.752 74.9441 129.806 75.1583 128.943C75.1955 128.794 75.232 128.647 75.268 128.503C75.5024 127.564 75.7299 126.681 75.9671 126.127C76.5791 124.698 77.9994 124.46 78.9506 124.301C78.9772 124.296 79.0034 124.292 79.0292 124.287C80.1269 124.102 81.0037 123.95 81.7001 123.249C82.0466 122.899 82.504 122.16 83.0217 121.034C83.5263 119.936 84.0489 118.56 84.5548 117.024C85.5666 113.952 86.4928 110.294 87.0677 107.05C87.3246 105.6 87.0485 104.685 86.5648 104.048C86.0538 103.376 85.2092 102.878 84.0774 102.484C82.9577 102.095 81.6763 101.846 80.3634 101.591L80.331 101.584C79.0475 101.335 77.7032 101.074 76.6241 100.647C76.3978 100.558 76.183 100.473 75.9787 100.393C74.4788 99.8062 73.542 99.4395 72.7211 98.7778C71.8843 98.1034 71.1636 97.1202 69.9017 95.3987C69.7869 95.2421 69.6676 95.0794 69.5433 94.9102C68.2759 93.1847 66.4897 92.8512 64.7017 93.0525C63.2553 93.2153 61.9677 93.704 61.0828 94.0398C60.8405 94.1317 60.6284 94.2122 60.4515 94.2714C60.0619 94.4018 59.6734 94.3737 59.3502 94.3018C59.0239 94.2291 58.7009 94.0976 58.4004 93.9496C57.8037 93.6555 57.1632 93.228 56.5796 92.83C56.4959 92.773 56.4134 92.7165 56.332 92.6609C55.8208 92.3111 55.3531 91.9912 54.9293 91.7479C54.6868 91.6086 54.4869 91.5113 54.3274 91.4531C54.1782 91.3987 54.1134 91.3968 54.1097 91.3963C54.1034 91.3973 54.0804 91.4014 54.0382 91.4156C53.9868 91.4328 53.9191 91.4609 53.8337 91.5038C53.6607 91.5907 53.451 91.7204 53.2052 91.8923C52.723 92.2294 52.1808 92.6721 51.6009 93.1457L51.5552 93.183C50.9746 93.6571 50.3552 94.1614 49.7873 94.5486C49.5019 94.7432 49.208 94.9233 48.9198 95.0595C48.6426 95.1904 48.3057 95.3123 47.9495 95.325C47.7178 95.3333 47.5111 95.2866 47.3301 95.2093ZM18.157 72.892C18.1571 72.8911 18.1632 72.8863 18.1748 72.88C18.1627 72.8896 18.1569 72.8928 18.157 72.892ZM18.6608 72.9432C18.6688 72.9493 18.6728 72.9531 18.6728 72.9535C18.6728 72.9539 18.6689 72.9509 18.6608 72.9432Z" fill="#2A2C57"/>
<path fill-rule="evenodd" clip-rule="evenodd" d="M120.235 36.5039V37.4185L120.814 36.7055C129.579 43.6758 136.484 52.6664 140.925 62.8903C141.081 63.2498 140.989 63.6679 140.695 63.9302C138.828 65.5989 136.543 66.7402 134.077 67.2346L134.07 67.2361C130.392 67.9434 128.069 67.1521 126.326 66.0009C125.655 65.5574 125.068 65.0575 124.564 64.6285C124.446 64.528 124.333 64.4314 124.224 64.3403C123.617 63.8328 123.15 63.4948 122.671 63.3271C121.434 62.8936 119.998 62.5745 118.619 62.5724C117.241 62.5703 115.987 62.8837 115.018 63.6402C113.703 64.6672 111.322 65.7192 109.032 66.4244C107.873 66.7816 106.697 67.0621 105.644 67.2074C104.622 67.3485 103.602 67.3793 102.817 67.1454C101.947 66.8859 101.391 66.3178 101.147 65.5813C100.925 64.9119 100.987 64.1839 101.117 63.5648C101.324 62.5701 101.793 61.5138 102.071 60.8873C102.136 60.7423 102.19 60.6204 102.228 60.5276C102.389 60.1379 102.701 59.8734 102.947 59.7028C103.21 59.5199 103.522 59.362 103.832 59.2233C104.298 59.0154 104.859 58.8094 105.397 58.6118C105.567 58.5496 105.734 58.4882 105.895 58.4277C106.608 58.1611 107.223 57.9083 107.654 57.6444C107.936 57.4714 108.032 57.36 108.062 57.318C108.058 57.3122 108.054 57.3051 108.048 57.2965C108.017 57.2507 107.947 57.1738 107.802 57.0711C107.496 56.8555 107.041 56.6485 106.433 56.3929C106.359 56.3616 106.283 56.3297 106.205 56.2972C105.684 56.0797 105.09 55.832 104.545 55.5397C103.917 55.2034 103.267 54.765 102.796 54.1506C101.761 52.8012 102.108 51.1289 102.814 49.9049C103.526 48.6703 104.77 47.5634 106.128 47.1999C106.813 47.0165 107.515 47.019 108.161 47.0797C108.69 47.1294 109.234 47.2248 109.726 47.3113C109.828 47.3292 109.928 47.3467 110.025 47.3634C110.619 47.4653 111.122 47.5375 111.563 47.5335C111.996 47.5295 112.292 47.4513 112.509 47.3136L112.513 47.3111L112.513 47.3111C112.593 47.2604 112.785 47.0899 113.092 46.7322C113.38 46.3964 113.717 45.9577 114.087 45.4438C114.826 44.4173 115.666 43.1351 116.462 41.8737C117.256 40.6145 117.999 39.3865 118.544 38.4726C118.817 38.0158 119.039 37.6381 119.194 37.3748C119.271 37.2431 119.331 37.1401 119.372 37.0702L119.418 36.9907L119.429 36.9717C119.59 36.6864 119.897 36.5039 120.235 36.5039ZM120.49 38.8056C120.385 38.9843 120.266 39.1845 120.136 39.4025C119.586 40.3244 118.834 41.5662 118.03 42.8422C117.226 44.1159 116.364 45.4344 115.592 46.5056C115.207 47.0405 114.836 47.525 114.501 47.9155C114.186 48.2834 113.841 48.6418 113.507 48.8531C112.894 49.2426 112.213 49.3568 111.58 49.3626C110.954 49.3683 110.302 49.2673 109.709 49.1657C109.597 49.1464 109.487 49.1271 109.378 49.1081C108.888 49.0223 108.434 48.9428 107.986 48.9007C107.446 48.8499 106.993 48.8633 106.61 48.9656C105.833 49.1738 104.947 49.896 104.419 50.8119C103.884 51.7384 103.879 52.5378 104.268 53.0451C104.509 53.359 104.896 53.6477 105.425 53.9311C105.885 54.1778 106.388 54.3878 106.916 54.6086C106.995 54.6419 107.075 54.6754 107.156 54.7093C107.735 54.9527 108.378 55.2313 108.875 55.5817C109.376 55.9355 109.915 56.4971 109.918 57.3406C109.92 58.2805 109.162 58.8716 108.627 59.1997C108.025 59.5681 107.254 59.8749 106.549 60.1387C106.357 60.2105 106.17 60.2792 105.989 60.3458C105.468 60.5372 104.995 60.7109 104.593 60.8906C104.326 61.0097 104.134 61.1131 104.008 61.2006C103.961 61.2332 103.933 61.2568 103.918 61.2703C103.86 61.4092 103.793 61.5615 103.721 61.7244C103.44 62.3598 103.089 63.155 102.927 63.935C102.823 64.4306 102.829 64.7875 102.903 65.0118C102.956 65.1692 103.047 65.3035 103.35 65.3939C103.739 65.5098 104.431 65.528 105.389 65.3957C106.317 65.2677 107.391 65.014 108.483 64.6778C110.696 63.9963 112.823 63.0248 113.873 62.2042C115.27 61.1133 116.978 60.7407 118.622 60.7432C120.267 60.7457 121.915 61.1216 123.288 61.6027C124.115 61.8923 124.806 62.4324 125.417 62.9433C125.549 63.0535 125.677 63.1631 125.805 63.2719C126.302 63.6947 126.784 64.1041 127.352 64.4794C128.695 65.3662 130.523 66.0541 133.714 65.4412C135.637 65.0548 137.435 64.2148 138.956 62.9966C134.772 53.6272 128.451 45.347 120.49 38.8056ZM108.069 57.3413C108.069 57.3427 108.069 57.3442 108.069 57.3457C108.069 57.3453 108.069 57.3448 108.069 57.3443C108.069 57.3435 108.069 57.3425 108.069 57.3413Z" fill="#2A2C57"/>
<path fill-rule="evenodd" clip-rule="evenodd" d="M107.995 68.113C110.399 67.4594 113.019 67.2513 115.43 67.8914C117.725 68.5006 119.216 69.4174 120.321 70.0968C120.349 70.1135 120.375 70.13 120.402 70.1464C121.579 70.8693 122.043 71.0843 122.601 70.9484C123.013 70.8478 123.509 70.6527 124.135 70.3901C124.238 70.3467 124.345 70.3017 124.454 70.2555C124.984 70.0316 125.579 69.7797 126.212 69.5499C127.747 68.9922 129.594 68.5258 131.662 68.781L131.664 68.7811C134.597 69.1475 140.3 69.6578 142.58 69.8565C142.933 69.8872 143.236 70.1222 143.357 70.459C143.389 70.5455 143.406 70.6346 143.411 70.7236C146.658 82.2683 146.855 94.4756 143.979 106.123C141.089 117.833 135.197 128.562 126.899 137.224C126.596 137.54 126.116 137.595 125.751 137.356C123.941 136.17 121.915 134.277 121.995 131.698L121.995 131.692C122.023 130.94 122.086 129.999 122.153 129.002L122.162 128.866C122.233 127.811 122.307 126.691 122.352 125.624C122.397 124.555 122.411 123.563 122.365 122.762C122.343 122.361 122.306 122.027 122.256 121.765C122.204 121.488 122.148 121.356 122.123 121.314C121.977 121.065 121.663 120.683 121.196 120.113C121.146 120.052 121.094 119.988 121.04 119.922C120.518 119.284 119.887 118.501 119.31 117.633C118.186 115.943 117.102 113.697 117.666 111.398C118.102 109.619 118.446 105.72 118.295 102.126C118.22 100.333 118.024 98.6764 117.68 97.431C117.508 96.8073 117.31 96.329 117.1 95.9972C116.889 95.6636 116.711 95.548 116.6 95.5111C115.484 95.1405 114.512 95.3282 113.078 95.6052C112.909 95.6378 112.735 95.6715 112.552 95.7058C110.851 96.0254 108.775 96.2991 105.904 95.526C103.228 94.8051 100.306 93.9463 98.0502 92.6009C95.7696 91.241 94.0054 89.2776 94 86.3376C93.9951 83.638 95.073 80.4635 96.5159 77.7058C97.9572 74.9512 99.8515 72.4438 101.626 71.1399C103.333 69.8852 105.588 68.7674 107.995 68.113ZM141.774 71.6369C139.198 71.4099 134.163 70.9514 131.442 70.6116C129.774 70.4059 128.235 70.774 126.826 71.2858C126.242 71.4982 125.697 71.7287 125.168 71.9522C125.055 71.9999 124.943 72.0472 124.832 72.0939C124.219 72.3512 123.598 72.6022 123.027 72.7414C121.656 73.0756 120.551 72.3955 119.542 71.7747C119.514 71.7575 119.486 71.7404 119.458 71.7233C119.437 71.7101 119.415 71.6968 119.393 71.6835C118.311 71.0183 117.006 70.2162 114.969 69.6754C112.952 69.1399 110.668 69.296 108.467 69.8942C106.27 70.4915 104.219 71.513 102.695 72.6328C101.238 73.7034 99.5026 75.9356 98.1244 78.5695C96.7478 81.2005 95.8163 84.0635 95.8205 86.3341C95.8242 88.3643 96.9865 89.8266 98.9737 91.0116C100.986 92.2113 103.674 93.0169 106.372 93.7437C108.877 94.4183 110.652 94.1871 112.22 93.8925C112.393 93.86 112.567 93.8256 112.742 93.7909C114.123 93.5177 115.576 93.2301 117.167 93.7586C117.816 93.9742 118.29 94.4604 118.632 95.0015C118.976 95.5444 119.235 96.2137 119.434 96.934C119.832 98.3765 120.037 100.194 120.114 102.048C120.269 105.747 119.925 109.836 119.433 111.843C119.068 113.328 119.743 114.984 120.82 116.603C121.343 117.389 121.923 118.112 122.441 118.745C122.499 118.816 122.558 118.888 122.617 118.959C123.044 119.479 123.461 119.986 123.686 120.368C123.871 120.682 123.976 121.06 124.044 121.416C124.114 121.787 124.157 122.209 124.183 122.656C124.234 123.549 124.217 124.613 124.171 125.702C124.125 126.796 124.049 127.938 123.979 128.991L123.971 129.11C123.903 130.121 123.841 131.036 123.815 131.758C123.774 133.088 124.712 134.321 126.125 135.377C133.919 127.048 139.463 116.819 142.213 105.676C144.977 94.4788 144.824 82.7502 141.774 71.6369Z" fill="#2A2C57"/>
<path fill-rule="evenodd" clip-rule="evenodd" d="M86.6996 18.6832C76.4218 17.5395 66.0033 18.5917 56.214 21.7619C55.7352 21.917 55.214 21.6761 55.0498 21.2239C54.8856 20.7717 55.1407 20.2794 55.6195 20.1244C65.6686 16.87 76.3636 15.7899 86.9141 16.9639C97.4646 18.1379 107.601 21.5361 116.574 26.9071C117.002 27.1631 117.128 27.6978 116.858 28.1016C116.587 28.5054 116.02 28.6252 115.593 28.3693C106.852 23.1371 96.9774 19.8268 86.6996 18.6832Z" fill="#2A2C57"/>
<path fill-rule="evenodd" clip-rule="evenodd" d="M20.6354 45.6777C21.0404 45.9635 21.1201 46.5011 20.8135 46.8785C18.9505 49.1713 17.2487 51.574 15.7188 54.0715C15.467 54.4827 14.9052 54.6257 14.464 54.391C14.0228 54.1564 13.8693 53.6328 14.1211 53.2217C15.6904 50.6599 17.436 48.1954 19.3468 45.8437C19.6535 45.4663 20.2304 45.392 20.6354 45.6777Z" fill="#2A2C57"/>
<path fill-rule="evenodd" clip-rule="evenodd" d="M5.83242 88.5039C6.29264 88.5034 6.6661 88.9166 6.66658 89.4268C6.67258 95.8153 7.44727 102.174 8.97016 108.336C9.09179 108.828 8.83058 109.336 8.38673 109.471C7.94289 109.606 7.48447 109.316 7.36284 108.824C5.80077 102.504 5.00615 95.9816 5 89.4287C4.99952 88.9185 5.37221 88.5044 5.83242 88.5039Z" fill="#2A2C57"/>
<path fill-rule="evenodd" clip-rule="evenodd" d="M150.073 88.5039C150.583 88.5023 150.998 88.9159 151 89.4275C151.029 98.8423 149.257 108.175 145.781 116.92C145.592 117.396 145.055 117.627 144.582 117.438C144.108 117.248 143.877 116.709 144.066 116.234C147.454 107.709 149.181 98.6111 149.153 89.4333C149.151 88.9216 149.563 88.5055 150.073 88.5039Z" fill="#2A2C57"/>
<path fill-rule="evenodd" clip-rule="evenodd" d="M133 156.403C133.001 156.901 132.592 157.305 132.086 157.306L24.9171 157.504C24.4116 157.505 24.001 157.102 24 156.605C23.9991 156.107 24.4081 155.703 24.9137 155.702L132.083 155.504C132.588 155.503 132.999 155.906 133 156.403Z" fill="#2A2C57"/>
<path d="M26.8759 30.2503C32.8738 26.253 34.4957 18.1504 30.4984 12.1525C26.5012 6.1546 18.3986 4.53273 12.4007 8.52996C6.40278 12.5272 4.78092 20.6298 8.77815 26.6277C12.7754 32.6256 20.878 34.2475 26.8759 30.2503Z" fill="#A20909"/>
<path d="M25.7123 31.0257C31.0676 27.4568 32.1685 19.7013 28.1713 13.7034C24.174 7.70551 16.5924 5.73647 11.2371 9.30542C5.88183 12.8744 4.78092 20.6298 8.77815 26.6277C12.7754 32.6256 20.3571 34.5947 25.7123 31.0257Z" fill="#E24343"/>
<path d="M15.2425 21.1996C16.5277 20.3431 16.8753 18.6068 16.0187 17.3215C15.1622 16.0363 13.4259 15.6887 12.1407 16.5453C10.8554 17.4018 10.5078 19.1381 11.3644 20.4234C12.2209 21.7086 13.9572 22.0562 15.2425 21.1996Z" fill="white"/>
<path d="M26.8759 30.2507C27.0834 30.1123 27.2729 29.9579 27.4699 29.81C22.158 32.8872 14.9643 30.8676 11.1054 25.0772C7.24652 19.2869 8.15121 11.87 13.0361 8.15178C12.8237 8.27667 12.6082 8.39212 12.4007 8.53045C6.4028 12.5277 4.78093 20.6303 8.77815 26.6282C12.7754 32.6261 20.878 34.2479 26.8759 30.2507Z" fill="white"/>
<path d="M27.393 31.0264C20.9666 35.3092 12.2853 33.5714 8.00264 27.1452C3.71995 20.7189 5.45751 12.0375 11.8838 7.75475C18.3102 3.472 26.9915 5.20976 31.2741 11.636C35.5479 18.0641 33.8115 26.7385 27.393 31.0264ZM12.9178 9.3062C7.34834 13.0179 5.84226 20.5417 9.554 26.1113C13.2657 31.6808 20.7896 33.1866 26.359 29.475C31.9284 25.7633 33.4345 18.2394 29.7228 12.6699C26.0065 7.10736 18.4888 5.6025 12.9178 9.3062Z" fill="#2A2C57"/>
<path d="M15.7597 21.9753C14.046 23.1174 11.731 22.654 10.5889 20.9403C9.44682 19.2266 9.9102 16.9116 11.6239 15.7695C13.3376 14.6274 15.6526 15.0908 16.7947 16.8045C17.9345 18.5187 17.4715 20.8319 15.7597 21.9753ZM12.6579 17.321C11.8011 17.8921 11.5694 19.0496 12.1404 19.9064C12.7114 20.7632 13.869 20.995 14.7258 20.424C15.5826 19.8529 15.8143 18.6954 15.2433 17.8386C14.6715 16.9828 13.515 16.7513 12.6579 17.321Z" fill="#2A2C57"/>
<path d="M42.3853 53.5221C42.1796 53.6594 41.9278 53.709 41.6854 53.6606C41.4429 53.6121 41.2297 53.4692 41.0926 53.2634L26.1005 30.7674C25.8149 30.339 25.9308 29.7603 26.3592 29.4747C26.7877 29.1892 27.3664 29.305 27.6519 29.7335L42.6441 52.2294C42.7813 52.4352 42.831 52.687 42.7825 52.9294C42.7339 53.1718 42.5912 53.3851 42.3853 53.5221Z" fill="#2A2C57"/>
<defs>
<linearGradient id="paint0_linear" x1="102.913" y1="51.8851" x2="61.6729" y2="120.619" gradientUnits="userSpaceOnUse">
<stop stop-color="white" stop-opacity="0.6"/>
<stop offset="0.16" stop-color="#F7FCFF" stop-opacity="0.61"/>
<stop offset="0.34" stop-color="#DFF5FF" stop-opacity="0.66"/>
<stop offset="0.53" stop-color="#B7E8FF" stop-opacity="0.72"/>
<stop offset="0.72" stop-color="#80D7FE" stop-opacity="0.82"/>
<stop offset="0.92" stop-color="#39C1FE" stop-opacity="0.94"/>
<stop offset="1" stop-color="#18B6FE"/>
</linearGradient>
</defs>
</svg>
