<svg width="104" height="136" viewBox="0 0 104 136" fill="none" xmlns="http://www.w3.org/2000/svg">
<path d="M75.1795 135.296H25.1302C20.6665 135.296 17.0464 131.673 17.0464 127.205V9.28716C17.0464 4.53807 20.8774 0.703613 25.6223 0.703613H75.6716C80.1353 0.703613 83.7554 4.327 83.7554 8.79466V126.748C83.7203 131.462 79.8892 135.296 75.1795 135.296Z" fill="white"/>
<path d="M74.3712 135.296H26.4306C21.018 135.296 17.0464 130.899 17.0464 125.447V10.5536C17.0464 5.1361 20.9829 0.703613 26.4306 0.703613H74.3712C79.819 0.703613 83.7554 5.10092 83.7554 10.5536V125.447C83.7554 130.899 79.7838 135.296 74.3712 135.296Z" fill="#777471"/>
<path d="M74.371 136H26.4305C20.7718 136 16.3433 131.356 16.3433 125.446V10.5535C16.3433 4.64356 20.7718 0 26.4305 0H74.371C80.0297 0 84.4582 4.64356 84.4582 10.5535V125.446C84.4582 131.392 80.0297 136 74.371 136ZM26.4305 1.40714C21.4747 1.40714 17.7491 5.34713 17.7491 10.5535V125.446C17.7491 130.653 21.4747 134.593 26.4305 134.593H74.371C79.3267 134.593 83.0523 130.653 83.0523 125.446V10.5535C83.0523 5.34713 79.3267 1.40714 74.371 1.40714H26.4305Z" fill="#2A2C57"/>
<path d="M77.9559 135.296H27.9066C23.4429 135.296 19.8228 131.673 19.8228 127.205V9.28716C19.8228 4.53807 23.6538 0.703613 28.3635 0.703613H78.4128C82.8765 0.703613 86.4966 4.327 86.4966 8.79466V126.748C86.4966 131.462 82.6656 135.296 77.9559 135.296Z" fill="white"/>
<path d="M36.2013 49.3203C51.8768 33.6658 67.5875 17.9762 83.2631 2.32182C81.8572 1.26647 80.1702 0.703613 78.4128 0.703613H69.6261L49.3111 21.0368L19.7876 50.5867V65.6431L36.2013 49.3203Z" fill="#F5FCFF"/>
<path d="M34.6196 69.3015L86.4966 17.378V8.82966C86.4966 7.73913 86.2857 6.64859 85.8288 5.62842L64.7055 26.7355L19.7876 71.6936V84.1116L34.6196 69.3015Z" fill="#F5FCFF"/>
<path d="M81.5059 99.2737V114.189L86.4967 109.194V94.2783L81.5059 99.2737Z" fill="#E8F3F9"/>
<path d="M61.7531 119.044L45.5151 135.296H60.4175L76.6554 119.044H61.7531Z" fill="#F5FCFF"/>
<path d="M30.4371 131.392C25.9735 131.392 22.3533 127.768 22.3533 123.301V5.34724C22.3533 4.25671 22.5642 3.16617 22.986 2.146C20.9826 3.76421 19.8228 6.2267 19.8228 8.79473V126.713C19.8228 131.181 23.4429 134.804 27.9066 134.804H77.9559C81.4355 134.804 84.5987 132.693 85.8991 129.457C84.3878 130.688 82.4899 131.357 80.5216 131.357L30.4371 131.392Z" fill="#CADBE8"/>
<path d="M82.3494 28.7407H23.9351V87.524H82.3494V28.7407Z" fill="white"/>
<path d="M77.1127 136H29.1722C23.5135 136 19.085 131.356 19.085 125.446V10.5535C19.085 4.64356 23.5135 0 29.1722 0H77.1127C82.7713 0 87.1999 4.64356 87.1999 10.5535V125.446C87.1999 128.296 86.1806 130.934 84.353 132.869C82.4902 134.909 79.9244 136 77.1127 136ZM29.1722 1.40714C24.2164 1.40714 20.4908 5.34713 20.4908 10.5535V125.446C20.4908 130.653 24.2164 134.593 29.1722 134.593H77.1127C79.5027 134.593 81.7169 133.643 83.3337 131.919C84.9153 130.231 85.794 127.909 85.794 125.446V10.5535C85.794 5.34713 82.0684 1.40714 77.1127 1.40714H29.1722Z" fill="#2A2C57"/>
<path d="M82.3492 120.698H23.9349C23.5483 120.698 23.2319 120.381 23.2319 119.994V86.8911C23.2319 86.5041 23.5483 86.1875 23.9349 86.1875H82.3492C82.7358 86.1875 83.0521 86.5041 83.0521 86.8911V119.994C83.0521 120.381 82.7358 120.698 82.3492 120.698ZM24.6378 119.29H81.6463V87.5946H24.6378V119.29Z" fill="#2A2C57"/>
<path d="M42.9143 9.70938C43.516 9.70938 44.0038 9.22114 44.0038 8.61885C44.0038 8.01657 43.516 7.52832 42.9143 7.52832C42.3125 7.52832 41.8247 8.01657 41.8247 8.61885C41.8247 9.22114 42.3125 9.70938 42.9143 9.70938Z" fill="#444A54"/>
<path d="M55.0052 5.59357C55.3546 5.59357 55.6379 5.31007 55.6379 4.96036C55.6379 4.61065 55.3546 4.32715 55.0052 4.32715C54.6558 4.32715 54.3726 4.61065 54.3726 4.96036C54.3726 5.31007 54.6558 5.59357 55.0052 5.59357Z" fill="#444A54"/>
<path d="M60.5232 9.21671H49.1356C48.7489 9.21671 48.4326 8.9001 48.4326 8.51314C48.4326 8.12618 48.7489 7.80957 49.1356 7.80957H60.5232C60.9098 7.80957 61.2261 8.12618 61.2261 8.51314C61.2261 8.9001 60.9098 9.21671 60.5232 9.21671Z" fill="#323854"/>
<path d="M54.5131 130.829C56.8036 130.829 58.6604 128.97 58.6604 126.678C58.6604 124.385 56.8036 122.527 54.5131 122.527C52.2226 122.527 50.3657 124.385 50.3657 126.678C50.3657 128.97 52.2226 130.829 54.5131 130.829Z" fill="#EFEFEF"/>
<path d="M54.5129 131.533C51.8417 131.533 49.6626 129.351 49.6626 126.678C49.6626 124.004 51.8417 121.823 54.5129 121.823C57.1841 121.823 59.3632 124.004 59.3632 126.678C59.3632 129.351 57.1841 131.533 54.5129 131.533ZM54.5129 123.23C52.6149 123.23 51.0685 124.778 51.0685 126.678C51.0685 128.578 52.6149 130.125 54.5129 130.125C56.4108 130.125 57.9573 128.578 57.9573 126.678C57.9573 124.778 56.4108 123.23 54.5129 123.23Z" fill="#323854"/>
<path d="M54.5131 130.829C56.8036 130.829 58.6604 128.97 58.6604 126.678C58.6604 124.385 56.8036 122.527 54.5131 122.527C52.2226 122.527 50.3657 124.385 50.3657 126.678C50.3657 128.97 52.2226 130.829 54.5131 130.829Z" fill="white"/>
<path d="M54.5129 131.533C51.8417 131.533 49.6626 129.351 49.6626 126.678C49.6626 124.004 51.8417 121.823 54.5129 121.823C57.1841 121.823 59.3632 124.004 59.3632 126.678C59.3632 129.351 57.1841 131.533 54.5129 131.533ZM54.5129 123.23C52.6149 123.23 51.0685 124.778 51.0685 126.678C51.0685 128.578 52.6149 130.125 54.5129 130.125C56.4108 130.125 57.9573 128.578 57.9573 126.678C57.9573 124.778 56.4108 123.23 54.5129 123.23Z" fill="#2A2C57"/>
<path d="M82.3494 16.0415H23.9351V20.4036H82.3494V16.0415Z" fill="white"/>
<path d="M82.3492 21.1072H23.9349C23.5483 21.1072 23.2319 20.7906 23.2319 20.4036V16.0415C23.2319 15.6545 23.5483 15.3379 23.9349 15.3379H82.3492C82.7358 15.3379 83.0521 15.6545 83.0521 16.0415V20.4036C83.0521 20.7906 82.7358 21.1072 82.3492 21.1072ZM24.6378 19.7H81.6463V16.745H24.6378V19.7Z" fill="#323854"/>
<path d="M82.3494 20.4033H23.9351V28.7758H82.3494V20.4033Z" fill="#EFEFEF"/>
<path d="M82.3492 29.4441H23.9349C23.5483 29.4441 23.2319 29.1275 23.2319 28.7406V20.4033C23.2319 20.0163 23.5483 19.6997 23.9349 19.6997H82.3492C82.7358 19.6997 83.0521 20.0163 83.0521 20.4033V28.7758C83.0521 29.1275 82.7358 29.4441 82.3492 29.4441ZM24.6378 28.037H81.6463V21.1068H24.6378V28.037Z" fill="#2A2C57"/>
<path d="M36.6583 25.786H26.3602C26.1142 25.786 25.9033 25.6102 25.9033 25.3639V23.2532C25.9033 23.0069 26.1142 22.8311 26.3602 22.8311H36.6935C36.9395 22.8311 37.1504 23.0069 37.1504 23.2532V25.3639C37.1152 25.6102 36.9043 25.8212 36.6583 25.786Z" fill="#444A54"/>
<path d="M79.5025 25.786H69.099C68.853 25.786 68.6421 25.6102 68.6421 25.3639V23.2532C68.6421 23.0069 68.853 22.8311 69.099 22.8311H79.5025C79.7486 22.8311 79.9594 23.0069 79.9594 23.2532V25.3639C79.9594 25.6102 79.7486 25.8212 79.5025 25.786Z" fill="#444A54"/>
<path d="M60.8041 25.434H46.2532C45.8666 25.434 45.5503 25.1174 45.5503 24.7304C45.5503 24.3435 45.8666 24.0269 46.2532 24.0269H60.8041C61.1907 24.0269 61.507 24.3435 61.507 24.7304C61.507 25.1174 61.1907 25.434 60.8041 25.434Z" fill="#2A2C57"/>
<path d="M18.7332 22.3384C18.3466 22.3384 18.0303 22.0218 18.0303 21.6348V16.0415C18.0303 15.6545 18.3466 15.3379 18.7332 15.3379C19.1198 15.3379 19.4362 15.6545 19.4362 16.0415V21.6348C19.4362 22.0218 19.1198 22.3384 18.7332 22.3384Z" fill="#2A2C57"/>
<path d="M18.7332 32.9272C18.3466 32.9272 18.0303 32.6106 18.0303 32.2236V25.2583C18.0303 24.8713 18.3466 24.5547 18.7332 24.5547C19.1198 24.5547 19.4362 24.8713 19.4362 25.2583V32.2236C19.4362 32.6106 19.1198 32.9272 18.7332 32.9272Z" fill="#2A2C57"/>
<path d="M86.9539 32.9272C86.5673 32.9272 86.251 32.6106 86.251 32.2236V25.2583C86.251 24.8713 86.5673 24.5547 86.9539 24.5547C87.3405 24.5547 87.6569 24.8713 87.6569 25.2583V32.2236C87.6569 32.6106 87.3405 32.9272 86.9539 32.9272Z" fill="#2A2C57"/>
<path d="M18.7332 42.953C18.3466 42.953 18.0303 42.6364 18.0303 42.2495V35.2841C18.0303 34.8972 18.3466 34.5806 18.7332 34.5806C19.1198 34.5806 19.4362 34.8972 19.4362 35.2841V42.2495C19.4362 42.6364 19.1198 42.953 18.7332 42.953Z" fill="#2A2C57"/>
<path d="M79.9947 18.9262H75.2498C74.8632 18.9262 74.5469 18.6096 74.5469 18.2226C74.5469 17.8357 74.8632 17.519 75.2498 17.519H79.9947C80.3813 17.519 80.6976 17.8357 80.6976 18.2226C80.6976 18.6096 80.3813 18.9262 79.9947 18.9262Z" fill="#2A2C57"/>
<path d="M56.9732 18.9262H52.2283C51.8417 18.9262 51.5254 18.6096 51.5254 18.2226C51.5254 17.8357 51.8417 17.519 52.2283 17.519H56.9732C57.3598 17.519 57.6761 17.8357 57.6761 18.2226C57.6761 18.6096 57.3598 18.9262 56.9732 18.9262Z" fill="#2A2C57"/>
<path d="M34.3035 18.9262H26.8172C26.4306 18.9262 26.1143 18.6096 26.1143 18.2226C26.1143 17.8357 26.4306 17.519 26.8172 17.519H34.3387C34.7253 17.519 35.0416 17.8357 35.0416 18.2226C35.0416 18.6096 34.6901 18.9262 34.3035 18.9262Z" fill="#2A2C57"/>
<path d="M74.8985 39.8925C74.8985 36.5505 72.1922 33.877 68.8884 33.877H51.4203C48.0813 33.877 45.4102 36.5857 45.4102 39.8925C45.4102 43.2344 48.1165 45.908 51.4203 45.908H68.8884C70.1888 45.908 71.4541 45.4859 72.4734 44.7119C73.7386 46.3301 74.9688 47.0689 77.3939 47.1392C75.9881 45.6266 74.8282 43.2344 74.8985 39.8925Z" fill="#36BBF9"/>
<path d="M77.3938 47.8428C77.3586 47.8428 77.3586 47.8428 77.3938 47.8428C75.1444 47.8076 73.7033 47.1744 72.3677 45.6617C71.3133 46.2949 70.1183 46.6115 68.9233 46.6115H51.4553C49.6628 46.6115 47.9757 45.9079 46.7104 44.6415C45.4451 43.3751 44.7422 41.6865 44.7422 39.8924C44.7422 38.0983 45.4451 36.4098 46.7104 35.1433C47.9757 33.8769 49.6628 33.1733 51.4553 33.1733H68.8882C72.5786 33.1733 75.6013 36.1987 75.6013 39.8924C75.531 43.3047 76.7963 45.4506 77.8858 46.6467C78.0616 46.8578 78.1319 47.1392 77.9913 47.4206C77.8858 47.702 77.6398 47.8428 77.3938 47.8428ZM72.4732 44.0083C72.6841 44.0083 72.8949 44.1138 73.0355 44.2897C73.8088 45.2747 74.582 45.9431 75.8473 46.2597C74.9335 44.8174 74.1602 42.7419 74.2305 39.8924C74.2305 36.9726 71.8405 34.5805 68.9233 34.5805H51.4553C48.5381 34.5805 46.1481 36.9726 46.1481 39.8924C46.1481 42.8122 48.5381 45.2044 51.4553 45.2044H68.8882C70.0129 45.2044 71.1376 44.8174 72.0514 44.149C72.192 44.0787 72.3326 44.0083 72.4732 44.0083Z" fill="#2A2C57"/>
<path d="M74.8985 75.0355C74.8985 71.6936 72.1922 69.02 68.8883 69.02H60.6288C57.2898 69.02 54.6187 71.7288 54.6187 75.0355C54.6187 78.3423 57.325 81.0511 60.6288 81.0511H68.8883C70.1888 81.0511 71.4541 80.6289 72.4733 79.855C73.7386 81.4732 74.9688 82.212 77.3939 82.2823C75.988 80.7696 74.8282 78.3775 74.8985 75.0355Z" fill="#36BBF9"/>
<path d="M77.3937 82.9859C77.3586 82.9859 77.3586 82.9859 77.3937 82.9859C75.1443 82.9507 73.7033 82.3175 72.3677 80.8048C71.3133 81.438 70.1183 81.7546 68.9233 81.7546H60.6638C56.9733 81.7546 53.9507 78.7293 53.9507 75.0355C53.9507 71.3418 56.9733 68.3164 60.6638 68.3164H68.8882C72.5786 68.3164 75.6013 71.3418 75.6013 75.0355C75.531 78.4478 76.7963 80.5937 77.8858 81.7898C78.0615 82.0009 78.1318 82.2823 77.9912 82.5637C77.8858 82.8451 77.6398 82.9859 77.3937 82.9859ZM72.4732 79.1514C72.684 79.1514 72.8949 79.2569 73.0355 79.4328C73.8088 80.4178 74.582 81.0862 75.8473 81.4028C74.9335 79.9605 74.1602 77.8498 74.2305 75.0355C74.2305 72.1157 71.8405 69.7235 68.9233 69.7235H60.6638C57.7466 69.7235 55.3566 72.1157 55.3566 75.0355C55.3566 77.9553 57.7466 80.3475 60.6638 80.3475H68.8882C70.0129 80.3475 71.1376 79.9605 72.0514 79.2921C72.192 79.2218 72.3326 79.1514 72.4732 79.1514Z" fill="#2A2C57"/>
<path d="M30.0858 57.4818C30.0858 54.1399 32.7921 51.4663 36.0959 51.4663H66.4278C69.7667 51.4663 72.4379 54.175 72.4379 57.4818C72.4379 60.7886 69.7316 63.4973 66.4278 63.4973H36.0959C34.7955 63.4973 33.5302 63.0752 32.5109 62.3013C31.2456 63.9195 30.0155 64.6582 27.6255 64.7286C28.9962 63.2159 30.1209 60.8238 30.0858 57.4818Z" fill="#36BBF9"/>
<path d="M27.5904 65.4321C27.3092 65.4321 27.0632 65.2562 26.9577 65.01C26.8523 64.7637 26.8875 64.4471 27.0632 64.2361C28.1527 63.04 29.418 60.8941 29.3477 57.4818C29.3477 53.788 32.3704 50.7627 36.0608 50.7627H66.4278C70.1183 50.7627 73.1409 53.788 73.1409 57.4818C73.1409 61.1755 70.1183 64.2009 66.4278 64.2009H36.096C34.8658 64.2009 33.6708 63.8491 32.6516 63.2511C31.2808 64.7989 29.8398 65.3969 27.5904 65.4321ZM30.7888 57.4818C30.8591 60.3312 30.0858 62.4068 29.172 63.8491C30.4373 63.5325 31.1754 62.8641 31.9838 61.8791C32.2298 61.5625 32.6516 61.5273 32.9679 61.7384C33.8817 62.4068 35.0064 62.7937 36.1311 62.7937H66.4278C69.3451 62.7937 71.7351 60.4016 71.7351 57.4818C71.7351 54.562 69.3451 52.1698 66.4278 52.1698H36.096C33.1436 52.1698 30.7888 54.562 30.7888 57.4818Z" fill="#2A2C57"/>
<path d="M32.1596 97.6201H32.3002C34.4793 97.6201 36.2718 99.4142 36.2718 101.595V101.666C36.2718 103.847 34.4793 105.641 32.3002 105.641H32.1596C29.9805 105.641 28.188 103.847 28.188 101.666V101.595C28.188 99.4142 29.9805 97.6201 32.1596 97.6201Z" fill="#0EC69A"/>
<path d="M32.3 106.344H32.1594C29.5937 106.344 27.4849 104.234 27.4849 101.666V101.595C27.4849 99.0272 29.5937 96.9165 32.1594 96.9165H32.3C34.8657 96.9165 36.9746 99.0272 36.9746 101.595V101.666C36.9746 104.234 34.8657 106.344 32.3 106.344ZM32.1594 98.3236C30.3669 98.3236 28.8907 99.8011 28.8907 101.595V101.666C28.8907 103.46 30.3669 104.937 32.1594 104.937H32.3C34.0925 104.937 35.5687 103.46 35.5687 101.666V101.595C35.5687 99.8011 34.0925 98.3236 32.3 98.3236H32.1594Z" fill="#2A2C57"/>
<path d="M73.8442 97.6201H73.9848C76.1639 97.6201 77.9564 99.4142 77.9564 101.595V101.666C77.9564 103.847 76.1639 105.641 73.9848 105.641H73.8442C71.6651 105.641 69.8726 103.847 69.8726 101.666V101.595C69.8726 99.4142 71.6651 97.6201 73.8442 97.6201Z" fill="#0EC69A"/>
<path d="M73.9846 106.344H73.844C71.2783 106.344 69.1694 104.234 69.1694 101.666V101.595C69.1694 99.0272 71.2783 96.9165 73.844 96.9165H73.9846C76.5503 96.9165 78.6591 99.0272 78.6591 101.595V101.666C78.624 104.234 76.5503 106.344 73.9846 106.344ZM73.844 98.3236C72.0515 98.3236 70.5753 99.8011 70.5753 101.595V101.666C70.5753 103.46 72.0515 104.937 73.844 104.937H73.9846C75.7771 104.937 77.2532 103.46 77.2532 101.666V101.595C77.2532 99.8011 75.7771 98.3236 73.9846 98.3236H73.844Z" fill="#2A2C57"/>
<path d="M46.0776 97.6201H46.2182C48.3973 97.6201 50.1898 99.4142 50.1898 101.595V101.666C50.1898 103.847 48.3973 105.641 46.2182 105.641H46.0776C43.8985 105.641 42.106 103.847 42.106 101.666V101.595C42.106 99.4142 43.8633 97.6201 46.0776 97.6201Z" fill="#0EC69A"/>
<path d="M46.1833 106.344H46.0427C43.477 106.344 41.3682 104.234 41.3682 101.666V101.595C41.3682 99.0272 43.477 96.9165 46.0427 96.9165H46.1833C48.749 96.9165 50.8579 99.0272 50.8579 101.595V101.666C50.8579 104.234 48.749 106.344 46.1833 106.344ZM46.0779 98.3236C44.2854 98.3236 42.8092 99.8011 42.8092 101.595V101.666C42.8092 103.46 44.2854 104.937 46.0779 104.937H46.2185C48.011 104.937 49.4871 103.46 49.4871 101.666V101.595C49.4871 99.8011 48.011 98.3236 46.2185 98.3236H46.0779Z" fill="#2A2C57"/>
<path d="M60.1362 97.6201H60.2768C62.4559 97.6201 64.2484 99.4142 64.2484 101.595V101.666C64.2484 103.847 62.4559 105.641 60.2768 105.641H60.1362C57.957 105.641 56.1646 103.847 56.1646 101.666V101.595C56.1646 99.4142 57.9219 97.6201 60.1362 97.6201Z" fill="#0EC69A"/>
<path d="M60.2419 106.344H60.1013C57.5356 106.344 55.4268 104.234 55.4268 101.666V101.595C55.4268 99.0272 57.5356 96.9165 60.1013 96.9165H60.2419C62.8076 96.9165 64.9165 99.0272 64.9165 101.595V101.666C64.9165 104.234 62.8428 106.344 60.2419 106.344ZM60.1365 98.3236C58.344 98.3236 56.8678 99.8011 56.8678 101.595V101.666C56.8678 103.46 58.344 104.937 60.1365 104.937H60.2771C62.0695 104.937 63.5457 103.46 63.5457 101.666V101.595C63.5457 99.8011 62.0695 98.3236 60.2771 98.3236H60.1365Z" fill="#2A2C57"/>
<path d="M73.8442 108.772H73.9848C76.1639 108.772 77.9564 110.566 77.9564 112.747V112.817C77.9564 114.999 76.1639 116.793 73.9848 116.793H73.8442C71.6651 116.793 69.8726 114.999 69.8726 112.817V112.747C69.8726 110.566 71.6651 108.772 73.8442 108.772Z" fill="#0EC69A"/>
<path d="M73.9846 117.496H73.844C71.2783 117.496 69.1694 115.385 69.1694 112.817V112.747C69.1694 110.179 71.2783 108.068 73.844 108.068H73.9846C76.5503 108.068 78.6591 110.179 78.6591 112.747V112.817C78.624 115.421 76.5503 117.496 73.9846 117.496ZM73.844 109.475C72.0515 109.475 70.5753 110.953 70.5753 112.747V112.817C70.5753 114.612 72.0515 116.089 73.844 116.089H73.9846C75.7771 116.089 77.2532 114.612 77.2532 112.817V112.747C77.2532 110.953 75.7771 109.475 73.9846 109.475H73.844Z" fill="#2A2C57"/>
<path d="M32.1596 108.772H32.3002C34.4793 108.772 36.2718 110.566 36.2718 112.747V112.817C36.2718 114.999 34.4793 116.793 32.3002 116.793H32.1596C29.9805 116.793 28.188 114.999 28.188 112.817V112.747C28.188 110.566 29.9805 108.772 32.1596 108.772Z" fill="#0EC69A"/>
<path d="M32.3 117.496H32.1594C29.5937 117.496 27.4849 115.385 27.4849 112.817V112.747C27.4849 110.179 29.5937 108.068 32.1594 108.068H32.3C34.8657 108.068 36.9746 110.179 36.9746 112.747V112.817C36.9746 115.421 34.8657 117.496 32.3 117.496ZM32.1594 109.475C30.3669 109.475 28.8907 110.953 28.8907 112.747V112.817C28.8907 114.612 30.3669 116.089 32.1594 116.089H32.3C34.0925 116.089 35.5687 114.612 35.5687 112.817V112.747C35.5687 110.953 34.0925 109.475 32.3 109.475H32.1594Z" fill="#2A2C57"/>
<path d="M59.9257 108.772H60.0663C62.2454 108.772 64.0379 110.566 64.0379 112.747V112.817C64.0379 114.999 62.2454 116.793 60.0663 116.793H59.9257C57.7466 116.793 55.9541 114.999 55.9541 112.817V112.747C55.9892 110.566 57.7466 108.772 59.9257 108.772Z" fill="#0EC69A"/>
<path d="M60.0661 117.496H59.9255C57.3598 117.496 55.251 115.385 55.251 112.817V112.747C55.251 110.179 57.3598 108.068 59.9255 108.068H60.0661C62.6318 108.068 64.7407 110.179 64.7407 112.747V112.817C64.7407 115.421 62.6318 117.496 60.0661 117.496ZM59.9255 109.475C58.133 109.475 56.6569 110.953 56.6569 112.747V112.817C56.6569 114.612 58.133 116.089 59.9255 116.089H60.0661C61.8586 116.089 63.3348 114.612 63.3348 112.817V112.747C63.3348 110.953 61.8586 109.475 60.0661 109.475H59.9255Z" fill="#2A2C57"/>
<path d="M45.8671 108.772H46.0077C48.1868 108.772 49.9793 110.566 49.9793 112.747V112.817C49.9793 114.999 48.1868 116.793 46.0077 116.793H45.8671C43.688 116.793 41.8955 114.999 41.8955 112.817V112.747C41.8955 110.566 43.688 108.772 45.8671 108.772Z" fill="#0EC69A"/>
<path d="M46.0075 117.496H45.8669C43.3012 117.496 41.1924 115.385 41.1924 112.817V112.747C41.1924 110.179 43.3012 108.068 45.8669 108.068H46.0075C48.5733 108.068 50.6821 110.179 50.6821 112.747V112.817C50.6821 115.421 48.5733 117.496 46.0075 117.496ZM45.8669 109.475C44.0744 109.475 42.5983 110.953 42.5983 112.747V112.817C42.5983 114.612 44.0744 116.089 45.8669 116.089H46.0075C47.8 116.089 49.2762 114.612 49.2762 112.817V112.747C49.2762 110.953 47.8 109.475 46.0075 109.475H45.8669Z" fill="#2A2C57"/>
<path d="M66.6738 95.0172H35.8147C34.3034 95.0172 33.0732 93.7859 33.0732 92.2732V92.2381C33.0732 90.7254 34.3034 89.4941 35.8147 89.4941H66.6738C68.1851 89.4941 69.4153 90.7254 69.4153 92.2381V92.2732C69.4153 93.7859 68.1851 95.0172 66.6738 95.0172ZM35.8147 90.8661C35.0766 90.8661 34.4791 91.4641 34.4791 92.2029V92.2381C34.4791 92.9768 35.0766 93.5748 35.8147 93.5748H66.6738C67.4119 93.5748 68.0094 92.9768 68.0094 92.2381V92.2029C68.0094 91.4641 67.4119 90.8661 66.6738 90.8661H35.8147Z" fill="#2A2C57"/>
<path d="M73.5629 90.1626H77.2885C78.4132 90.1626 79.3271 91.0772 79.3271 92.203V92.2381C79.3271 93.3639 78.4132 94.2785 77.2885 94.2785H73.5629C72.4382 94.2785 71.5244 93.3639 71.5244 92.2381V92.203C71.5244 91.1124 72.4382 90.1626 73.5629 90.1626Z" fill="#EFEFEF"/>
<path d="M77.2884 95.0172H73.5628C72.0514 95.0172 70.8213 93.7859 70.8213 92.2732V92.2381C70.8213 90.7254 72.0514 89.4941 73.5628 89.4941H77.2884C78.7997 89.4941 80.0298 90.7254 80.0298 92.2381V92.2732C80.0298 93.7859 78.7997 95.0172 77.2884 95.0172ZM73.5628 90.8661C72.8247 90.8661 72.2272 91.4641 72.2272 92.2029V92.2381C72.2272 92.9768 72.8247 93.5748 73.5628 93.5748H77.2884C78.0264 93.5748 78.6239 92.9768 78.6239 92.2381V92.2029C78.6239 91.4641 78.0264 90.8661 77.2884 90.8661H73.5628Z" fill="#2A2C57"/>
<path d="M28.8554 94.3137C30.0201 94.3137 30.9642 93.3687 30.9642 92.203C30.9642 91.0373 30.0201 90.0923 28.8554 90.0923C27.6907 90.0923 26.7466 91.0373 26.7466 92.203C26.7466 93.3687 27.6907 94.3137 28.8554 94.3137Z" fill="#EFEFEF"/>
<path d="M28.8557 95.0524C27.3092 95.0524 26.0088 93.786 26.0088 92.2381C26.0088 90.6903 27.2741 89.4238 28.8557 89.4238C30.4022 89.4238 31.6675 90.6903 31.6675 92.2381C31.6675 93.786 30.4373 95.0524 28.8557 95.0524ZM28.8557 90.7958C28.0825 90.7958 27.4147 91.429 27.4147 92.2029C27.4147 92.9769 28.0473 93.6101 28.8557 93.6101C29.6289 93.6101 30.2616 92.9769 30.2616 92.2029C30.2616 91.429 29.6641 90.7958 28.8557 90.7958Z" fill="#2A2C57"/>
<path d="M66.6386 58.0443H35.6038C35.2172 58.0443 34.9009 57.7277 34.9009 57.3408C34.9009 56.9538 35.2172 56.6372 35.6038 56.6372H66.6386C67.0252 56.6372 67.3416 56.9538 67.3416 57.3408C67.3416 57.7277 67.0252 58.0443 66.6386 58.0443Z" fill="#2A2C57"/>
<path d="M68.7125 40.561H51.3499C50.9633 40.561 50.647 40.2443 50.647 39.8574C50.647 39.4704 50.9633 39.1538 51.3499 39.1538H68.7125C69.0991 39.1538 69.4155 39.4704 69.4155 39.8574C69.4155 40.2443 69.0991 40.561 68.7125 40.561Z" fill="#2A2C57"/>
<path d="M68.5015 76.0561H60.0311C59.6444 76.0561 59.3281 75.7395 59.3281 75.3525C59.3281 74.9655 59.6444 74.6489 60.0311 74.6489H68.5015C68.8881 74.6489 69.2044 74.9655 69.2044 75.3525C69.2044 75.7395 68.8881 76.0561 68.5015 76.0561Z" fill="#2A2C57"/>
<path d="M82.3492 120.697H23.9349C23.5483 120.697 23.2319 120.381 23.2319 119.994V16.0415C23.2319 15.6545 23.5483 15.3379 23.9349 15.3379H82.3492C82.7358 15.3379 83.0521 15.6545 83.0521 16.0415V120.029C83.0521 120.381 82.7358 120.697 82.3492 120.697ZM24.6378 119.29H81.6463V16.745H24.6378V119.29Z" fill="#2A2C57"/>
<path d="M103.332 135.965H0.667793C0.281176 135.965 0 135.648 0 135.296C0 134.945 0.316323 134.628 0.667793 134.628H103.332C103.719 134.628 104 134.945 104 135.296C104 135.648 103.684 135.965 103.332 135.965Z" fill="#2A2C57"/>
</svg>
