<svg width="48" height="45" viewBox="0 0 48 45" fill="none" xmlns="http://www.w3.org/2000/svg">
<path d="M35.6756 33.0947C28.8648 33.0947 23.3513 27.5243 23.3513 20.6432C23.3513 13.9806 34.8108 0.764563 35.2432 0.109223C35.3513 0.109223 35.5675 0 35.6756 0C35.7838 0 36 0.109223 36.1081 0.218447C36.6486 0.764563 48 13.9806 48 20.7524C48 27.5243 42.4865 33.0947 35.6756 33.0947ZM35.6756 1.4199C33.6216 3.82282 24.4324 15.0728 24.4324 20.7524C24.4324 26.9782 29.5135 32.1116 35.6756 32.1116C41.8378 32.1116 46.9189 26.9782 46.9189 20.7524C46.9189 15.0728 37.7297 3.82282 35.6756 1.4199Z" fill="#2A2C57"/>
<path d="M40.4323 27.4152C40.3242 27.4152 40.2161 27.4152 40.108 27.306C39.8918 27.0876 39.7837 26.7599 39.9999 26.5414C44.5404 19.8788 39.7837 14.5269 39.6756 14.4177C39.4594 14.1992 39.4594 13.8715 39.6756 13.6531C39.8918 13.4346 40.2161 13.4346 40.4323 13.6531C40.4323 13.7623 45.8377 19.7696 40.7567 27.0876C40.7567 27.306 40.6486 27.4152 40.4323 27.4152Z" fill="#2A2C57"/>
<path d="M23.8919 35.2791C23.8919 40.4126 19.7838 44.4538 14.8108 44.4538C9.72974 44.4538 5.72974 40.3034 5.72974 35.2791C5.72974 30.1456 14.8108 19.6602 14.8108 19.6602C14.8108 19.6602 23.8919 30.1456 23.8919 35.2791Z" fill="#0EC69A"/>
<path d="M14.8108 45.0002C9.51353 45.0002 5.18921 40.6312 5.18921 35.2793C5.18921 30.0366 14.0541 19.7696 14.4865 19.3327C14.5946 19.2235 14.7027 19.1143 14.9189 19.1143C15.027 19.1143 15.2433 19.2235 15.3514 19.3327C15.6757 19.7696 24.6487 30.0366 24.6487 35.2793C24.4324 40.6312 20.1081 45.0002 14.8108 45.0002ZM14.8108 20.5342C13.0811 22.6094 6.27029 31.0196 6.27029 35.2793C6.27029 40.0851 10.1622 43.9079 14.8108 43.9079C19.5676 43.9079 23.3514 39.9759 23.3514 35.2793C23.3514 31.0196 16.5406 22.6094 14.8108 20.5342Z" fill="#2A2C57"/>
<path d="M18.4866 40.6311C18.3785 40.6311 18.2704 40.6311 18.1623 40.5219C17.9461 40.3034 17.8379 39.9757 18.0542 39.7573C21.5136 34.733 18.0542 30.6918 17.8379 30.4733C17.6217 30.2549 17.6217 29.9272 17.8379 29.7088C18.0542 29.4903 18.3785 29.4903 18.5947 29.7088C18.5947 29.7088 22.8109 34.5146 18.919 40.3034C18.8109 40.5219 18.7028 40.6311 18.4866 40.6311Z" fill="#2A2C57"/>
<path d="M40.1082 43.7987C39.7838 43.7987 39.5676 43.5803 39.5676 43.2526V38.6653C39.5676 38.3376 39.7838 38.1191 40.1082 38.1191C40.4325 38.1191 40.6487 38.3376 40.6487 38.6653V43.2526C40.6487 43.5803 40.4325 43.7987 40.1082 43.7987Z" fill="#2A2C57"/>
<path d="M42.4866 41.5048H37.8379C37.5136 41.5048 37.2974 41.2864 37.2974 40.9587C37.2974 40.631 37.5136 40.4126 37.8379 40.4126H42.3784C42.7028 40.4126 42.919 40.631 42.919 40.9587C43.0271 41.2864 42.7028 41.5048 42.4866 41.5048Z" fill="#2A2C57"/>
<path d="M2.8108 20.9711C2.48648 20.9711 2.27026 20.7527 2.27026 20.425V15.8376C2.27026 15.51 2.48648 15.2915 2.8108 15.2915C3.13513 15.2915 3.35134 15.51 3.35134 15.8376V20.425C3.35134 20.7527 3.13513 20.9711 2.8108 20.9711Z" fill="#2A2C57"/>
<path d="M5.08108 18.6772H0.540541C0.216216 18.6772 0 18.4587 0 18.1311C0 17.8034 0.216216 17.585 0.540541 17.585H5.08108C5.40541 17.585 5.62162 17.8034 5.62162 18.1311C5.62162 18.4587 5.40541 18.6772 5.08108 18.6772Z" fill="#2A2C57"/>
<path d="M18.4866 8.62868C18.1623 8.62868 17.946 8.41023 17.946 8.08256V3.38596C17.946 3.05829 18.1623 2.83984 18.4866 2.83984C18.8109 2.83984 19.0271 3.05829 19.0271 3.38596V7.97334C19.0271 8.30101 18.8109 8.62868 18.4866 8.62868Z" fill="#2A2C57"/>
<path d="M20.7569 6.22553H16.2163C15.892 6.22553 15.6758 6.00709 15.6758 5.67942C15.6758 5.35175 15.892 5.1333 16.2163 5.1333H20.7569C21.0812 5.1333 21.2974 5.35175 21.2974 5.67942C21.2974 6.00709 21.0812 6.22553 20.7569 6.22553Z" fill="#2A2C57"/>
</svg>
