<svg width="66" height="66" viewBox="0 0 66 66" fill="none" xmlns="http://www.w3.org/2000/svg">
<path fill-rule="evenodd" clip-rule="evenodd" d="M27.2584 1.78157C27.7399 0.698197 28.8143 0 29.9998 0C33.1824 0 36.2346 1.26427 38.4851 3.5147C40.7355 5.76512 41.9998 8.81735 41.9998 11.9999V20.9999H55.9643C57.2626 20.9879 58.5481 21.2569 59.7327 21.7885C60.923 22.3228 61.9829 23.1094 62.839 24.0939C63.6951 25.0784 64.3269 26.2372 64.6907 27.4902C65.0544 28.7431 65.1414 30.0601 64.9456 31.35L60.8057 58.3495C60.8056 58.3503 60.8059 58.3487 60.8057 58.3495C60.4798 60.4946 59.3896 62.4522 57.7363 63.8575C56.0871 65.2593 53.9881 66.0197 51.8241 65.9996H8.99995C6.61301 65.9996 4.32384 65.0514 2.63602 63.3636C0.948206 61.6758 0 59.3866 0 56.9997V35.9998C0 33.6129 0.948206 31.3237 2.63602 29.6359C4.32384 27.948 6.61301 26.9998 8.99995 26.9998H16.0503L27.2584 1.78157ZM20.9999 30.6365L31.8233 6.28376C32.7274 6.57221 33.5589 7.07379 34.2424 7.75731C35.3677 8.88252 35.9998 10.4086 35.9998 11.9999V23.9999C35.9998 25.6567 37.3429 26.9998 38.9998 26.9998H55.9797L56.0136 26.9996C56.4485 26.9947 56.8792 27.0844 57.276 27.2625C57.6728 27.4405 58.0261 27.7027 58.3114 28.0309C58.5968 28.3591 58.8074 28.7454 58.9286 29.163C59.0498 29.5803 59.0788 30.0189 59.0138 30.4484C59.0139 30.448 59.0137 30.4488 59.0138 30.4484L54.8736 57.4498C54.7651 58.1652 54.4017 58.8173 53.8505 59.2859C53.2992 59.7544 52.5971 60.008 51.8736 59.9998L20.9999 59.9996V30.6365ZM14.9999 59.9996V32.9998H8.99995C8.2043 32.9998 7.44125 33.3159 6.87864 33.8785C6.31603 34.4411 5.99996 35.2041 5.99996 35.9998V56.9997C5.99996 57.7953 6.31603 58.5584 6.87864 59.121C7.44125 59.6836 8.2043 59.9996 8.99995 59.9996H14.9999Z" fill="white"/>
</svg>
