<svg width="12" height="12" viewBox="0 0 12 12" fill="none" xmlns="http://www.w3.org/2000/svg">
<path d="M7.34375 0H12V4.65625H10.6562V2.28125L4.125 8.8125L3.1875 7.875L9.71875 1.34375H7.34375V0ZM10.6562 10.6562V6H12V10.6562C12 11.0104 11.8646 11.3229 11.5938 11.5938C11.3229 11.8646 11.0104 12 10.6562 12H1.34375C0.96875 12 0.645833 11.8646 0.375 11.5938C0.125 11.3229 0 11.0104 0 10.6562V1.34375C0 0.989583 0.125 0.677083 0.375 0.40625C0.645833 0.135417 0.96875 0 1.34375 0H6V1.34375H1.34375V10.6562H10.6562Z" fill="#2A2C57"/>
</svg>
