<svg width="32" height="30" viewBox="0 0 32 30" fill="none" xmlns="http://www.w3.org/2000/svg">
<path d="M20.375 15C20.03 15 19.75 15.28 19.75 15.625C19.75 15.97 20.03 16.25 20.375 16.25C20.72 16.25 21 15.97 21 15.625C21 15.28 20.72 15 20.375 15Z" fill="white"/>
<path d="M26 25H25.2534L23.2187 13.5924C22.8399 11.5109 21.0295 10 18.9137 10H13.0863C10.9701 10 9.15988 11.5109 8.78156 13.5946L6.74662 25H6C4.96613 25 4.125 25.8411 4.125 26.875V29.375C4.125 29.7201 4.40481 30 4.75 30H27.25C27.5951 30 27.875 29.7201 27.875 29.375V26.875C27.875 25.8411 27.0339 25 26 25ZM10.0118 13.816C10.2817 12.3292 11.5748 11.25 13.0863 11.25H18.9137C20.4251 11.25 21.7183 12.3292 21.9884 13.8141L23.9836 25H8.01637L10.0118 13.816ZM26.625 28.75H5.375V26.875C5.375 26.5304 5.65538 26.25 6 26.25C7.40456 26.25 25.1489 26.25 26 26.25C26.3446 26.25 26.625 26.5304 26.625 26.875V28.75Z" fill="white"/>
<path d="M22.3896 23.0135L21.4727 17.9666C21.411 17.6269 21.0851 17.4014 20.7461 17.4634C20.4064 17.5251 20.1812 17.8504 20.2428 18.19L21.1597 23.2369C21.2218 23.5791 21.5498 23.8016 21.8863 23.7401C22.226 23.6784 22.4513 23.3531 22.3896 23.0135Z" fill="white"/>
<path d="M31.375 15H26C25.6549 15 25.375 15.2799 25.375 15.625C25.375 15.9701 25.6549 16.25 26 16.25H31.375C31.7201 16.25 32 15.9701 32 15.625C32 15.2799 31.7201 15 31.375 15Z" fill="white"/>
<path d="M6 15H0.625C0.279813 15 0 15.2799 0 15.625C0 15.9701 0.279813 16.25 0.625 16.25H6C6.34519 16.25 6.625 15.9701 6.625 15.625C6.625 15.2799 6.34519 15 6 15Z" fill="white"/>
<path d="M27.0487 4.57607C26.8045 4.33207 26.4089 4.33207 26.1647 4.57607L22.6291 8.11169C22.385 8.35575 22.385 8.7515 22.6291 8.99563C22.8733 9.23969 23.2688 9.23963 23.513 8.99563L27.0487 5.46C27.2928 5.21588 27.2928 4.82013 27.0487 4.57607Z" fill="white"/>
<path d="M9.37068 8.11171L5.83505 4.57609C5.59093 4.33209 5.19524 4.33203 4.95111 4.57609C4.70705 4.82015 4.70705 5.2159 4.95111 5.46003L8.48674 8.99565C8.73093 9.23972 9.12655 9.23972 9.37068 8.99565C9.61474 8.75159 9.61474 8.35584 9.37068 8.11171Z" fill="white"/>
<path d="M16 0C15.6549 0 15.375 0.279875 15.375 0.625V5.625C15.375 5.97013 15.6549 6.25 16 6.25C16.3451 6.25 16.625 5.97013 16.625 5.625V0.625C16.625 0.279875 16.3451 0 16 0Z" fill="white"/>
</svg>
