<svg width="69" height="66" viewBox="0 0 69 66" fill="none" xmlns="http://www.w3.org/2000/svg">
<path fill-rule="evenodd" clip-rule="evenodd" d="M20.0869 60.2611C20.0869 57.0915 22.6564 54.522 25.826 54.522C28.9957 54.522 31.5652 57.0915 31.5652 60.2611C31.5652 63.4307 28.9957 66.0002 25.826 66.0002C22.6564 66.0002 20.0869 63.4307 20.0869 60.2611Z" fill="white"/>
<path fill-rule="evenodd" clip-rule="evenodd" d="M51.6521 60.2611C51.6521 57.0915 54.2216 54.522 57.3912 54.522C60.5609 54.522 63.1304 57.0915 63.1304 60.2611C63.1304 63.4307 60.5609 66.0002 57.3912 66.0002C54.2216 66.0002 51.6521 63.4307 51.6521 60.2611Z" fill="white"/>
<path fill-rule="evenodd" clip-rule="evenodd" d="M0 2.86957C0 1.28475 1.28475 0 2.86957 0H14.3478C15.7155 0 16.8932 0.965279 17.1616 2.30639L19.5717 14.3478H66C66.8552 14.3478 67.6658 14.7293 68.211 15.3882C68.7561 16.0471 68.979 16.9149 68.8188 17.7549L64.2234 41.8521C63.8298 43.8338 62.7516 45.6139 61.1778 46.8808C59.6118 48.1415 57.6542 48.8141 55.6448 48.7826H27.8022C25.7927 48.8141 23.8352 48.1415 22.2692 46.8808C20.696 45.6144 19.6182 43.8352 19.2242 41.8545C19.224 41.8537 19.2243 41.8553 19.2242 41.8545L14.4304 17.9038C14.411 17.8246 14.3948 17.7441 14.3821 17.6624L11.9957 5.73913H2.86957C1.28475 5.73913 0 4.45438 0 2.86957ZM20.7204 20.087L24.8528 40.734C24.9841 41.3946 25.3434 41.9879 25.868 42.4103C26.3926 42.8326 27.0491 43.0569 27.7224 43.044L27.7774 43.0435H55.6696L55.7246 43.044C56.3979 43.0569 57.0543 42.8326 57.5789 42.4103C58.1011 41.9899 58.4596 41.4001 58.5923 40.7432L62.5315 20.087H20.7204Z" fill="white"/>
</svg>
