<svg width="13" height="13" viewBox="0 0 13 13" fill="none" xmlns="http://www.w3.org/2000/svg">
<path d="M2.30664 8.98633C3.76628 8.39258 5.16406 8.0957 6.5 8.0957C7.83594 8.0957 9.22135 8.39258 10.6562 8.98633C12.1159 9.55534 12.8457 10.3099 12.8457 11.25V12.8457H0.154297V11.25C0.154297 10.3099 0.871745 9.55534 2.30664 8.98633ZM8.72656 5.57227C8.10807 6.19076 7.36589 6.5 6.5 6.5C5.63411 6.5 4.89193 6.19076 4.27344 5.57227C3.65495 4.95378 3.3457 4.21159 3.3457 3.3457C3.3457 2.47982 3.65495 1.73763 4.27344 1.11914C4.89193 0.475911 5.63411 0.154297 6.5 0.154297C7.36589 0.154297 8.10807 0.475911 8.72656 1.11914C9.34505 1.73763 9.6543 2.47982 9.6543 3.3457C9.6543 4.21159 9.34505 4.95378 8.72656 5.57227Z" fill="white"/>
</svg>
