<svg width="30" height="29" viewBox="0 0 30 29" fill="none" xmlns="http://www.w3.org/2000/svg">
<path fill-rule="evenodd" clip-rule="evenodd" d="M15 0C15.519 0 15.993 0.294643 16.2228 0.760056L20.1194 8.65425L28.8335 9.92795C29.347 10.003 29.7734 10.363 29.9335 10.8567C30.0935 11.3503 29.9595 11.892 29.5878 12.2541L23.2834 18.3945L24.7713 27.0694C24.859 27.581 24.6487 28.0981 24.2287 28.4032C23.8087 28.7083 23.252 28.7485 22.7925 28.5068L15 24.4088L7.20745 28.5068C6.74802 28.7485 6.19127 28.7083 5.7713 28.4032C5.35133 28.0981 5.14099 27.581 5.22874 27.0694L6.71658 18.3945L0.412221 12.2541C0.0404702 11.892 -0.0935379 11.3503 0.0665222 10.8567C0.226582 10.363 0.652963 10.003 1.16645 9.92795L9.88056 8.65425L13.7772 0.760056C14.007 0.294643 14.481 0 15 0ZM15 4.44443L12.0092 10.5036C11.8107 10.9056 11.4273 11.1844 10.9836 11.2493L4.29332 12.2272L9.13329 16.9413C9.45493 17.2546 9.60174 17.7061 9.52584 18.1486L8.3839 24.8068L14.3653 21.6612C14.7626 21.4522 15.2374 21.4522 15.6347 21.6612L21.6161 24.8068L20.4742 18.1486C20.3983 17.7061 20.5451 17.2546 20.8667 16.9413L25.7067 12.2272L19.0164 11.2493C18.5727 11.1844 18.1893 10.9056 17.9908 10.5036L15 4.44443Z" fill="#292929"/>
</svg>
