<svg width="17" height="17" viewBox="0 0 17 17" fill="none" xmlns="http://www.w3.org/2000/svg">
<path d="M6.5332 10.4668C7.07747 11.0111 7.73307 11.2832 8.5 11.2832C9.26693 11.2832 9.92253 11.0111 10.4668 10.4668C11.0111 9.92253 11.2832 9.26693 11.2832 8.5C11.2832 7.73307 11.0111 7.07747 10.4668 6.5332C9.92253 5.98893 9.26693 5.7168 8.5 5.7168C7.73307 5.7168 7.07747 5.98893 6.5332 6.5332C5.98893 7.07747 5.7168 7.73307 5.7168 8.5C5.7168 9.26693 5.98893 9.92253 6.5332 10.4668ZM14.4004 9.2793L16.0703 10.5781C16.2435 10.7018 16.2682 10.875 16.1445 11.0977L14.5488 13.8438C14.4499 14.0169 14.2891 14.0664 14.0664 13.9922L12.0996 13.2129C11.5801 13.584 11.1348 13.8438 10.7637 13.9922L10.4668 16.0703C10.4173 16.293 10.2936 16.4043 10.0957 16.4043H6.9043C6.70638 16.4043 6.58268 16.293 6.5332 16.0703L6.23633 13.9922C5.76628 13.7943 5.32096 13.5345 4.90039 13.2129L2.93359 13.9922C2.71094 14.0664 2.55013 14.0169 2.45117 13.8438L0.855469 11.0977C0.731771 10.875 0.75651 10.7018 0.929688 10.5781L2.59961 9.2793C2.57487 9.10612 2.5625 8.84635 2.5625 8.5C2.5625 8.15365 2.57487 7.89388 2.59961 7.7207L0.929688 6.42188C0.75651 6.29818 0.731771 6.125 0.855469 5.90234L2.45117 3.15625C2.55013 2.98307 2.71094 2.93359 2.93359 3.00781L4.90039 3.78711C5.41992 3.41602 5.86523 3.15625 6.23633 3.00781L6.5332 0.929688C6.58268 0.707031 6.70638 0.595703 6.9043 0.595703H10.0957C10.2936 0.595703 10.4173 0.707031 10.4668 0.929688L10.7637 3.00781C11.2337 3.20573 11.679 3.46549 12.0996 3.78711L14.0664 3.00781C14.2891 2.93359 14.4499 2.98307 14.5488 3.15625L16.1445 5.90234C16.2682 6.125 16.2435 6.29818 16.0703 6.42188L14.4004 7.7207C14.4251 7.89388 14.4375 8.15365 14.4375 8.5C14.4375 8.84635 14.4251 9.10612 14.4004 9.2793Z" fill="white"/>
</svg>
