<svg width="65" height="62" viewBox="0 0 65 62" fill="none" xmlns="http://www.w3.org/2000/svg">
<path d="M64.8747 33.9834C64.291 28.1504 61.6685 22.6513 57.4899 18.499C53.9189 14.9507 49.5481 12.6705 44.9491 11.6566V8.45131C46.8275 7.98695 48.2237 6.29739 48.2237 4.28917C48.2237 1.92407 46.2874 0 43.9073 0H34.7665C32.3864 0 30.45 1.92407 30.45 4.28917C30.45 6.29726 31.8463 7.98682 33.7246 8.45131V11.6655C29.1396 12.6837 24.7833 14.9608 21.2224 18.4991C20.4432 19.2734 19.7246 20.0857 19.0669 20.9299C19.035 20.9275 19.0031 20.9251 18.9706 20.9251H9.92369C9.22265 20.9251 8.65414 21.4899 8.65414 22.1866C8.65414 22.8834 9.22265 23.4482 9.92369 23.4482H17.3394C16.4086 24.9967 15.658 26.6229 15.0867 28.2969H1.26955C0.568505 28.2969 0 28.8617 0 29.5585C0 30.2552 0.568505 30.82 1.26955 30.82H14.3693C14.0034 32.4159 13.7934 34.0401 13.7392 35.6689H8.12512C7.42408 35.6689 6.85557 36.2337 6.85557 36.9304C6.85557 37.6272 7.42408 38.1919 8.12512 38.1919H13.7797C13.8868 39.8248 14.151 41.4492 14.5724 43.0408H6.34775C5.64671 43.0408 5.0782 43.6056 5.0782 44.3024C5.0782 44.9991 5.64671 45.5639 6.34775 45.5639H15.3826C16.6281 48.8377 18.5744 51.9061 21.2224 54.5373C25.4051 58.6936 30.9449 61.3001 36.8211 61.877C37.6598 61.9593 38.4991 62 39.3373 62C44.2913 62 49.1824 60.5754 53.3325 57.8898C53.9201 57.5096 54.0863 56.7281 53.7036 56.1443C53.321 55.5604 52.5345 55.3953 51.9469 55.7755C42.8624 61.6538 30.696 60.3829 23.0178 52.7533C14.0089 43.8013 14.0089 29.2354 23.0178 20.2833C32.0267 11.3314 46.6853 11.3314 55.6944 20.2833C63.3624 27.9028 64.6484 39.982 58.7523 49.0047C58.3704 49.589 58.5376 50.3704 59.1255 50.7498C59.7138 51.1292 60.4999 50.9631 60.8817 50.3787C64.0319 45.5578 65.45 39.7353 64.8747 33.9834ZM32.9891 4.2893C32.9891 3.3154 33.7864 2.52317 34.7665 2.52317H43.9073C44.8874 2.52317 45.6846 3.3154 45.6846 4.2893C45.6846 5.26319 44.8874 6.05543 43.9073 6.05543H43.6795H34.9941H34.7665C33.7864 6.05543 32.9891 5.26307 32.9891 4.2893ZM36.2637 11.2318V8.57847H42.41V11.2273C40.369 10.9861 38.3042 10.9876 36.2637 11.2318Z" fill="white"/>
<path d="M56 52C55.736 52 55.479 52.1605 55.2931 52.4395C55.1061 52.7185 55 53.1055 55 53.5C55 53.8945 55.1061 54.2815 55.2931 54.5605C55.479 54.841 55.7361 55 56 55C56.263 55 56.52 54.841 56.707 54.5605C56.893 54.2815 57 53.8945 57 53.5C57 53.1055 56.8931 52.7185 56.707 52.4395C56.52 52.1605 56.2629 52 56 52Z" fill="white"/>
<path d="M39 17C27.972 17 19 25.7476 19 36.5C19 47.2524 27.972 56 39 56C50.028 56 59 47.2524 59 36.5C59 25.7476 50.028 17 39 17ZM39 53.486C29.3937 53.486 21.5785 45.866 21.5785 36.5C21.5785 27.134 29.3937 19.514 39 19.514C48.6063 19.514 56.4215 27.134 56.4215 36.5C56.4215 45.866 48.6063 53.486 39 53.486Z" fill="white"/>
<path d="M46.8228 26.3944L40.5057 33.0634C39.9775 32.7877 39.3833 32.6319 38.7551 32.6319C38.1269 32.6319 37.5328 32.7877 37.0045 33.0634L34.1773 30.0787C33.6792 29.5528 32.8718 29.5528 32.3735 30.0787C31.8755 30.6045 31.8755 31.4571 32.3735 31.9829L35.2007 34.9677C34.9394 35.5254 34.7919 36.1527 34.7919 36.8159C34.7919 39.123 36.5697 41 38.7551 41C40.9405 41 42.7183 39.123 42.7183 36.8159C42.7183 36.1527 42.5707 35.5254 42.3095 34.9677L48.4412 28.4942L48.6265 28.2986C49.1245 27.7728 49.1245 26.9202 48.6265 26.3944C48.1284 25.8685 47.3211 25.8685 46.8228 26.3944ZM38.7551 38.3071C37.9764 38.3071 37.3427 37.6382 37.3427 36.816C37.3427 35.9938 37.9764 35.3249 38.7551 35.3249C39.5339 35.3249 40.1675 35.9938 40.1675 36.816C40.1675 37.6382 39.5339 38.3071 38.7551 38.3071Z" fill="#DF1629"/>
<path d="M52.6332 36H51.3668C50.6121 36 50 36.4477 50 37C50 37.5523 50.6121 38 51.3668 38H52.6332C53.3879 38 54 37.5523 54 37C54 36.4477 53.3879 36 52.6332 36Z" fill="white"/>
<path d="M26.9748 36H26.0252C25.4591 36 25 36.2239 25 36.5C25 36.7761 25.4591 37 26.0252 37H26.9748C27.5409 37 28 36.7761 28 36.5C28 36.2239 27.5409 36 26.9748 36Z" fill="white"/>
<path d="M39.5 25C40.3283 25 41 24.541 41 23.9748V23.0252C41 22.459 40.3283 22 39.5 22C38.6717 22 38 22.459 38 23.0252V23.9748C38 24.541 38.6717 25 39.5 25Z" fill="white"/>
<path d="M39 48C38.4478 48 38 48.459 38 49.0252V49.9748C38 50.541 38.4478 51 39 51C39.5522 51 40 50.541 40 49.9748V49.0252C40 48.459 39.5522 48 39 48Z" fill="white"/>
<path d="M1.5 43C1.1055 43 0.7185 43.1605 0.4395 43.4395C0.1605 43.7185 0 44.1055 0 44.5C0 44.896 0.16035 45.2815 0.4395 45.5605C0.71865 45.8395 1.1055 46 1.5 46C1.8945 46 2.2815 45.8395 2.56035 45.5605C2.83935 45.2815 3 44.8945 3 44.5C3 44.1055 2.8395 43.7185 2.56035 43.4395C2.2815 43.1605 1.8945 43 1.5 43Z" fill="white"/>
</svg>
