<svg width="18" height="18" viewBox="0 0 18 18" fill="none" xmlns="http://www.w3.org/2000/svg">
<path d="M15.5364 18C15.4543 18 15.3722 18 15.29 18C12.6622 17.6712 10.0344 16.7671 7.81713 15.3699C5.76413 14.0548 3.95749 12.2466 2.64357 10.1918C1.24753 7.9726 0.344214 5.34247 0.0157343 2.71233C-0.0663856 2.05479 0.179974 1.39726 0.590574 0.90411C1.00117 0.410959 1.57601 0.0821918 2.23297 0C2.31509 0 2.39721 0 2.47933 0H4.94293C6.17473 0 7.24229 0.90411 7.40653 2.13699C7.48865 2.87671 7.65289 3.61644 7.89925 4.27397C8.22773 5.17808 8.06349 6.16438 7.40653 6.82192L6.74957 7.47945C7.73501 8.9589 8.96681 10.274 10.5271 11.2603L11.1019 10.6849C11.7589 10.0274 12.8264 9.78082 13.7298 10.1096C14.3867 10.3562 15.1258 10.5205 15.8649 10.6027C17.0967 10.7671 18 11.8356 18 13.0685V15.5342C18 16.1918 17.7536 16.8493 17.2609 17.2603C16.7682 17.6712 16.1934 18 15.5364 18ZM4.94293 1.64384H2.47933C2.15085 1.64384 1.98661 1.80822 1.82237 1.9726C1.74025 2.13699 1.65813 2.30137 1.65813 2.54795C1.90449 4.93151 2.72569 7.23288 4.03961 9.28767C5.27141 11.1781 6.83169 12.8219 8.72045 13.9726C10.7734 15.2877 13.0728 16.1096 15.4543 16.3562C15.7828 16.3562 15.947 16.274 16.1112 16.1096C16.2755 15.9452 16.3576 15.7808 16.3576 15.5342V13.0685C16.3576 12.6575 16.0291 12.3288 15.6185 12.2466C14.7973 12.1644 13.9761 11.9178 13.1549 11.589C12.8264 11.5069 12.498 11.5069 12.2516 11.7534L11.184 12.8219C10.9377 13.0685 10.5271 13.1507 10.1986 12.9863C7.98137 11.7534 6.17473 9.94521 4.94293 7.72603C4.86081 7.39726 4.94293 6.9863 5.18929 6.73973L6.25685 5.67123C6.50321 5.42466 6.58533 5.09589 6.42109 4.76712C6.09261 3.94521 5.92837 3.12329 5.76413 2.30137C5.68201 1.9726 5.35353 1.64384 4.94293 1.64384Z" fill="#2A2C57"/>
</svg>
