<svg width="52" height="47" viewBox="0 0 52 47" fill="none" xmlns="http://www.w3.org/2000/svg">
<path d="M29.8602 24.9029C29.8602 24.2014 29.6287 23.6168 29.1657 23.1492C28.587 22.5646 27.8926 22.3308 27.1981 22.4477L27.8926 21.7462C28.3555 21.2785 28.587 20.577 28.587 19.9924C28.587 19.4079 28.3555 18.7064 27.8926 18.2387C27.3139 17.6541 26.6194 17.4203 25.925 17.5372L26.6194 16.8357C27.0824 16.3681 27.3139 15.6666 27.3139 15.082C27.3139 14.4974 27.0824 13.7959 26.6194 13.3283C26.0407 12.7437 25.3463 12.5099 24.6519 12.6268L25.3463 11.9253C25.8093 11.4576 26.0407 10.7561 26.0407 10.1715C26.0407 9.58696 25.8093 8.88547 25.3463 8.41781C24.7676 7.83323 23.9574 7.5994 23.263 7.71632C23.4945 7.24865 23.6102 6.78099 23.6102 6.31333C23.6102 5.72875 23.3787 5.02726 22.9158 4.5596C22.3371 3.97502 21.4112 3.74119 20.601 3.85811V3.0397C20.601 1.63671 19.4436 0.584473 18.1704 0.584473C16.7816 0.584473 15.7399 1.75363 15.7399 3.0397V3.50736C14.9297 3.27353 14.0038 3.50736 13.4251 4.20885C12.6149 5.02726 12.4992 6.43025 13.0779 7.36557C12.3834 7.24865 11.5733 7.48249 10.9946 8.06706C10.0686 9.00239 10.0686 10.6392 10.9946 11.5745L11.689 12.276C10.9946 12.1591 10.1844 12.3929 9.72143 12.9775C8.79551 13.9128 8.79551 15.5497 9.72143 16.485L10.4159 17.1865C9.72143 17.0696 8.91125 17.3034 8.44829 17.888C7.52237 18.8233 7.52237 20.4601 8.44829 21.3954L9.14273 22.0969C8.44829 21.98 7.63811 22.2138 7.17515 22.7984C6.71219 23.2661 6.48071 23.9676 6.48071 24.5521C6.48071 31.0994 11.689 36.3606 18.1704 36.3606C24.5361 36.7114 29.8602 31.4502 29.8602 24.9029Z" fill="#0EC69A"/>
<path d="M18.055 37.296C11.3421 37.296 5.78662 31.6841 5.78662 24.903C5.78662 24.0846 6.13384 23.2662 6.71254 22.6816C7.05976 22.3309 7.40698 22.097 7.86994 21.9801C6.71254 20.811 6.82828 18.8234 7.98568 17.6542C8.3329 17.3035 8.68012 17.0697 9.14308 16.9527C7.98568 15.7836 8.10142 13.796 9.25882 12.6269C9.60604 12.2761 9.95326 12.0423 10.4162 11.9254C9.25882 10.6393 9.25882 8.76866 10.4162 7.59951C10.8792 7.13184 11.4579 6.89801 12.0366 6.7811C11.8051 5.72886 12.0366 4.5597 12.8468 3.7413C13.4255 3.15672 14.2356 2.92289 15.0458 2.80597C15.1616 1.28607 16.4347 0 18.055 0C19.7911 0 21.0643 1.28607 21.18 2.92289C21.9902 2.92289 22.8004 3.27363 23.3791 3.85821C23.9578 4.32587 24.305 5.14428 24.305 5.96269C24.305 6.19652 24.305 6.54727 24.1893 6.7811C24.768 6.89801 25.3467 7.13184 25.8096 7.59951C26.3883 8.18408 26.6198 9.00249 26.6198 9.8209C26.6198 10.6393 26.3883 11.3408 25.8096 11.9254C26.2726 12.0423 26.6198 12.2761 26.967 12.6269C27.5457 13.2115 27.8929 14.0299 27.8929 14.8483C27.8929 15.6667 27.6615 16.3682 27.0828 16.9527C27.5457 17.0697 27.8929 17.3035 28.2402 17.6542C28.8189 18.2388 29.1661 19.0572 29.1661 19.8756C29.1661 20.694 28.9346 21.3955 28.3559 21.9801C28.8189 22.097 29.1661 22.3309 29.5133 22.6816C30.092 23.2662 30.4392 23.9677 30.4392 24.7861C30.4392 31.6841 24.8837 37.296 18.055 37.296ZM6.94402 24.903C6.94402 31.0995 11.9208 36.1269 18.055 36.1269C24.1893 36.1269 29.1661 31.0995 29.1661 24.903C29.1661 24.903 29.1661 24.903 29.1661 24.7861C29.1661 24.3184 28.9346 23.8508 28.5874 23.5C28.2402 23.1493 27.6615 22.9154 27.0828 22.9154C26.8513 22.9154 26.6198 22.7985 26.5041 22.5647C26.3883 22.3309 26.3883 22.097 26.6198 21.8632L27.3142 21.1617C27.6615 20.811 27.8929 20.3433 27.8929 19.7587C27.8929 19.2911 27.6615 18.7065 27.3142 18.3557C26.967 18.005 26.3883 17.7712 25.8096 17.7712C25.5781 17.7712 25.3467 17.6542 25.2309 17.4204C25.1152 17.1866 25.1152 16.9527 25.3467 16.7189L26.0411 16.0174C26.3883 15.6667 26.6198 15.199 26.6198 14.6144C26.6198 14.1468 26.3883 13.5622 26.0411 13.2115C25.6939 12.8607 25.1152 12.6269 24.5365 12.6269C24.305 12.6269 24.0735 12.51 23.9578 12.2761C23.842 12.0423 23.842 11.8085 24.0735 11.5746L24.768 10.8731C25.3467 10.7562 25.4624 10.2886 25.4624 9.8209C25.4624 9.35324 25.2309 8.76866 24.8837 8.41792C24.4207 7.95025 23.842 7.83334 23.2633 7.83334C23.0319 7.83334 22.8004 7.71642 22.6846 7.59951C22.5689 7.36568 22.5689 7.13184 22.6846 7.01493C23.0319 6.66418 23.1476 6.31344 23.1476 5.96269C23.1476 5.49503 22.9161 4.91045 22.5689 4.5597C22.1059 4.09204 21.4115 3.85821 20.8328 4.09204C20.7171 4.09204 20.4856 4.09204 20.3698 3.97513C20.2541 3.85821 20.1384 3.7413 20.1384 3.50746V3.0398C20.1384 1.98756 19.3282 1.16915 18.2865 1.16915H18.1708C17.0134 1.16915 16.2032 1.98756 16.2032 3.0398V3.50746C16.2032 3.7413 16.0875 3.85821 15.9717 3.97513C15.856 4.09204 15.6245 4.09204 15.5088 4.09204C14.8143 3.97513 14.2356 4.09204 13.7727 4.5597C13.194 5.14428 13.0782 6.19652 13.5412 7.01493C13.6569 7.24876 13.6569 7.48259 13.5412 7.59951C13.4255 7.83334 13.194 7.95025 12.9625 7.83334C12.3838 7.71642 11.8051 7.95025 11.3421 8.41792C10.6477 9.11941 10.6477 10.4055 11.3421 11.107L12.0366 11.8085C12.1523 11.9254 12.2681 12.2761 12.1523 12.51C12.0366 12.8607 11.8051 12.9776 11.5736 12.8607C10.9949 12.8607 10.4162 12.9776 10.069 13.4453C9.37456 14.1468 9.37456 15.4328 10.069 16.1343L10.7634 16.8358C10.8792 16.9527 10.9949 17.3035 10.8792 17.5373C10.7634 17.7712 10.532 17.8881 10.3005 17.8881C9.72178 17.8881 9.14308 18.005 8.79586 18.4726C8.10142 19.1741 8.10142 20.4602 8.79586 21.1617L9.4903 21.8632C9.60604 21.9801 9.72178 22.3309 9.60604 22.5647C9.4903 22.7985 9.25882 22.9154 9.02734 22.9154C8.44864 22.9154 7.86994 23.0324 7.52272 23.5C7.1755 23.8508 6.94402 24.3184 6.94402 24.903Z" fill="#2A2C57"/>
<path d="M36.3417 25.9551C36.3417 35.1914 28.3557 42.5571 18.5178 42.5571C8.67992 42.5571 0.578125 35.0745 0.578125 25.9551H36.3417Z" fill="white"/>
<path d="M18.4026 43.1418C8.21753 43.1418 0 35.4253 0 25.9552V25.3706H36.921V25.9552C36.921 35.4253 28.5877 43.1418 18.4026 43.1418ZM1.1574 26.5398C1.50462 35.0746 9.14345 41.9726 18.4026 41.9726C27.7776 41.9726 35.3007 35.0746 35.6479 26.5398H1.1574Z" fill="#2A2C57"/>
<path d="M23.7271 39.6344C23.4956 39.6344 23.2641 39.5175 23.1484 39.2837C23.0326 38.9329 23.1484 38.6991 23.4956 38.5822C28.2409 36.8284 31.7131 32.9702 32.5233 28.4105C32.6391 28.0598 32.8705 27.9429 33.2178 27.9429C33.565 28.0598 33.6807 28.2936 33.6807 28.6444C32.7548 33.6717 28.9354 37.8807 23.8428 39.7513C23.8428 39.6344 23.7271 39.6344 23.7271 39.6344Z" fill="#2A2C57"/>
<path d="M26.8514 46.2986H10.0691V44.428C10.0691 42.7912 11.458 41.3882 13.0783 41.3882H24.6523C25.8097 41.3882 26.7356 42.3235 26.7356 43.4927V46.2986H26.8514Z" fill="white"/>
<path d="M27.4306 46.8833H9.49097V44.4281C9.49097 42.4405 11.1113 40.8037 13.0789 40.8037H24.6529C26.1575 40.8037 27.3149 41.9729 27.3149 43.4928V46.8833H27.4306ZM10.6484 45.7142H26.2732V43.4928C26.2732 42.6744 25.5788 41.9729 24.7686 41.9729H13.1946C11.8058 41.9729 10.7641 43.142 10.7641 44.4281V45.7142H10.6484Z" fill="#2A2C57"/>
<path d="M50.6934 11.6914C50.6934 8.88546 48.4943 6.66406 45.7166 6.66406C42.9388 6.66406 40.7397 8.88546 40.7397 11.6914L42.4758 43.6094C42.5916 45.2462 43.8647 46.4153 45.4851 46.4153H46.0638C47.6841 46.4153 48.9573 45.1293 49.073 43.6094L50.6934 11.6914Z" fill="white"/>
<path d="M46.0644 47H45.4857C43.6338 47 42.0135 45.4801 41.8977 43.6095C40.1616 11.6915 40.1616 11.6915 40.1616 11.6915C40.1616 8.53482 42.7079 6.07959 45.7171 6.07959C48.8421 6.07959 51.2726 8.65173 51.2726 11.6915C51.2726 11.6915 51.2726 11.8084 49.5365 43.6095C49.5365 45.4801 47.9162 47 46.0644 47ZM45.7171 7.24874C43.2866 7.24874 41.319 9.23631 41.319 11.6915C41.319 11.9254 43.0551 43.2587 43.0551 43.6095C43.1709 44.8955 44.2125 45.9478 45.4857 45.9478H46.0644C47.3375 45.9478 48.3792 44.8955 48.4949 43.6095C48.4949 43.2587 50.1152 12.5099 50.231 11.6915C50.1152 9.23631 48.1477 7.24874 45.7171 7.24874Z" fill="#2A2C57"/>
</svg>
