<svg width="34" height="43" viewBox="0 0 34 43" fill="none" xmlns="http://www.w3.org/2000/svg">
<path d="M29.2344 42.4276H5.06591C2.45617 42.4276 0.300293 40.2717 0.300293 37.662V0.785156H34V37.662C34 40.2717 31.8442 42.4276 29.2344 42.4276ZM1.43496 1.91983V37.662C1.43496 39.7044 3.0235 41.2929 5.06591 41.2929H29.3479C31.3903 41.2929 32.9788 39.7044 32.9788 37.662V1.91983H1.43496Z" fill="#2A2C57"/>
<path d="M5.74652 22.9111C6.65426 22.9111 7.44853 23.0246 8.12933 23.365C9.03707 19.8475 12.3276 17.2378 16.1855 17.2378C18.9087 17.2378 21.2915 18.4859 22.7666 20.5283C23.3339 20.3014 23.9013 20.1879 24.4686 20.1879C26.8514 20.1879 28.7803 21.663 29.6881 23.7054C30.3689 23.2516 31.1632 22.9111 32.0709 22.9111C32.5248 22.9111 32.9786 23.0246 33.319 23.1381V37.6619C33.319 39.9312 31.5036 41.8602 29.1207 41.8602H5.06572C2.79637 41.8602 0.867432 40.0447 0.867432 37.6619V25.067C2.11557 23.7054 3.81758 22.9111 5.74652 22.9111Z" fill="#0EC69A"/>
<path d="M29.2344 42.4275H5.06591C2.45617 42.4275 0.300293 40.2716 0.300293 37.6618V25.067C0.300293 24.9535 0.300293 24.84 0.41376 24.7266C2.22923 22.6842 5.17938 21.8899 7.78912 22.6842C9.03726 19.1667 12.4413 16.6704 16.1857 16.6704C18.7954 16.6704 21.2917 17.8051 22.9937 19.8475C23.4476 19.734 24.0149 19.6206 24.5823 19.6206C26.8516 19.6206 28.894 20.8687 30.0287 22.9111C31.0499 22.3438 32.298 22.2303 33.5462 22.6842C33.7731 22.7976 33.8866 23.0246 33.8866 23.2515V37.7753C34 40.2716 31.8442 42.4275 29.2344 42.4275ZM1.43496 25.2939V37.6618C1.43496 39.7042 3.0235 41.2928 5.06591 41.2928H29.3479C31.3903 41.2928 32.9788 39.7042 32.9788 37.6618V23.4784C31.9576 23.2515 31.0499 23.4784 30.2556 24.0458C30.1421 24.1592 29.9152 24.1592 29.8017 24.1592C29.6883 24.1592 29.4613 24.0458 29.4613 23.8188C28.6671 21.8899 26.8516 20.6418 24.8092 20.6418C24.2419 20.6418 23.788 20.7552 23.2207 20.8687C22.9937 20.9822 22.7668 20.8687 22.5399 20.6418C21.0648 18.7128 18.7954 17.5781 16.4126 17.5781C12.7817 17.8051 9.71807 20.0744 8.81033 23.4784C8.81033 23.5919 8.69686 23.8188 8.46993 23.8188C8.35646 23.9323 8.12953 23.9323 8.01606 23.8188C5.74672 23.0246 3.13697 23.5919 1.43496 25.2939Z" fill="#2A2C57"/>
<path d="M33.4327 8.84121H0.867629C0.527227 8.84121 0.300293 8.61428 0.300293 8.27388C0.300293 7.93348 0.527227 7.70654 0.867629 7.70654H33.4327C33.7731 7.70654 34 7.93348 34 8.27388C34 8.61428 33.7731 8.84121 33.4327 8.84121Z" fill="#2A2C57"/>
<path d="M33.4324 6.34512H12.6679C12.3275 6.34512 12.1006 6.11819 12.1006 5.77778C12.1006 5.43738 12.3275 5.21045 12.6679 5.21045H33.4324C33.7728 5.21045 33.9997 5.43738 33.9997 5.77778C33.9997 6.11819 33.7728 6.34512 33.4324 6.34512Z" fill="#2A2C57"/>
<path d="M16.413 34.1446C16.0726 34.1446 15.8457 33.9177 15.8457 33.5773C15.8457 33.2369 16.0726 33.01 16.413 33.01C20.6113 33.01 24.0153 29.606 24.0153 25.4077C24.0153 25.0673 24.2423 24.8403 24.5827 24.8403C24.9231 24.8403 25.15 25.0673 25.15 25.4077C25.15 30.1733 21.1787 34.1446 16.413 34.1446Z" fill="#2A2C57"/>
<path d="M9.71808 38.7964C8.35648 38.7964 7.10834 38.2291 6.08713 37.3213C5.06593 36.3001 4.61206 35.052 4.61206 33.6904C4.61206 33.35 4.839 33.123 5.1794 33.123C5.5198 33.123 5.74673 33.35 5.74673 33.6904C5.74673 34.7116 6.2006 35.7328 6.8814 36.5271C7.67567 37.3213 8.58341 37.6617 9.71808 37.6617C10.0585 37.6617 10.2854 37.8887 10.2854 38.2291C10.2854 38.5695 10.0585 38.7964 9.71808 38.7964Z" fill="#2A2C57"/>
</svg>
