<svg width="100" height="100" viewBox="0 0 100 100" fill="none" xmlns="http://www.w3.org/2000/svg">
<path d="M98.7799 42.7098C97.7268 41.1638 96.1305 40.0984 94.2745 39.6945C95.4718 37.4681 95.423 34.6902 93.8979 32.4517C92.813 30.8582 91.1764 29.829 89.3948 29.4394C89.7125 28.8502 89.9473 28.2143 90.0876 27.5438C90.4766 25.679 90.0969 23.7788 89.0159 22.1928C87.9627 20.646 86.3664 19.5806 84.5104 19.1775C85.7077 16.9511 85.6589 14.1732 84.1338 11.9339C81.9044 8.66023 77.3493 7.75987 73.9815 9.92827L66.6894 14.6237C62.8024 12.707 58.6682 11.347 54.3774 10.5725C53.0213 8.57057 51.4443 6.70957 49.679 5.04596L46.6622 2.20322C44.4529 0.120708 40.9882 -0.191971 38.4232 1.46033C35.3886 3.41401 34.5548 7.40424 36.5642 10.3547C36.6432 10.4715 36.7207 10.589 36.7974 10.7066C26.9086 12.652 17.8962 17.7543 11.2256 25.2307C3.987 33.3445 0 43.736 0 54.4907C0 56.5521 0.144911 58.6173 0.431634 60.6274C2.64095 76.2546 13.3473 89.7216 28.3716 95.774C33.9434 98.0193 39.8553 99.1585 45.9408 99.1585C55.5785 99.1585 64.804 96.2886 72.6207 90.8601C80.2677 85.5483 85.989 78.2181 89.167 69.662C89.4638 68.8648 89.0383 67.9841 88.2185 67.6962C87.3978 67.4084 86.4927 67.8213 86.1967 68.6192C83.2372 76.5869 77.9081 83.4131 70.7842 88.3609C63.5068 93.4158 54.916 96.0875 45.9408 96.0875C41.3005 96.0875 36.7695 95.3755 32.433 93.9711L45.2829 85.6975C45.2836 85.6967 45.2844 85.6967 45.2852 85.696C45.286 85.696 45.286 85.6952 45.2867 85.6945L55.966 78.8186H55.9668C56.9254 78.2007 57.5802 77.2574 57.8096 76.1612C58.0389 75.0649 57.8158 73.9468 57.1803 73.0148L57.0393 72.8068L59.1138 71.471C60.5939 70.5179 62.3739 70.1442 64.1268 70.4177C66.6646 70.814 69.2421 70.2715 71.384 68.892L88.5904 57.8133C88.4726 59.2645 88.2789 60.7073 88.0085 62.126C87.8488 62.9601 88.4153 63.7618 89.2731 63.9162C89.37 63.9343 89.4677 63.9426 89.563 63.9426C90.3092 63.9426 90.9726 63.4257 91.1136 62.6866C91.5514 60.3969 91.8033 58.0514 91.8684 55.7029L96.7171 52.5807C98.3483 51.5304 99.4619 49.9248 99.8509 48.0608C100.241 46.196 99.8602 44.2958 98.7799 42.7098ZM63.6231 16.5977L58.7976 19.7049L57.8475 17.2163C57.4508 16.1781 56.9959 15.1602 56.4922 14.1641C58.9402 14.7676 61.3238 15.5814 63.6231 16.5977ZM13.6116 27.2431C20.0226 20.0576 28.7552 15.2272 38.3085 13.5523C39.8413 17.1628 40.2086 21.1968 39.2927 25.0416L35.4421 41.2157C34.8368 40.5874 34.0511 40.1541 33.1661 39.9793C32.0378 39.7556 30.8886 39.9733 29.93 40.5911L19.0229 47.6132C19.0221 47.6132 19.0221 47.6132 19.0214 47.614C19.0214 47.614 19.0206 47.614 19.0206 47.6147L3.28957 57.7433C3.20355 56.6643 3.1586 55.5771 3.1586 54.4907C3.1586 44.4759 6.87128 34.7987 13.6116 27.2431ZM54.7145 75.5486C54.6533 75.841 54.4781 76.0934 54.2216 76.2584H54.2224L44.8427 82.2972L27.434 57.0546C26.9481 56.3501 25.967 56.1625 25.2425 56.6349C24.5187 57.1074 24.325 58.0605 24.8108 58.7649L42.2087 83.9932L28.8188 92.6149C15.5133 86.9565 5.99174 75.0069 3.7026 61.1021L19.4522 50.9947L21.2648 53.6242C21.5701 54.0657 22.0691 54.3046 22.5783 54.3046C22.8805 54.3046 23.1866 54.2209 23.4563 54.0446C24.1808 53.5722 24.3746 52.6183 23.8887 51.9139L22.0885 49.3032L31.6744 43.1513C31.9293 42.9863 32.2354 42.9291 32.5361 42.9886C32.8368 43.0481 33.0964 43.2184 33.2661 43.467L54.5471 74.7108C54.716 74.9587 54.7757 75.2563 54.7145 75.5486ZM96.7558 47.449C96.5342 48.5098 95.9011 49.423 94.9727 50.0205L89.4297 53.5895C89.4281 53.5903 89.4266 53.5918 89.4243 53.5925L69.6396 66.3318C68.1595 67.2849 66.3795 67.6593 64.6266 67.3851C62.0895 66.9895 59.5121 67.5312 57.3694 68.9108L55.2949 70.2466L37.8653 44.6575L42.3707 25.7348C43.5308 20.86 42.9193 15.7253 40.7092 11.2521C40.6891 11.2054 40.6674 11.1602 40.6426 11.1157C40.2179 10.2703 39.7359 9.44984 39.1974 8.65872C38.1497 7.12019 38.5844 5.03994 40.1676 4.02053C41.5051 3.15934 43.3122 3.32209 44.4638 4.4078L47.4806 7.25129C50.7438 10.3276 53.3049 14.143 54.8858 18.2855L56.5286 22.5884C56.5317 22.5967 56.5348 22.6034 56.5379 22.611C56.5418 22.6208 56.5464 22.6313 56.5503 22.6411C56.5619 22.6675 56.5728 22.6916 56.5844 22.7119C56.6162 22.7767 56.651 22.8408 56.6929 22.9018C57.1749 23.6093 58.1544 23.8029 58.8813 23.3343L75.7259 12.4892C77.6415 11.2558 80.2321 11.7674 81.5006 13.6299C82.7692 15.4924 82.243 18.0112 80.3274 19.2446L78.8651 20.1864C78.8651 20.1864 78.8643 20.1864 78.8635 20.1872L75.6019 22.2878C75.5972 22.2908 75.5941 22.2938 75.5895 22.296C75.5709 22.3088 75.5531 22.3209 75.5383 22.333C74.8642 22.8144 74.6898 23.7298 75.1571 24.4155C75.6383 25.123 76.6186 25.3166 77.3462 24.8479L80.6102 22.7458C81.5378 22.1499 82.6483 21.9397 83.7386 22.1551C84.8289 22.3706 85.7689 22.9862 86.3827 23.8888C86.9972 24.7907 87.2142 25.8719 86.9925 26.932C86.7709 27.9928 86.1378 28.906 85.2094 29.5035L80.4839 32.5466C79.7563 33.0145 79.5571 33.9669 80.0391 34.6744C80.3429 35.1204 80.845 35.3622 81.3573 35.3622C81.6564 35.3622 81.9594 35.2794 82.2275 35.1068L82.959 34.6359L85.49 33.0062C87.4063 31.7728 89.9961 32.2844 91.2647 34.1469C92.5333 36.0102 92.0071 38.5282 90.0915 39.7623L87.731 41.282C87.7186 41.2896 87.7062 41.2979 87.6938 41.3062L85.366 42.8048C84.6383 43.2726 84.4391 44.2257 84.9212 44.9332C85.2249 45.3793 85.7271 45.6211 86.2393 45.6211C86.5384 45.6211 86.8414 45.5382 87.1096 45.3657L87.8411 44.8948C87.8411 44.8948 87.8411 44.894 87.8419 44.894L90.3728 43.2651C91.3004 42.6676 92.4116 42.4567 93.5027 42.6729C94.5938 42.8876 95.533 43.5039 96.1475 44.4058C96.7613 45.3077 96.9775 46.3889 96.7558 47.449Z" fill="white"/>
</svg>
