<svg width="18" height="17" viewBox="0 0 18 17" fill="none" xmlns="http://www.w3.org/2000/svg">
<path d="M5.3186 17C4.00955 17 2.61869 16.5166 1.55508 15.4692C-0.572119 13.3744 -0.490303 9.99052 1.6369 7.9763C3.51866 6.20379 6.3822 6.04265 8.42759 7.49289L15.791 0.241706C16.1182 -0.0805687 16.6091 -0.0805687 16.9364 0.241706C17.2637 0.563981 17.2637 1.04739 16.9364 1.36967L15.8728 2.49763L17.7546 4.35071C18.0818 4.67299 18.0818 5.1564 17.7546 5.47867L14.891 8.29858C14.5637 8.62085 14.0729 8.62085 13.7456 8.29858L11.8638 6.4455L9.65482 8.62085C11.2093 10.6351 11.0457 13.5355 9.16393 15.3886C8.10032 16.5166 6.70946 17 5.3186 17ZM5.40041 8.21801C4.50044 8.21801 3.51866 8.54028 2.86413 9.2654C1.39145 10.6351 1.39145 12.9716 2.78232 14.4218C4.255 15.872 6.62765 15.872 8.01851 14.4218C9.40937 12.9716 9.40937 10.7156 8.01851 9.2654C7.20035 8.54028 6.30038 8.21801 5.40041 8.21801ZM13.0093 5.31754L14.3183 6.60664L16.0364 4.91469L14.7274 3.62559L13.0093 5.31754Z" fill="#2A2C57"/>
</svg>
