<svg width="287" height="324" viewBox="0 0 287 324" fill="none" xmlns="http://www.w3.org/2000/svg">
<path d="M132.982 0C125.957 17.5804 125.131 44.3247 130.122 66.8897C137.781 67.1198 149.739 67.2731 149.451 67.4649C149.086 67.7141 157.436 47.0471 158.876 42.5801C153.309 26.5527 145.113 12.2698 135.209 2.18556C134.479 1.43787 133.75 0.709349 132.982 0ZM252.315 19.0566C227.842 24.463 189.491 45.9351 170.296 68.2509C177.187 68.6343 189.184 69.4204 190.835 69.2478C188.742 70.2639 170.181 83.8949 170.335 83.454C170.488 82.9938 176.938 105.731 177.974 107.898C176.266 106.191 156.898 92.2921 157.378 92.3112C157.858 92.3112 138.395 104.696 136.706 106.249C137.742 104.178 144.326 81.9586 144.48 82.4187C133.923 71.5484 97.7406 42.676 67.5283 34.3172C73.3251 55.9427 83.3638 77.4149 98.2013 93.5382C101.944 93.6341 106.935 93.7108 106.8 93.7875C106.589 93.9217 111.446 82.0544 111.196 82.0544C110.947 82.0353 114.843 94.2476 114.632 94.0942C114.44 93.9408 127.224 94.8802 127.166 94.6502C127.089 94.4009 116.667 101.878 116.763 101.648C116.858 101.418 119.91 113.86 120.122 113.707C120.333 113.573 110.006 105.961 110.236 105.981C110.486 105.981 99.5833 112.748 99.7945 112.902C99.9672 113.036 102.923 104.217 103.825 101.782C84.1892 100.996 58.3149 104.409 40.9629 111.732C47.9114 116.429 57.1248 120.551 66.7413 123.829H46.203C46.203 126.149 49.0055 127.127 50.9633 127.127C120.102 127.127 189.222 127.127 258.361 127.127C244.829 117.714 227.304 110.658 208.858 107.054C209.722 110.352 210.663 113.937 210.778 113.86C210.989 113.726 200.662 106.115 200.912 106.134C201.161 106.134 190.259 112.902 190.47 113.055C190.662 113.208 194.693 101.053 194.769 101.284C194.846 101.533 185.038 93.2506 184.961 93.4807C184.865 93.7108 197.706 93.7875 197.495 93.9408C197.284 94.075 202.121 82.227 201.891 82.2078C201.641 82.1886 205.518 94.4009 205.327 94.2476C205.25 94.1901 207.457 94.3051 209.952 94.4585C227.324 76.3988 246.345 44.8232 252.315 19.0566ZM31.999 123.81C31.999 126.13 34.8014 127.108 36.7593 127.108H42.4985C42.4985 124.788 39.6769 123.81 37.7382 123.81H31.999Z" fill="#DF1629"/>
<path d="M0.999888 148.867C0.903915 153.392 5.93291 156.306 9.56069 156.306C19.5227 156.306 22.9202 156.325 32.1912 156.325C32.2871 151.801 27.2581 148.887 23.6304 148.887C13.6683 148.867 10.4245 148.867 0.999888 148.867ZM36.9322 148.867C36.8363 153.392 41.8461 156.306 45.493 156.306L126.226 156.383C128.452 156.383 134.767 155.443 135.535 164.914H122.617C122.617 167.176 125.074 168.212 127.089 168.212H219.972C215.826 161.617 211.143 154.964 206.075 148.906V148.887C147.455 148.906 90.5044 148.867 36.9322 148.867ZM96.3588 164.914C96.3588 167.234 99.1804 168.212 101.119 168.212H103.154C103.154 165.892 100.351 164.914 98.3934 164.914H96.3588ZM106.417 164.914C106.417 167.234 109.219 168.212 111.177 168.212H118.471C118.471 165.892 115.649 164.914 113.711 164.914H106.417Z" fill="#B20B1B"/>
<path d="M87.6252 189.971C87.6252 192.291 90.4277 193.269 92.3855 193.269H108.087C108.087 190.949 105.265 189.971 103.326 189.971H87.6252ZM112.425 189.971C112.425 191.62 114.267 193.269 116.916 193.269H135.247C139.24 193.269 141.524 194.323 142.541 197.353C146.61 208.951 152.369 220.186 159.739 229.983C164.308 220.704 167.84 205.366 169.279 189.971C150.334 189.971 131.37 189.971 112.425 189.971ZM202.025 189.971C213.062 195.895 225.04 200.42 237.055 203.641C236.173 200.228 234.368 195.455 231.854 189.971H202.025Z" fill="#B20B1B"/>
<path d="M15.4919 292.022C18.7934 296.719 24.9357 298.904 31.3659 298.904C40.9632 298.904 48.7562 293.153 48.8522 283.471C49.0634 265.527 24.3791 273.08 24.4942 260.465C24.5518 257.359 26.836 252.854 34.3027 252.854C38.18 252.854 41.5007 254.618 43.1514 257.225L48.6987 252.221C45.0133 247.639 39.7923 246.508 34.3603 246.508C22.402 246.508 17.3922 254.618 17.2962 260.465C17.0851 279.905 41.7694 272.773 41.6542 284.257C41.5966 289.779 36.0686 292.578 31.6346 292.578C27.6229 292.578 23.4577 290.871 21.116 287.21L15.4919 292.022Z" fill="#292929"/>
<path d="M64.8797 297.639H71.713L79.9283 272.716H80.0818L88.6234 297.639H95.0536L106.206 264.261H99.4876L92.0209 289.184H91.9057L83.7288 264.261H77.0107L68.7954 289.184H68.6418L61.3479 264.261H54.2458L64.8797 297.639Z" fill="#292929"/>
<path d="M112.713 297.639H119.066L119.431 264.261H113.077L112.713 297.639ZM111.714 252.298C111.676 254.848 113.787 256.938 116.34 256.938C118.893 256.938 120.985 254.848 121.024 252.298C121.062 249.748 118.989 247.659 116.436 247.659C113.883 247.659 111.753 249.748 111.714 252.298Z" fill="#292929"/>
<path d="M132.387 297.639H138.74L139.048 269.744H146.668L146.725 264.261H139.163L139.259 256.554C139.297 251.915 140.122 249.039 144.787 249.039C146.054 249.039 147.167 249.192 148.357 249.672L149.144 244.035C147.378 243.613 145.842 243.518 144.441 243.518C136.13 243.518 132.944 247.889 132.867 256.765L132.771 264.261H125.573L125.515 269.744H132.713L132.387 297.639Z" fill="#292929"/>
<path d="M172.504 264.28H163.406L163.502 254.906H157.148L157.052 264.28H149.739L149.681 269.764H156.995L156.822 287.171C156.764 292.501 156.841 298.502 166.649 298.502C167.916 298.502 170.872 298.233 172.35 297.39L172.408 291.6C171.141 292.386 169.375 292.597 167.916 292.597C163.118 292.597 163.156 288.648 163.214 284.89L163.367 269.764H172.446L172.504 264.28Z" fill="#292929"/>
<path d="M265.329 247.141C261.682 247.141 258.189 247.793 254.887 249.097C251.624 250.4 248.745 252.202 246.25 254.561H246.231C243.735 256.88 241.777 259.66 240.376 262.881C238.975 266.102 238.284 269.514 238.284 273.119C238.284 276.723 238.975 280.155 240.376 283.375V283.395C240.376 283.395 240.376 283.414 240.395 283.414C241.797 286.577 243.735 289.338 246.231 291.677C248.668 293.977 251.49 295.76 254.657 297.045H254.695L254.83 297.121H254.868V297.141H254.887C258.208 298.387 261.682 299.019 265.329 299.019C269.283 299.019 273.065 298.195 276.616 296.585L276.673 296.546C280.224 294.878 283.276 292.539 285.772 289.568L286.194 289.069L277.787 281.957L277.364 282.436C275.886 284.085 274.082 285.427 271.99 286.405H271.971V286.424C269.859 287.363 267.652 287.862 265.348 287.862C263.544 287.862 261.817 287.459 260.147 286.884H259.801L259.552 286.769L259.494 286.75C257.671 286.002 256.116 284.967 254.791 283.701C254.791 283.701 254.791 283.701 254.791 283.682L254.772 283.663H254.753V283.644C253.409 282.302 252.392 280.73 251.624 278.947H251.605C250.837 277.106 250.473 275.17 250.473 273.099C250.473 271.259 250.895 269.572 251.49 267.961V267.616L251.605 267.31C252.373 265.469 253.429 263.878 254.772 262.536C256.116 261.194 257.709 260.159 259.533 259.449L259.782 259.315H260.185C261.836 258.702 263.544 258.299 265.348 258.299C267.402 258.299 269.341 258.817 271.203 259.564C271.433 259.66 271.683 259.622 271.894 259.718L271.222 259.564H271.587L271.913 259.718C274.024 260.657 275.829 261.98 277.307 263.629L277.748 264.127L286.136 257.014L285.714 256.497C283.891 254.388 281.722 252.586 279.226 251.09L279.207 251.071C276.788 249.557 274.351 248.521 271.913 247.985L271.875 247.965H271.855C269.379 247.448 267.23 247.141 265.329 247.141ZM254.83 297.121C254.772 297.083 254.715 297.064 254.657 297.045H254.619L254.83 297.121ZM185.864 247.927V298.253H205.173C210.452 298.253 215.116 297.313 219.147 295.396L219.185 295.377C223.235 293.402 226.364 290.488 228.552 286.673V286.654C228.552 286.654 228.552 286.654 228.552 286.635C230.721 282.781 231.815 278.276 231.815 273.176C231.815 269.591 231.24 266.255 230.069 263.169C230.069 263.169 230.05 263.169 230.05 263.149C228.898 260.044 227.17 257.321 224.905 255.059C222.64 252.797 219.8 251.014 216.441 249.768C213.082 248.521 209.3 247.889 205.097 247.889H185.864V247.927ZM272.067 248.023C272.163 248.042 272.259 248.061 272.259 248.061C272.259 248.061 272.451 248.042 272.431 248.042C272.431 248.042 272.201 248.023 272.067 248.023ZM198.033 259.104H204.406C209.415 259.104 213.158 260.235 215.73 262.459V262.478C218.264 264.606 219.569 268.153 219.569 273.214C219.569 278.18 218.245 281.688 215.73 283.816C213.158 285.983 209.454 287.095 204.482 287.095H198.033V259.104Z" fill="#292929"/>
<path opacity="0.8" d="M116.974 311.136C115.304 311.136 114.172 311.5 113.423 312.267C112.674 313.015 112.329 314.107 112.118 315.43L111.408 319.59C111.177 320.913 111.158 321.987 111.638 322.735C112.118 323.501 113.135 323.866 114.805 323.866C116.494 323.866 117.607 323.482 118.356 322.735C119.105 321.968 119.412 320.913 119.642 319.59L120.352 315.43C120.583 314.107 120.621 313.034 120.141 312.267C119.642 311.5 118.644 311.136 116.974 311.136ZM23.6305 311.174C22.5172 311.193 21.5959 311.481 20.8857 312.094C20.1755 312.708 19.734 313.609 19.5421 314.721L19.5037 314.951H21.4231L21.4615 314.721C21.5767 313.992 21.8262 313.59 22.1333 313.34C22.4404 313.091 22.8435 312.957 23.3234 312.957C23.8608 312.957 24.2064 313.11 24.4175 313.34C24.6286 313.59 24.6862 313.935 24.6094 314.433C24.5327 314.913 24.2064 315.315 23.7841 315.622C23.381 315.929 22.9011 316.12 22.5364 316.12H21.4231L21.116 317.942H22.2293C22.7476 317.942 23.1698 318.076 23.4386 318.363C23.7073 318.67 23.8417 319.13 23.7073 319.935C23.5729 320.702 23.3426 321.162 23.0355 321.45C22.7284 321.718 22.3061 321.853 21.7111 321.853C21.0968 321.853 20.7705 321.718 20.5786 321.469C20.4058 321.22 20.3482 320.779 20.4634 320.108L20.5018 319.859H18.5439L18.5055 320.108C18.3136 321.277 18.3712 322.217 18.8511 322.85C19.3309 323.482 20.1755 323.789 21.4039 323.789C22.594 323.789 23.6113 323.425 24.3599 322.735C25.1277 322.044 25.5884 321.067 25.7803 319.916C25.9147 319.073 25.8955 318.402 25.646 317.903C25.4348 317.462 25.0125 317.213 24.5327 316.983C25.6268 316.37 26.3753 315.334 26.5289 314.452C26.7208 313.379 26.4905 312.535 25.9531 311.979C25.4156 311.423 24.5902 311.174 23.6689 311.174H23.6305ZM101.945 311.193C100.659 311.193 99.6413 311.5 98.8927 312.114C98.1633 312.746 97.741 313.647 97.549 314.778C97.3379 315.986 97.645 316.791 98.2017 317.309C98.7391 317.827 99.4877 318.038 100.217 318.095C100.946 318.153 101.618 318.191 102.021 318.421C102.405 318.651 102.616 319.015 102.444 319.935C102.328 320.606 102.156 321.105 101.887 321.393C101.618 321.68 101.215 321.853 100.447 321.853H100.14C99.4109 321.853 99.0462 321.68 98.8351 321.412C98.6239 321.143 98.5664 320.76 98.6047 320.3L98.6239 320.07H96.5509L96.5125 320.338C96.3782 321.393 96.5893 322.274 97.1268 322.888C97.6834 323.501 98.5664 323.789 99.8332 323.789H100.14C101.407 323.789 102.405 323.501 103.135 322.83C103.864 322.159 104.267 321.182 104.497 319.878C104.709 318.593 104.497 317.712 103.998 317.156C103.499 316.6 102.789 316.389 102.079 316.312C101.33 316.235 100.62 316.197 100.179 316.005C99.9484 315.909 99.814 315.794 99.6988 315.603C99.6029 315.411 99.5645 315.162 99.6221 314.778C99.718 314.203 99.8716 313.801 100.14 313.532C100.409 313.264 100.851 313.091 101.637 313.091C102.328 313.091 102.674 313.245 102.847 313.475C103.02 313.705 103.077 314.069 103.039 314.529L103.02 314.759H105.035L105.073 314.491C105.188 313.475 105.054 312.612 104.536 312.037C104.037 311.481 103.173 311.193 101.945 311.193ZM159.912 311.193C158.626 311.193 157.628 311.5 156.899 312.114C156.169 312.746 155.747 313.647 155.555 314.778C155.344 315.986 155.651 316.791 156.189 317.309C156.726 317.827 157.475 318.038 158.204 318.095C158.933 318.153 159.624 318.191 160.008 318.421C160.392 318.651 160.603 319.015 160.431 319.935C160.315 320.606 160.143 321.105 159.874 321.393C159.605 321.68 159.202 321.853 158.434 321.853H158.127C157.398 321.853 157.033 321.68 156.822 321.412C156.611 321.143 156.553 320.76 156.592 320.3L156.611 320.07H154.5L154.48 320.338C154.346 321.393 154.538 322.274 155.095 322.888C155.651 323.501 156.553 323.789 157.82 323.789H158.108C159.375 323.789 160.373 323.501 161.102 322.83C161.832 322.159 162.235 321.182 162.465 319.878C162.676 318.593 162.465 317.712 161.966 317.156C161.467 316.6 160.757 316.389 160.047 316.312C159.298 316.235 158.588 316.197 158.127 316.005C157.916 315.909 157.743 315.794 157.647 315.603C157.551 315.411 157.513 315.162 157.571 314.778C157.667 314.203 157.82 313.801 158.089 313.532C158.358 313.264 158.78 313.091 159.567 313.091C160.277 313.091 160.623 313.245 160.815 313.475C160.987 313.705 161.045 314.069 161.007 314.529L160.987 314.759H163.022L163.06 314.491C163.175 313.475 163.041 312.612 162.523 312.037C162.005 311.481 161.141 311.193 159.912 311.193ZM170.162 311.193C168.876 311.193 167.878 311.5 167.13 312.114C166.4 312.746 165.978 313.647 165.786 314.778C165.575 315.986 165.882 316.791 166.419 317.309C166.957 317.827 167.705 318.038 168.435 318.095C169.164 318.153 169.836 318.191 170.22 318.421C170.604 318.651 170.815 319.015 170.661 319.935C170.546 320.606 170.373 321.105 170.105 321.393C169.836 321.68 169.433 321.853 168.665 321.853H168.377C167.648 321.853 167.283 321.68 167.072 321.412C166.861 321.143 166.803 320.76 166.842 320.3L166.861 320.07H164.769L164.73 320.338C164.615 321.393 164.769 322.274 165.325 322.888C165.882 323.501 166.803 323.789 168.07 323.789H168.377C169.644 323.789 170.623 323.501 171.352 322.83C172.082 322.159 172.504 321.182 172.715 319.878C172.926 318.593 172.696 317.712 172.197 317.156C171.717 316.6 170.988 316.389 170.297 316.312H170.278C169.529 316.235 168.8 316.197 168.358 316.005C168.128 315.909 167.974 315.794 167.878 315.603C167.782 315.411 167.763 315.162 167.821 314.778C167.917 314.203 168.051 313.801 168.339 313.532C168.608 313.264 169.049 313.091 169.836 313.091C170.527 313.091 170.892 313.245 171.064 313.475C171.237 313.705 171.276 314.069 171.237 314.529L171.218 314.759H173.272L173.31 314.491C173.425 313.475 173.291 312.612 172.773 312.037C172.255 311.481 171.372 311.193 170.162 311.193ZM127.512 311.289L124.057 311.308L121.945 323.751H123.922L124.671 319.341H125.612L127.262 323.712H129.604L127.704 319.054C128.433 318.843 129.067 318.555 129.489 318.038C129.988 317.405 130.276 316.619 130.449 315.641L130.583 314.798C130.794 313.551 130.602 312.669 130.046 312.094C129.489 311.519 128.606 311.289 127.531 311.289H127.512ZM33.2086 311.308C32.1913 311.308 31.27 311.519 30.5214 312.094C29.792 312.669 29.2929 313.571 29.0818 314.798L28.1604 320.204C27.9493 321.469 28.0261 322.389 28.5251 323.022C29.0242 323.655 29.888 323.885 31.078 323.885C32.2297 323.885 33.1319 323.636 33.8229 323.022C34.4947 322.409 34.8786 321.469 35.1089 320.204L36.0302 314.798C36.2414 313.551 36.0494 312.65 35.5312 312.094C34.9937 311.519 34.1684 311.308 33.2086 311.308ZM43.4586 311.308L41.3664 323.731H43.3626L44.3607 317.884L44.4759 316.638L45.2629 321.565H46.3186L48.7563 316.638L48.4492 317.884L47.4511 323.731H49.4473L51.5587 311.308H49.4281L46.4913 317.309L45.5892 311.308H43.4586ZM75.8207 311.308L74.4195 319.571C74.266 320.491 74.0548 321.105 73.7477 321.45C73.4406 321.795 72.9799 321.968 72.097 321.968C71.214 321.968 70.7917 321.795 70.5998 321.45C70.3886 321.105 70.3886 320.511 70.5422 319.571L71.9434 311.327H69.9472L68.546 319.552C68.3156 320.875 68.354 321.968 68.8531 322.715C69.3521 323.463 70.3119 323.846 71.7706 323.846C73.2294 323.846 74.3043 323.463 75.0529 322.715C75.8015 321.968 76.2046 320.913 76.4158 319.571L77.817 311.308H75.8207ZM89.0266 311.308L88.9882 311.577L86.9344 323.731H93.8445L94.1516 321.872H89.2186L89.8712 318.076H93.9788L94.2859 316.178H90.1783L90.6966 313.091H95.2457L95.5528 311.289H89.0266V311.308ZM147.014 311.308L146.975 311.577L144.921 323.731H151.831L152.139 321.872H147.206L147.839 318.076H151.947L152.273 316.178H148.165L148.684 313.091H153.233L153.54 311.289H147.014V311.308ZM59.7932 311.327L57.701 323.731H59.678L60.5034 318.843L60.8873 316.14L63.0755 323.751H64.8798L66.972 311.347H64.9758L64.0736 316.676L63.7857 319.322L61.5975 311.347H59.7932V311.327ZM137.954 311.327L135.862 323.731H142.503L142.541 323.482L142.829 321.853H138.165L139.95 311.308H137.954V311.327ZM56.6645 311.366H54.649L52.5568 323.751H54.5723L54.6106 323.521L56.6645 311.366ZM79.9092 311.366L79.5829 313.245H82.059L80.2739 323.731H82.2509L84.036 313.245H86.5313L86.5697 312.995L86.8384 311.366H79.9092ZM116.648 313.015C117.185 313.015 117.569 313.072 117.838 313.149C118.106 313.245 118.279 313.36 118.375 313.532C118.567 313.877 118.51 314.491 118.356 315.43L117.646 319.61C117.492 320.549 117.339 321.143 117.032 321.488C116.878 321.661 116.686 321.776 116.379 321.853C116.072 321.949 115.669 321.987 115.131 321.987C114.594 321.987 114.191 321.929 113.903 321.853C113.634 321.776 113.481 321.642 113.385 321.488C113.193 321.162 113.231 320.549 113.385 319.61L114.095 315.43C114.248 314.491 114.44 313.877 114.728 313.532C114.882 313.36 115.074 313.245 115.381 313.149C115.688 313.053 116.11 313.015 116.648 313.015ZM32.9015 313.11C33.4198 313.11 33.7461 313.187 33.9188 313.398C34.0916 313.609 34.1684 314.011 34.034 314.798L33.1127 320.204C32.9783 320.99 32.748 321.431 32.4984 321.68C32.2297 321.929 31.8842 322.025 31.3851 322.025C30.7517 322.025 30.4254 321.929 30.2335 321.68C30.0607 321.45 30.0031 320.99 30.1375 320.204L31.0588 314.798C31.1932 314.011 31.4235 313.609 31.6923 313.398C31.9802 313.206 32.3641 313.11 32.9015 313.11ZM125.727 313.225H127.186C127.838 313.264 128.241 313.321 128.433 313.513C128.625 313.686 128.702 314.031 128.568 314.817L128.433 315.641C128.299 316.427 128.088 316.868 127.8 317.098C127.512 317.328 127.109 317.443 126.495 317.443H125.017L125.727 313.225Z" fill="#292929"/>
<path d="M184.923 311.174C183.234 311.174 182.12 311.539 181.372 312.286C180.623 313.034 180.297 314.108 180.067 315.43L179.376 319.571C179.145 320.894 179.107 321.968 179.606 322.716C180.105 323.463 181.103 323.828 182.773 323.828C184.597 323.828 185.71 323.463 186.42 322.735C187.13 322.006 187.361 321.029 187.553 319.878L188.109 316.657H183.79L183.483 318.498H185.787L185.556 319.878C185.403 320.798 185.249 321.316 184.98 321.565C184.846 321.7 184.673 321.776 184.366 321.834C184.059 321.891 183.637 321.93 183.099 321.93C182.562 321.93 182.14 321.891 181.871 321.795C181.602 321.7 181.449 321.585 181.353 321.431C181.161 321.105 181.199 320.492 181.353 319.552L182.063 315.373C182.216 314.433 182.447 313.839 182.792 313.494C183.138 313.149 183.656 312.976 184.616 312.976C185.575 312.976 186.055 313.13 186.286 313.379C186.516 313.647 186.535 314.069 186.439 314.721L186.42 314.97H188.359L188.416 314.702C188.57 313.513 188.57 312.593 188.052 311.98C187.495 311.424 186.516 311.174 184.923 311.174ZM215.289 311.289L211.834 311.309L209.722 323.751H211.699L212.448 319.341H213.388L215.039 323.713H217.362L215.481 319.035C216.191 318.824 216.844 318.536 217.266 318.019C217.765 317.386 218.034 316.6 218.206 315.622L218.341 314.798C218.552 313.552 218.36 312.67 217.803 312.095C217.227 311.519 216.364 311.289 215.289 311.289ZM197.61 311.309L196.209 319.571C196.056 320.492 195.845 321.105 195.537 321.431C195.23 321.776 194.77 321.949 193.887 321.949C193.004 321.949 192.581 321.776 192.37 321.431C192.178 321.086 192.14 320.492 192.313 319.571L193.714 311.328H191.718L190.317 319.571C190.086 320.894 190.144 321.987 190.643 322.735C191.161 323.482 192.102 323.866 193.541 323.866C195 323.866 196.075 323.482 196.843 322.735C197.591 321.987 197.975 320.913 198.206 319.591L199.607 311.328H197.61V311.309ZM249.647 311.309L249.59 311.577L247.536 323.732H254.446L254.753 321.872H249.82L250.473 318.076H254.58L254.906 316.197H250.799L251.317 313.111H255.866L256.173 311.309H249.647ZM259.187 311.309L259.148 311.577L257.095 323.732H264.005L264.312 321.872H259.379L260.012 318.076H264.12L264.427 316.197H260.319L260.838 313.111H265.387L265.694 311.309H259.187ZM231.182 311.328L229.09 323.732H231.067L231.892 318.843L232.295 316.159L234.483 323.732H236.288L238.38 311.328H236.403L235.501 316.657L235.194 319.322L233.005 311.347H231.182V311.328ZM268.746 311.328L266.634 323.732H270.397C272.066 323.751 273.18 323.387 273.928 322.639C274.677 321.872 274.984 320.798 275.214 319.495L275.867 315.565C276.097 314.261 276.136 313.207 275.656 312.459C275.176 311.711 274.216 311.347 272.585 311.347H268.746V311.328ZM206.44 311.347H204.521L199.146 323.713H201.2L202.179 321.508H205.346L205.595 323.713H207.649L207.611 323.406L206.44 311.347ZM225.807 311.347H223.926L218.513 323.713H220.567L221.546 321.508H224.733L224.963 323.713H226.997L226.978 323.406L225.807 311.347ZM240.53 311.366L240.223 313.245H242.699L240.914 323.732H242.891L244.676 313.245H247.133L247.171 312.996L247.459 311.385L240.53 311.366ZM213.484 313.226H214.943C215.596 313.264 215.999 313.322 216.21 313.513C216.402 313.705 216.479 314.031 216.344 314.817L216.21 315.66C216.076 316.446 215.865 316.868 215.577 317.118C215.308 317.348 214.866 317.443 214.252 317.443H212.774L213.484 313.226ZM270.397 313.245H272.182C272.719 313.245 273.122 313.283 273.391 313.36C273.679 313.437 273.813 313.552 273.909 313.705C274.101 314.012 274.044 314.625 273.89 315.565L273.218 319.514C273.065 320.453 272.911 321.029 272.604 321.354C272.45 321.508 272.258 321.623 271.97 321.7C271.663 321.776 271.241 321.834 270.704 321.834H268.919L270.397 313.245ZM204.885 314.779L204.981 317.424L205.154 319.648H202.985L203.868 317.482L204.885 314.779ZM224.253 314.798L224.349 317.405L224.521 319.629H222.333L223.235 317.463L224.253 314.798Z" fill="#DF1629"/>
</svg>
