<svg width="214" height="78" viewBox="0 0 214 78" fill="none" xmlns="http://www.w3.org/2000/svg">
<path d="M45.2781 4.57764e-05C42.8681 5.96254 42.5849 15.0331 44.297 22.6861C46.9243 22.7641 51.0267 22.8162 50.928 22.8812C50.8028 22.9657 53.6673 15.9564 54.1611 14.4414C52.2515 9.00555 49.4398 4.16143 46.042 0.741293C45.7917 0.487709 45.5415 0.240626 45.2781 4.57764e-05ZM86.2164 6.4632C77.8207 8.29681 64.664 15.5792 58.0792 23.1478C60.4431 23.2778 64.5587 23.5444 65.125 23.4859C64.4072 23.8305 58.0396 28.4535 58.0923 28.304C58.145 28.1479 60.3575 35.8595 60.7131 36.5943C60.1271 36.0156 53.4829 31.3015 53.6475 31.308C53.8121 31.308 47.1351 35.5084 46.5556 36.0351C46.9112 35.3328 49.1698 27.7968 49.2225 27.9529C45.6008 24.2661 33.1883 14.4739 22.8236 11.6389C24.8123 18.9734 28.2562 26.2558 33.3463 31.7241C34.6304 31.7566 36.3424 31.7827 36.2963 31.8087C36.2239 31.8542 37.8899 27.8293 37.8043 27.8293C37.7187 27.8228 39.0554 31.9647 38.983 31.9127C38.9171 31.8607 43.3027 32.1793 43.2829 32.1013C43.2566 32.0167 39.681 34.5526 39.7139 34.4746C39.7468 34.3965 40.7938 38.6164 40.8662 38.5644C40.9387 38.5189 37.396 35.9375 37.475 35.944C37.5606 35.944 33.8204 38.2393 33.8928 38.2913C33.9521 38.3368 34.9662 35.3458 35.2757 34.5201C28.5393 34.2535 19.6629 35.4109 13.7102 37.8947C16.0939 39.4877 19.2546 40.8857 22.5537 41.9976H15.5078C15.5078 42.7843 16.4692 43.1159 17.1409 43.1159C40.8597 43.1159 64.5719 43.1159 88.2906 43.1159C83.6483 39.9234 77.6363 37.5306 71.3082 36.3082C71.6045 37.4265 71.9272 38.6424 71.9667 38.6164C72.0391 38.5709 68.4965 35.9896 68.5821 35.9961C68.6677 35.9961 64.9274 38.2913 64.9999 38.3433C65.0657 38.3954 66.4485 34.273 66.4749 34.351C66.5012 34.4355 63.1363 31.6266 63.11 31.7046C63.0771 31.7827 67.4824 31.8087 67.4099 31.8607C67.3375 31.9062 68.9969 27.8879 68.9179 27.8814C68.8323 27.8748 70.1624 32.0167 70.0966 31.9647C70.0702 31.9452 70.8275 31.9842 71.6835 32.0362C77.6429 25.9112 84.1685 15.2021 86.2164 6.4632ZM10.635 41.9911C10.635 42.7778 11.5964 43.1094 12.2681 43.1094H14.2369C14.2369 42.3227 13.269 41.9911 12.6039 41.9911H10.635Z" fill="#DF1629"/>
<path d="M0.000464277 50.4894C-0.0324602 52.0239 1.69278 53.0122 2.93733 53.0122C6.35489 53.0122 7.52041 53.0188 10.7009 53.0188C10.7338 51.4842 9.0086 50.4959 7.76405 50.4959C4.34649 50.4894 3.23365 50.4894 0.000464277 50.4894ZM12.3274 50.4894C12.2945 52.0239 14.0131 53.0122 15.2642 53.0122L42.9603 53.0383C43.7241 53.0383 45.8906 52.7196 46.154 55.9317H41.7223C41.7223 56.699 42.5652 57.0501 43.2566 57.0501H75.1209C73.6986 54.8133 72.0919 52.5571 70.3534 50.5024V50.4959C50.2432 50.5024 30.7058 50.4894 12.3274 50.4894ZM32.7142 55.9317C32.7142 56.7185 33.6822 57.0501 34.3473 57.0501H35.0453C35.0453 56.2633 34.0839 55.9317 33.4122 55.9317H32.7142ZM36.1647 55.9317C36.1647 56.7185 37.1261 57.0501 37.7977 57.0501H40.3C40.3 56.2633 39.332 55.9317 38.667 55.9317H36.1647Z" fill="#B20B1B"/>
<path d="M29.718 64.43C29.718 65.2168 30.6794 65.5484 31.3511 65.5484H36.7375C36.7375 64.7616 35.7695 64.43 35.1045 64.43H29.718ZM38.2257 64.43C38.2257 64.9892 38.8578 65.5484 39.7666 65.5484H46.0551C47.4248 65.5484 48.2084 65.906 48.5574 66.9333C49.9534 70.8671 51.9289 74.6774 54.4575 78C56.0247 74.853 57.2363 69.6512 57.7301 64.43C51.2309 64.43 44.725 64.43 38.2257 64.43ZM68.964 64.43C72.7503 66.4392 76.8593 67.9737 80.9814 69.066C80.6785 67.9087 80.0595 66.2896 79.1969 64.43H68.964Z" fill="#B20B1B"/>
<path d="M95.4375 47.9877C96.8835 50.0216 99.5737 50.9679 102.39 50.9679C106.593 50.9679 110.007 48.4775 110.049 44.2854C110.141 36.5154 99.3299 39.7861 99.3803 34.3238C99.4056 32.979 100.406 31.0282 103.676 31.0282C105.374 31.0282 106.829 31.7919 107.552 32.9209L109.981 30.7543C108.367 28.7703 106.081 28.2805 103.701 28.2805C98.464 28.2805 96.2698 31.7919 96.2277 34.3238C96.1353 42.7413 106.947 39.6533 106.896 44.6257C106.871 47.0165 104.45 48.2285 102.508 48.2285C100.751 48.2285 98.9264 47.4897 97.9007 45.9041L95.4375 47.9877Z" fill="white"/>
<path d="M117.068 50.42H120.061L123.659 39.6284H123.727L127.468 50.42H130.284L135.168 35.9675H132.226L128.956 46.7591H128.905L125.324 35.9675H122.382L118.783 46.7591H118.716L115.522 35.9675H112.411L117.068 50.42Z" fill="white"/>
<path d="M138.018 50.42H140.801L140.961 35.9675H138.178L138.018 50.42ZM137.581 30.7875C137.564 31.8916 138.489 32.7964 139.607 32.7964C140.725 32.7964 141.642 31.8916 141.658 30.7875C141.675 29.6834 140.767 28.7786 139.649 28.7786C138.531 28.7786 137.598 29.6834 137.581 30.7875Z" fill="white"/>
<path d="M146.635 50.42H149.418L149.553 38.3416H152.89L152.915 35.9674H149.603L149.645 32.6303C149.662 30.6214 150.023 29.3762 152.066 29.3762C152.621 29.3762 153.109 29.4426 153.63 29.6502L153.975 27.2096C153.201 27.027 152.529 26.9855 151.915 26.9855C148.275 26.9855 146.879 28.8781 146.846 32.7216L146.804 35.9674H143.651L143.626 38.3416H146.778L146.635 50.42Z" fill="white"/>
<path d="M164.206 35.9758H160.221L160.263 31.9164H157.48L157.438 35.9758H154.235L154.21 38.3499H157.413L157.337 45.8875C157.312 48.1952 157.346 50.7935 161.642 50.7935C162.196 50.7935 163.491 50.6773 164.138 50.3121L164.164 47.8051C163.609 48.1454 162.835 48.2367 162.196 48.2367C160.095 48.2367 160.111 46.5267 160.137 44.8996L160.204 38.3499H164.18L164.206 35.9758Z" fill="white"/>
<path d="M204.862 28.5544C203.264 28.5544 201.734 28.8366 200.288 29.4011C198.859 29.9656 197.598 30.7459 196.505 31.767H196.497C195.404 32.7714 194.546 33.9751 193.933 35.3697C193.319 36.7644 193.016 38.242 193.016 39.8026C193.016 41.3633 193.319 42.8492 193.933 44.2438V44.2521C193.933 44.2521 193.933 44.2604 193.941 44.2604C194.555 45.6301 195.404 46.8255 196.497 47.8383C197.564 48.8344 198.8 49.6064 200.187 50.1626H200.204L200.263 50.1958H200.28V50.2041H200.288C201.743 50.7437 203.264 51.0176 204.862 51.0176C206.593 51.0176 208.249 50.6607 209.805 49.9634L209.83 49.9468C211.385 49.2246 212.722 48.2118 213.815 46.9251L214 46.7093L210.318 43.6295L210.133 43.837C209.485 44.551 208.695 45.132 207.779 45.5554H207.77V45.5637C206.846 45.9705 205.879 46.1863 204.87 46.1863C204.08 46.1863 203.323 46.012 202.592 45.7629H202.44L202.331 45.7131L202.306 45.7048C201.507 45.3811 200.826 44.9328 200.246 44.3849C200.246 44.3849 200.246 44.3849 200.246 44.3766L200.238 44.3683H200.229V44.36C199.641 43.7789 199.195 43.0982 198.859 42.3262H198.851C198.514 41.5293 198.355 40.6909 198.355 39.7943C198.355 38.9974 198.54 38.2669 198.8 37.5696V37.4202L198.851 37.2873C199.187 36.4904 199.649 35.8014 200.238 35.2203C200.826 34.6392 201.524 34.191 202.323 33.8838L202.432 33.8257H202.608C203.331 33.5601 204.08 33.3857 204.87 33.3857C205.769 33.3857 206.619 33.6099 207.434 33.9336C207.535 33.9751 207.644 33.9585 207.737 34L207.442 33.9336H207.602L207.745 34C208.67 34.4068 209.46 34.9796 210.107 35.6935L210.301 35.9093L213.975 32.8295L213.79 32.6054C212.991 31.6923 212.041 30.912 210.948 30.2645L210.94 30.2562C209.88 29.6004 208.813 29.1521 207.745 28.9197L207.728 28.9113H207.72C206.635 28.6872 205.694 28.5544 204.862 28.5544ZM200.263 50.1958C200.238 50.1792 200.213 50.1709 200.187 50.1626H200.17L200.263 50.1958ZM170.057 28.8948V50.6856H178.514C180.826 50.6856 182.869 50.2788 184.635 49.4487L184.651 49.4404C186.425 48.5854 187.796 47.3236 188.754 45.6716V45.6633C188.754 45.6633 188.754 45.6633 188.754 45.655C189.704 43.9865 190.183 42.0357 190.183 39.8275C190.183 38.2752 189.931 36.8308 189.418 35.4943C189.418 35.4943 189.41 35.4943 189.41 35.486C188.905 34.1411 188.149 32.9624 187.157 31.9828C186.165 31.0033 184.92 30.2313 183.449 29.6917C181.978 29.1521 180.322 28.8781 178.481 28.8781H170.057V28.8948ZM207.812 28.9362C207.854 28.9446 207.896 28.9529 207.896 28.9529C207.896 28.9529 207.98 28.9446 207.972 28.9446C207.972 28.9446 207.871 28.9362 207.812 28.9362ZM175.387 33.7344H178.178C180.372 33.7344 182.012 34.2242 183.138 35.1871V35.1954C184.248 36.1169 184.82 37.6526 184.82 39.8441C184.82 41.9942 184.239 43.5133 183.138 44.4347C182.012 45.3728 180.389 45.8543 178.212 45.8543H175.387V33.7344Z" fill="white"/>
</svg>
