<svg width="599" height="222" viewBox="0 0 599 222" fill="none" xmlns="http://www.w3.org/2000/svg">
<path d="M126.707 0.614258C119.963 17.4918 119.171 43.1671 123.962 64.83C131.314 65.0509 142.794 65.1982 142.518 65.3822C142.168 65.6215 150.184 45.7807 151.566 41.4922C146.222 26.1055 138.353 12.3936 128.845 2.71245C128.145 1.99465 127.444 1.29525 126.707 0.614258ZM241.27 18.909C217.775 24.0993 180.957 44.7132 162.53 66.1368C169.146 66.5049 180.663 67.2595 182.247 67.0939C180.239 68.0694 162.42 81.1555 162.567 80.7322C162.714 80.2904 168.906 102.119 169.901 104.199C168.261 102.561 149.668 89.217 150.129 89.2354C150.589 89.2354 131.904 101.125 130.282 102.616C131.277 100.628 137.598 79.2966 137.745 79.7383C127.61 69.3025 92.8748 41.5843 63.8702 33.5596C69.4353 54.3207 79.0728 74.9345 93.3171 90.4133C96.9104 90.5053 101.702 90.5789 101.573 90.6526C101.37 90.7814 106.032 79.3886 105.792 79.3886C105.553 79.3702 109.294 91.0943 109.091 90.9471C108.907 90.7998 121.179 91.7017 121.124 91.4808C121.05 91.2415 111.044 98.4196 111.136 98.1987C111.228 97.9778 114.158 109.923 114.361 109.776C114.564 109.647 104.65 102.34 104.871 102.358C105.111 102.358 94.6438 108.855 94.8465 109.003C95.0124 109.131 97.8502 100.665 98.7163 98.3275C79.8651 97.5729 55.0251 100.849 38.3668 107.88C45.0375 112.389 53.8826 116.346 63.1147 119.494H43.3975C43.3975 121.721 46.0878 122.659 47.9674 122.659C114.343 122.659 180.699 122.659 247.075 122.659C234.083 113.622 217.259 106.849 199.551 103.389C200.38 106.555 201.283 109.996 201.393 109.923C201.596 109.794 191.682 102.487 191.922 102.506C192.161 102.506 181.695 109.003 181.897 109.15C182.081 109.297 185.951 97.6281 186.025 97.849C186.099 98.0883 176.682 90.1372 176.609 90.3581C176.516 90.5789 188.844 90.6526 188.642 90.7998C188.439 90.9286 193.083 79.5542 192.861 79.5358C192.622 79.5174 196.344 91.2415 196.16 91.0943C196.086 91.0391 198.205 91.1495 200.601 91.2968C217.278 73.959 235.539 43.6456 241.27 18.909ZM29.7612 119.475C29.7612 121.702 32.4516 122.641 34.3312 122.641H39.841C39.841 120.414 37.1322 119.475 35.271 119.475H29.7612Z" fill="#DF1629"/>
<path d="M0.00129924 143.531C-0.0908374 147.874 4.73712 150.672 8.21989 150.672C17.7837 150.672 21.0453 150.69 29.9457 150.69C30.0378 146.347 25.2099 143.549 21.7271 143.549C12.1633 143.531 9.04912 143.531 0.00129924 143.531ZM34.4973 143.531C34.4051 147.874 39.2147 150.672 42.7158 150.672L120.221 150.746C122.359 150.746 128.421 149.844 129.158 158.936H116.757C116.757 161.108 119.116 162.102 121.05 162.102H210.22C206.24 155.77 201.744 149.384 196.879 143.568V143.549C140.602 143.568 85.9279 143.531 34.4973 143.531ZM91.5483 158.936C91.5483 161.163 94.2571 162.102 96.1182 162.102H98.0715C98.0715 159.875 95.3811 158.936 93.5016 158.936H91.5483ZM101.204 158.936C101.204 161.163 103.895 162.102 105.774 162.102H112.777C112.777 159.875 110.068 158.936 108.207 158.936H101.204Z" fill="#B20B1B"/>
<path d="M83.1636 182.991C83.1636 185.218 85.854 186.157 87.7336 186.157H102.807C102.807 183.93 100.098 182.991 98.2371 182.991H83.1636ZM106.972 182.991C106.972 184.574 108.741 186.157 111.284 186.157H128.882C132.715 186.157 134.907 187.169 135.884 190.077C139.791 201.213 145.319 211.998 152.395 221.403C156.781 212.495 160.171 197.771 161.553 182.991C143.366 182.991 125.159 182.991 106.972 182.991ZM192.99 182.991C203.586 188.679 215.085 193.022 226.62 196.114C225.773 192.838 224.04 188.255 221.626 182.991H192.99Z" fill="#B20B1B"/>
<path d="M267.075 136.45C271.121 142.207 278.65 144.885 286.531 144.885C298.294 144.885 307.845 137.836 307.963 125.97C308.222 103.976 277.967 113.234 278.108 97.7722C278.179 93.9655 280.979 88.4435 290.13 88.4435C294.882 88.4435 298.952 90.6053 300.976 93.801L307.775 87.6681C303.258 82.0521 296.859 80.6658 290.201 80.6658C275.544 80.6658 269.404 90.6053 269.286 97.7722C269.027 121.599 299.282 112.858 299.141 126.933C299.07 133.7 292.295 137.131 286.86 137.131C281.943 137.131 276.838 135.04 273.968 130.552L267.075 136.45Z" fill="#292929"/>
<path d="M327.607 143.335H335.983L346.052 112.787H346.24L356.709 143.335H364.59L378.259 102.425H370.025L360.873 132.972H360.732L350.71 102.425H342.476L332.407 132.972H332.219L323.279 102.425H314.574L327.607 143.335Z" fill="#292929"/>
<path d="M386.234 143.335H394.021L394.468 102.425H386.681L386.234 143.335ZM385.01 87.7622C384.963 90.8874 387.551 93.4487 390.68 93.4487C393.809 93.4487 396.373 90.8874 396.421 87.7622C396.468 84.637 393.927 82.0757 390.798 82.0757C387.669 82.0757 385.057 84.637 385.01 87.7622Z" fill="#292929"/>
<path d="M410.348 143.334H418.135L418.512 109.145H427.851L427.922 102.425H418.653L418.77 92.9785C418.817 87.2921 419.829 83.7674 425.546 83.7674C427.099 83.7674 428.463 83.9553 429.922 84.5428L430.886 77.6345C428.722 77.1175 426.84 77 425.122 77C414.936 77 411.03 82.3575 410.936 93.237L410.819 102.425H401.996L401.926 109.145H410.748L410.348 143.334Z" fill="#292929"/>
<path d="M459.518 102.448H448.366L448.484 90.9578H440.697L440.579 102.448H431.616L431.545 109.169H440.509L440.297 130.505C440.226 137.037 440.32 144.392 452.342 144.392C453.895 144.392 457.518 144.063 459.329 143.029L459.4 135.933C457.847 136.896 455.683 137.154 453.895 137.154C448.013 137.154 448.06 132.314 448.131 127.708L448.319 109.169H459.447L459.518 102.448Z" fill="#292929"/>
<path d="M573.29 81.441C568.82 81.441 564.538 82.2399 560.492 83.8378C556.492 85.4356 552.963 87.6445 549.905 90.5347H549.881C546.823 93.3779 544.423 96.7851 542.706 100.733C540.989 104.68 540.142 108.863 540.142 113.281C540.142 117.698 540.989 121.904 542.706 125.852V125.875C542.706 125.875 542.706 125.899 542.73 125.899C544.447 129.776 546.823 133.16 549.881 136.026C552.869 138.846 556.328 141.031 560.209 142.606H560.256L560.421 142.7H560.468V142.723H560.492C564.562 144.251 568.82 145.026 573.29 145.026C578.136 145.026 582.771 144.016 587.123 142.042L587.194 141.995C591.546 139.951 595.287 137.084 598.345 133.442L598.863 132.831L588.558 124.113L588.041 124.701C586.229 126.721 584.018 128.366 581.453 129.565H581.43V129.588C578.842 130.739 576.137 131.35 573.313 131.35C571.102 131.35 568.985 130.857 566.938 130.152H566.514L566.209 130.011L566.138 129.988C563.903 129.071 561.997 127.802 560.374 126.251C560.374 126.251 560.374 126.251 560.374 126.228L560.351 126.204H560.327V126.181C558.68 124.536 557.433 122.609 556.492 120.424H556.469C555.528 118.168 555.081 115.795 555.081 113.257C555.081 111.001 555.598 108.933 556.328 106.96V106.537L556.469 106.161C557.41 103.905 558.704 101.955 560.351 100.31C561.997 98.6649 563.95 97.3961 566.185 96.5266L566.491 96.3621H566.985C569.008 95.6102 571.102 95.1167 573.313 95.1167C575.831 95.1167 578.207 95.7512 580.489 96.6676C580.771 96.7851 581.077 96.7381 581.336 96.8556L580.512 96.6676H580.959L581.359 96.8556C583.947 98.007 586.159 99.6283 587.97 101.649L588.511 102.26L598.792 93.5424L598.275 92.9079C596.04 90.3232 593.381 88.1144 590.323 86.2816L590.299 86.2581C587.335 84.4018 584.347 83.1329 581.359 82.4749L581.312 82.4514H581.289C578.254 81.817 575.619 81.441 573.29 81.441ZM560.421 142.7C560.351 142.653 560.28 142.629 560.209 142.606H560.162L560.421 142.7ZM475.892 82.4045V144.086H499.559C506.029 144.086 511.746 142.935 516.686 140.585L516.733 140.562C521.697 138.141 525.532 134.57 528.214 129.894V129.87C528.214 129.87 528.214 129.87 528.214 129.847C530.872 125.123 532.213 119.601 532.213 113.351C532.213 108.957 531.508 104.868 530.073 101.085C530.073 101.085 530.049 101.085 530.049 101.062C528.637 97.255 526.52 93.9184 523.744 91.1456C520.968 88.3729 517.486 86.1876 513.369 84.6602C509.252 83.1329 504.617 82.3575 499.465 82.3575H475.892V82.4045ZM581.548 82.5219C581.665 82.5454 581.783 82.5689 581.783 82.5689C581.783 82.5689 582.018 82.5454 581.995 82.5454C581.995 82.5454 581.712 82.5219 581.548 82.5219ZM490.808 96.1037H498.618C504.759 96.1037 509.346 97.49 512.499 100.216V100.239C515.604 102.848 517.204 107.195 517.204 113.398C517.204 119.484 515.581 123.784 512.499 126.392C509.346 129.048 504.806 130.41 498.712 130.41H490.808V96.1037Z" fill="#292929"/>
</svg>
