<svg width="71" height="75" viewBox="0 0 71 75" fill="none" xmlns="http://www.w3.org/2000/svg">
<path d="M16.4118 52.8262C14.5671 52.8262 12.9996 53.4772 11.7085 54.7792C10.4179 56.0824 9.77209 57.6631 9.77209 59.5237C9.77209 61.3844 10.4174 62.9651 11.7085 64.2683C13.0001 65.5703 14.5676 66.2213 16.4118 66.2213C18.2255 66.2213 19.7851 65.5703 21.0917 64.2683C22.3978 62.9667 23.0509 61.3844 23.0509 59.5237C23.0509 57.6631 22.398 56.0835 21.0917 54.7792C19.785 53.4783 18.2255 52.8262 16.4118 52.8262Z" fill="#DF1629"/>
<path d="M14.9366 38.6901C14.9366 36.644 14.2146 34.8929 12.7698 33.4345C11.3251 31.9774 9.58813 31.249 7.55953 31.249C5.53076 31.249 3.79412 31.9776 2.34929 33.4345C0.904789 34.8918 0.182617 36.6433 0.182617 38.6901C0.182617 40.7358 0.904628 42.4866 2.34929 43.9441C3.79412 45.4017 5.53076 46.1303 7.55953 46.1303C9.58813 46.1303 11.3251 45.4017 12.7698 43.9441C14.2146 42.4875 14.9366 40.7358 14.9366 38.6901Z" fill="#DF1629"/>
<path d="M57.7227 21.5779C58.7362 21.5779 59.6059 21.2131 60.3273 20.4848C61.0496 19.756 61.4115 18.8799 61.4115 17.857C61.4115 16.8336 61.0496 15.9582 60.3273 15.2298C59.6055 14.5009 58.7362 14.1367 57.7227 14.1367C56.708 14.1367 55.8392 14.5016 55.1169 15.2298C54.3951 15.9583 54.0338 16.8336 54.0338 17.857C54.0338 18.8803 54.3951 19.756 55.1169 20.4848C55.8392 21.2137 56.708 21.5779 57.7227 21.5779Z" fill="#DF1629"/>
<path d="M16.4123 9.67285C14.1681 9.67285 12.2548 10.4713 10.6717 12.0676C9.08849 13.664 8.29736 15.5939 8.29736 17.8569C8.29736 20.1208 9.08849 22.0499 10.6717 23.6469C12.2553 25.2438 14.1686 26.042 16.4123 26.042C18.656 26.042 20.5694 25.2433 22.1522 23.6469C23.7349 22.0499 24.5265 20.1203 24.5265 17.8569C24.5265 15.5939 23.7349 13.664 22.1522 12.0676C20.5694 10.4713 18.656 9.67285 16.4123 9.67285Z" fill="#DF1629"/>
<path d="M69.7098 35.5275C68.8494 34.6594 67.8045 34.2258 66.5754 34.2258C65.3452 34.2258 64.3002 34.6594 63.4398 35.5275C62.5798 36.3957 62.15 37.45 62.15 38.6908C62.15 39.9303 62.5798 40.9861 63.4398 41.8523C64.3007 42.7207 65.3452 43.1543 66.5754 43.1543C67.8045 43.1543 68.8501 42.7207 69.7098 41.8523C70.5709 40.9851 71.0003 39.9303 71.0003 38.6908C71.0003 37.4506 70.5715 36.3962 69.7098 35.5275Z" fill="#DF1629"/>
<path d="M57.7225 54.3152C56.3077 54.3152 55.0937 54.8263 54.0791 55.8497C53.0656 56.8719 52.5582 58.097 52.5582 59.524C52.5582 60.9499 53.0656 62.175 54.0791 63.1985C55.0937 64.2217 56.3079 64.7324 57.7225 64.7324C59.1362 64.7324 60.3503 64.2208 61.3649 63.1985C62.3795 62.1752 62.8864 60.9505 62.8864 59.524C62.8864 58.097 62.3795 56.8732 61.3649 55.8497C60.3504 54.8261 59.1362 54.3152 57.7225 54.3152Z" fill="#DF1629"/>
<path d="M37.0673 62.4988C35.4382 62.4988 34.0472 63.0812 32.8938 64.244C31.7416 65.4068 31.1651 66.809 31.1651 68.4523C31.1651 70.0955 31.741 71.4979 32.8938 72.6605C34.0472 73.8233 35.4376 74.4052 37.0673 74.4052C38.6966 74.4052 40.087 73.8233 41.2398 72.6605C42.3927 71.4979 42.969 70.0955 42.969 68.4523C42.969 66.809 42.3927 65.4068 41.2398 64.244C40.087 63.0812 38.6966 62.4988 37.0673 62.4988Z" fill="#DF1629"/>
<path d="M37.0671 0C34.6085 0 32.5174 0.867647 30.7959 2.60376C29.0749 4.34003 28.2144 6.44864 28.2144 8.9286C28.2144 11.4087 29.0746 13.5164 30.7959 15.2528C32.5174 16.9886 34.608 17.8567 37.0671 17.8567C39.5269 17.8567 41.6165 16.9891 43.3373 15.2528C45.0582 13.5172 45.9187 11.4087 45.9187 8.9286C45.9187 6.4488 45.0582 4.34068 43.3373 2.60376C41.6165 0.868136 39.5269 0 37.0671 0Z" fill="#DF1629"/>
</svg>
