<svg width="71" height="75" viewBox="0 0 71 75" fill="none" xmlns="http://www.w3.org/2000/svg">
<path d="M16.4117 52.8262C14.567 52.8262 12.9995 53.4772 11.7084 54.7792C10.4178 56.0824 9.77197 57.6631 9.77197 59.5237C9.77197 61.3844 10.4173 62.9651 11.7084 64.2683C12.9999 65.5703 14.5675 66.2213 16.4117 66.2213C18.2254 66.2213 19.785 65.5703 21.0916 64.2683C22.3977 62.9667 23.0508 61.3844 23.0508 59.5237C23.0508 57.6631 22.3979 56.0835 21.0916 54.7792C19.7848 53.4783 18.2254 52.8262 16.4117 52.8262Z" fill="#0EC69A"/>
<path d="M14.9366 38.6901C14.9366 36.644 14.2146 34.8929 12.7698 33.4345C11.3251 31.9774 9.58813 31.249 7.55953 31.249C5.53076 31.249 3.79412 31.9776 2.34929 33.4345C0.904789 34.8918 0.182617 36.6433 0.182617 38.6901C0.182617 40.7358 0.904628 42.4866 2.34929 43.9441C3.79412 45.4017 5.53076 46.1303 7.55953 46.1303C9.58813 46.1303 11.3251 45.4017 12.7698 43.9441C14.2146 42.4875 14.9366 40.7358 14.9366 38.6901Z" fill="#0EC69A"/>
<path d="M57.7226 21.5779C58.736 21.5779 59.6058 21.2131 60.3272 20.4848C61.0495 19.756 61.4114 18.8799 61.4114 17.857C61.4114 16.8336 61.0495 15.9582 60.3272 15.2298C59.6053 14.5009 58.736 14.1367 57.7226 14.1367C56.7079 14.1367 55.8391 14.5016 55.1168 15.2298C54.3949 15.9583 54.0337 16.8336 54.0337 17.857C54.0337 18.8803 54.3949 19.756 55.1168 20.4848C55.8391 21.2137 56.7079 21.5779 57.7226 21.5779Z" fill="#0EC69A"/>
<path d="M16.4123 9.67285C14.1681 9.67285 12.2548 10.4713 10.6717 12.0676C9.08849 13.664 8.29736 15.5939 8.29736 17.8569C8.29736 20.1208 9.08849 22.0499 10.6717 23.6469C12.2553 25.2438 14.1686 26.042 16.4123 26.042C18.656 26.042 20.5694 25.2433 22.1522 23.6469C23.7349 22.0499 24.5265 20.1203 24.5265 17.8569C24.5265 15.5939 23.7349 13.664 22.1522 12.0676C20.5694 10.4713 18.656 9.67285 16.4123 9.67285Z" fill="#0EC69A"/>
<path d="M69.7098 35.5278C68.8494 34.6597 67.8044 34.2261 66.5753 34.2261C65.3451 34.2261 64.3001 34.6597 63.4397 35.5278C62.5798 36.3959 62.1499 37.4502 62.1499 38.691C62.1499 39.9305 62.5798 40.9863 63.4397 41.8525C64.3006 42.721 65.3451 43.1545 66.5753 43.1545C67.8044 43.1545 68.85 42.721 69.7098 41.8525C70.5708 40.9853 71.0002 39.9305 71.0002 38.691C71.0002 37.4509 70.5715 36.3964 69.7098 35.5278Z" fill="#0EC69A"/>
<path d="M57.7225 54.3149C56.3077 54.3149 55.0936 54.8261 54.079 55.8494C53.0655 56.8716 52.5581 58.0968 52.5581 59.5238C52.5581 60.9496 53.0655 62.1748 54.079 63.1983C55.0936 64.2215 56.3078 64.7321 57.7225 64.7321C59.1361 64.7321 60.3502 64.2205 61.3648 63.1983C62.3795 62.1749 62.8864 60.9503 62.8864 59.5238C62.8864 58.0968 62.3795 56.8729 61.3648 55.8494C60.3504 54.8259 59.1361 54.3149 57.7225 54.3149Z" fill="#0EC69A"/>
<path d="M37.0672 62.499C35.4382 62.499 34.0471 63.0815 32.8938 64.2442C31.7415 65.407 31.165 66.8092 31.165 68.4525C31.165 70.0958 31.7409 71.4981 32.8938 72.6607C34.0471 73.8235 35.4375 74.4055 37.0672 74.4055C38.6965 74.4055 40.0869 73.8235 41.2398 72.6607C42.3926 71.4981 42.969 70.0958 42.969 68.4525C42.969 66.8092 42.3926 65.407 41.2398 64.2442C40.0869 63.0815 38.6965 62.499 37.0672 62.499Z" fill="#0EC69A"/>
<path d="M37.0671 0C34.6085 0 32.5174 0.867647 30.7959 2.60376C29.0749 4.34003 28.2144 6.44864 28.2144 8.9286C28.2144 11.4087 29.0746 13.5164 30.7959 15.2528C32.5174 16.9886 34.608 17.8567 37.0671 17.8567C39.5269 17.8567 41.6165 16.9891 43.3373 15.2528C45.0582 13.5172 45.9187 11.4087 45.9187 8.9286C45.9187 6.4488 45.0582 4.34068 43.3373 2.60376C41.6165 0.868136 39.5269 0 37.0671 0Z" fill="#0EC69A"/>
</svg>
