<svg width="30" height="29" viewBox="0 0 30 29" fill="none" xmlns="http://www.w3.org/2000/svg">
<path d="M16.2228 0.760056C15.993 0.294643 15.519 0 15 0C14.481 0 14.007 0.294643 13.7772 0.760056L9.88056 8.65425L1.16645 9.92795C0.652963 10.003 0.226582 10.363 0.0665222 10.8567C-0.0935379 11.3503 0.0404702 11.892 0.412221 12.2541L6.71658 18.3945L5.22874 27.0694C5.14099 27.581 5.35133 28.0981 5.7713 28.4032C6.19127 28.7083 6.74802 28.7485 7.20745 28.5068L15 24.4088L22.7925 28.5068C23.252 28.7485 23.8087 28.7083 24.2287 28.4032C24.6487 28.0981 24.859 27.581 24.7713 27.0694L23.2834 18.3945L29.5878 12.2541C29.9595 11.892 30.0935 11.3503 29.9335 10.8567C29.7734 10.363 29.347 10.003 28.8335 9.92795L20.1194 8.65425L16.2228 0.760056Z" fill="#0EC69A"/>
</svg>
