<svg width="90" height="47" viewBox="0 0 90 47" fill="none" xmlns="http://www.w3.org/2000/svg">
<path d="M59.6743 20.9531C59.8639 20.9531 59.9862 21.0335 60.0474 21.2004C60.1331 21.3425 60.1392 21.4785 60.078 21.596L55.496 33.5936C55.4104 33.7975 55.2697 33.9026 55.0617 33.9026H53.2571C53.0674 33.9026 52.9267 33.7975 52.8227 33.5936L50.3268 26.4914L47.8309 33.6245C47.7452 33.8099 47.6107 33.9026 47.4271 33.9026H45.5552C45.3656 33.9026 45.2249 33.8099 45.1209 33.6245L40.6001 21.596C40.5389 21.4723 40.5389 21.3425 40.6001 21.2004C40.6857 21.0397 40.8203 20.9531 41.0038 20.9531H44.711C44.9618 20.9531 45.1147 21.052 45.1759 21.2622L46.7053 27.6906L49.2012 21.2622C49.2868 21.0582 49.4214 20.9531 49.6049 20.9531H51.067C51.275 20.9531 51.4096 21.052 51.4708 21.2622L53.9667 27.6597L55.496 21.2931C55.5572 21.0706 55.7163 20.9593 55.961 20.9593H59.6743V20.9531Z" fill="#2A2C57"/>
<path d="M61.6326 33.4699C61.6326 33.7543 61.7855 33.8964 62.0975 33.8964H65.8352C66.1472 33.8964 66.3002 33.7543 66.3002 33.4699V21.4723C66.3002 21.1262 66.1472 20.9531 65.8352 20.9531H62.0975C61.7855 20.9531 61.6326 21.1262 61.6326 21.4723V33.4699Z" fill="#2A2C57"/>
<path d="M63.9686 17.411C65.347 17.411 66.4645 16.2819 66.4645 14.8891C66.4645 13.4963 65.347 12.3672 63.9686 12.3672C62.5901 12.3672 61.4727 13.4963 61.4727 14.8891C61.4727 16.2819 62.5901 17.411 63.9686 17.411Z" fill="#2A2C57"/>
<path d="M69.9454 20.9531H68.728C68.4344 20.9531 68.2937 21.1077 68.2937 21.4105V24.0128C68.2937 24.3218 68.4405 24.4702 68.728 24.4702H69.9454V33.439C69.9454 33.7481 70.0984 33.8964 70.4103 33.8964H74.1481C74.4601 33.8964 74.613 33.7419 74.613 33.439V24.4764H77.5127C77.635 24.4764 77.739 24.4331 77.8247 24.3528C77.9287 24.2539 77.9837 24.1364 77.9837 24.019V21.4167C77.9837 21.2931 77.9287 21.1942 77.8247 21.1077C77.739 21.0026 77.635 20.9531 77.5127 20.9531H74.613H69.9454Z" fill="#2A2C57"/>
<path d="M74.6193 18.2209C74.6193 17.1392 74.7845 16.3418 75.1209 15.835C75.4513 15.3034 76.0018 15.0376 76.7726 15.0376C77.2314 15.0376 77.7086 15.1427 78.2041 15.3466C78.2225 15.3652 78.2592 15.3899 78.2959 15.4085C78.357 15.4085 78.4305 15.3899 78.5161 15.3466C78.6017 15.3034 78.6752 15.2416 78.7363 15.1612L80.3269 13.0473C80.3452 13.0287 80.3697 12.9854 80.388 12.9236C80.4064 12.8433 80.4003 12.7506 80.3575 12.6455C80.3146 12.5466 80.2412 12.4601 80.1372 12.3982C79.1217 11.8296 77.8432 11.5391 76.3016 11.5391C72.0867 11.5391 69.9639 13.721 69.9456 18.0911V19.2469H74.6193V18.2209Z" fill="#2A2C57"/>
<path d="M85.6127 17.059C85.6127 16.7499 85.4536 16.6016 85.1478 16.6016H81.41C81.098 16.6016 80.9451 16.7561 80.9451 17.059V19.2471H85.6188V17.059H85.6127Z" fill="#0EC69A"/>
<path d="M89.9745 32.6478V32.5551L89.0691 30.3485C89.0079 30.2434 88.9223 30.1754 88.8183 30.1321C88.7143 30.0889 88.6286 30.0827 88.5674 30.1012C88.5063 30.1198 88.4635 30.1445 88.4451 30.163C87.9863 30.5092 87.4663 30.6822 86.8852 30.6822C86.0348 30.6822 85.6066 30.1507 85.6066 29.0937V24.4393H88.4451C88.7571 24.4393 88.91 24.2786 88.91 23.951V21.4723C88.91 21.1262 88.751 20.9531 88.4451 20.9531H85.6066H80.9329H79.7461C79.4525 20.9531 79.3118 21.1262 79.3118 21.4723V23.951C79.3118 24.2786 79.4586 24.4393 79.7461 24.4393H80.9329V29.6129C81.0797 32.6355 82.5418 34.1437 85.3252 34.1437C87.1543 34.1437 88.6409 33.8161 89.7848 33.1671C89.8705 33.1238 89.9194 33.0743 89.9378 33.0125C89.9806 32.9322 89.9989 32.8704 89.9989 32.8271C90.005 32.7653 89.9928 32.7097 89.9745 32.6478Z" fill="#2A2C57"/>
<path d="M40.0432 27.4367C40.0065 25.6936 39.3764 24.3214 38.1468 23.3139C36.8988 22.2508 34.8617 21.4657 32.0355 20.9589C30.971 20.7426 30.1207 20.5139 29.4906 20.2666C29.3683 20.2172 29.2581 20.1739 29.148 20.1244C29.0196 20.0688 28.8972 20.007 28.7932 19.9452C28.2121 19.599 27.9001 19.1478 27.8634 18.5915C27.8634 18.5915 27.8634 18.5915 27.8634 18.5853C27.8634 18.5482 27.8573 18.5112 27.8573 18.4741C27.8573 17.8807 28.1815 17.4233 28.8238 17.0957C28.8666 17.071 28.9156 17.0524 28.9645 17.0339C29.613 16.7495 30.4694 16.6074 31.5338 16.6074C31.6256 16.6074 31.7235 16.6074 31.8152 16.6136C33.6872 16.6568 35.2777 17.1699 36.5868 18.1403C36.7765 18.2639 36.9722 18.2454 37.1802 18.0785L39.6088 15.5689C39.8352 15.3464 39.8291 15.1177 39.5783 14.8952C38.2752 13.8815 36.8193 13.1583 35.2165 12.7256C34.0114 12.398 32.7206 12.2373 31.3503 12.2373C30.6101 12.2373 29.9127 12.2929 29.2581 12.4104C28.8483 12.4845 28.4506 12.5773 28.0714 12.6947C27.8817 12.7503 27.6982 12.8183 27.5147 12.8863C26.6949 13.2016 26.0037 13.5848 25.447 14.0422C25.2696 14.1844 25.1105 14.3389 24.9576 14.4996C24.9331 14.5243 24.9148 14.5491 24.8903 14.5676C24.2847 15.2413 23.832 15.946 23.52 16.6815C23.208 17.3986 23.0551 18.1094 23.0551 18.8264C23.0551 20.415 23.6668 21.7624 24.8964 22.8689C25.7896 23.6539 27.1415 24.3091 28.9462 24.8221C29.6191 25.0137 30.3593 25.1868 31.1607 25.3475C32.739 25.6566 33.8095 25.9594 34.3723 26.2685C34.8984 26.5466 35.1859 26.9422 35.2349 27.4553C35.241 27.5047 35.241 27.5604 35.241 27.616C35.241 28.3515 34.8372 28.9017 34.0236 29.2663C33.2161 29.6125 32.3842 29.7856 31.5277 29.7856C29.4111 29.7856 27.6554 29.2478 26.2606 28.1661C26.0343 28.0054 25.8263 28.0116 25.6366 28.197L23.208 30.6447C23 30.8487 23 31.0527 23.208 31.2567C25.1839 33.1976 27.9429 34.1618 31.4971 34.1618C33.0143 34.1618 34.3417 33.9578 35.4857 33.5499C36.648 33.1234 37.5412 32.5733 38.1651 31.8995C38.8075 31.2072 39.2785 30.5026 39.566 29.7856C39.878 29.0686 40.031 28.3454 40.031 27.6098C40.0432 27.5418 40.0432 27.4862 40.0432 27.4367Z" fill="#2A2C57"/>
<path d="M4.57189 14.0889C2.39408 16.5119 -0.0834844 19.7756 0.00215975 23.169C-0.0467798 26.5687 2.47361 29.7952 4.67588 32.1935C8.86021 36.7428 13.3321 40.9027 17.9813 44.9637C19.0029 45.86 20.624 46.509 21.9087 45.7549C23.1934 45.0008 23.0588 43.2392 22.3186 42.1451C20.4283 39.3451 18.3484 36.8602 16.3296 34.1529C15.3875 32.892 12.9711 29.6716 11.4785 26.8097C10.8667 25.6538 10.1082 24.0591 9.42913 22.1491C8.03436 18.2179 7.47155 14.3362 7.75295 10.7202C6.66405 11.8143 5.59962 12.9392 4.57189 14.0889Z" fill="#0EC69A"/>
<path d="M17.9692 1.1579C15.3816 3.47582 12.7694 5.82466 10.2429 8.25384C9.27025 12.7166 10.0349 17.0558 11.026 20.2453C12.4024 17.1794 15.1797 13.3966 16.1952 11.9934C18.1834 9.26137 20.4835 6.74565 22.3371 3.92705C23.0651 2.82062 23.1752 1.059 21.8844 0.317261C20.5936 -0.424476 18.9786 0.249268 17.9692 1.1579Z" fill="#0EC69A"/>
</svg>
