<svg width="142" height="82" viewBox="0 0 142 82" fill="none" xmlns="http://www.w3.org/2000/svg">
<path d="M82.531 68.8155C82.531 71.0235 81.9101 72.8073 80.6777 74.1669C79.4548 75.5168 77.9263 76.2014 76.092 76.2303H71.3153C71.2293 76.2303 71.1529 76.2014 71.086 76.1435C71.0287 76.076 71 75.9989 71 75.9121V61.6706C71 61.5838 71.0287 61.5163 71.086 61.4585C71.1529 61.391 71.2293 61.3524 71.3153 61.3524H76.178C78.0027 61.4102 79.5217 62.1141 80.7254 63.4544C81.9292 64.785 82.531 66.5785 82.531 68.8155ZM75.9774 74.6586C77.2957 74.6586 78.4039 74.1379 79.302 73.0869C80.2095 72.0359 80.6681 70.6185 80.6681 68.8155C80.6681 67.0027 80.2095 65.5757 79.302 64.5247C78.4039 63.464 77.2957 62.9337 75.9774 62.9337H72.8438V74.6586H75.9774ZM88.9414 67.0702C90.2216 67.0702 91.2342 67.5234 91.9889 68.4298C92.7628 69.3265 93.1449 70.4932 93.1449 71.9395C93.1449 72.0263 93.1067 72.1034 93.0398 72.1709C92.9825 72.2288 92.9156 72.2577 92.8297 72.2577H86.1613C86.2855 73.0966 86.639 73.7619 87.2122 74.2536C87.7854 74.7454 88.4255 74.9961 89.1229 74.9961C89.9541 74.9961 90.7757 74.6586 91.5877 73.9933C91.7597 73.8487 91.903 73.8776 92.0272 74.0608L92.4857 74.6297C92.6004 74.8033 92.6004 74.9479 92.4857 75.0732C92.1896 75.4011 91.7023 75.7 91.0336 75.9892C90.3553 76.2592 89.6579 76.3942 88.9318 76.3942C87.6708 76.3942 86.5912 75.9507 85.7123 75.0732C84.843 74.1958 84.4035 73.0773 84.4035 71.7178C84.4035 70.3678 84.843 69.259 85.7314 68.3816C86.639 67.5041 87.709 67.0702 88.9414 67.0702ZM90.5846 69.1722C90.1356 68.7094 89.5719 68.4683 88.8841 68.4683C88.1962 68.4683 87.6039 68.6901 87.0976 69.124C86.6104 69.5675 86.2951 70.175 86.1709 70.9464H91.3871C91.3011 70.2329 91.0336 69.6447 90.5846 69.1722ZM95.6861 76.2303C95.4855 76.2303 95.39 76.1242 95.39 75.9121V61.526C95.39 61.2945 95.4855 61.1885 95.6861 61.1885H96.8421C96.9281 61.1885 96.995 61.227 97.0523 61.2945C97.1192 61.3524 97.1574 61.4295 97.1574 61.526V75.9121C97.1574 76.1242 97.0523 76.2303 96.8421 76.2303H95.6861ZM101.724 63.4158C101.514 63.6183 101.265 63.7147 100.988 63.7147C100.711 63.7147 100.463 63.6183 100.253 63.4158C100.043 63.2037 99.9374 62.953 99.9374 62.6734C99.9374 62.3745 100.043 62.1238 100.253 61.9309C100.463 61.7188 100.711 61.6127 100.988 61.6127C101.265 61.6127 101.514 61.7188 101.724 61.9309C101.934 62.1334 102.039 62.3745 102.039 62.6734C102.039 62.953 101.934 63.2037 101.724 63.4158ZM100.415 76.2303C100.205 76.2303 100.1 76.1339 100.1 75.9314V67.6005C100.1 67.3595 100.205 67.2438 100.415 67.2438H101.552C101.762 67.2438 101.867 67.3595 101.867 67.6005V75.9314C101.867 76.1339 101.762 76.2303 101.552 76.2303H100.415ZM112.357 67.2438C112.472 67.2438 112.558 67.292 112.634 67.3884C112.701 67.4848 112.71 67.5909 112.653 67.7066L108.889 75.9314C108.803 76.1339 108.688 76.2303 108.555 76.2303H107.962C107.809 76.2303 107.685 76.1339 107.609 75.9314L103.845 67.6873C103.816 67.5909 103.835 67.4848 103.883 67.3884C103.94 67.292 104.026 67.2438 104.131 67.2438H105.335C105.459 67.2438 105.564 67.3498 105.65 67.562L108.258 73.7619L110.867 67.562C110.962 67.3498 111.067 67.2438 111.182 67.2438H112.357ZM118.137 67.0702C119.417 67.0702 120.43 67.5234 121.184 68.4298C121.958 69.3265 122.34 70.4932 122.34 71.9395C122.34 72.0263 122.302 72.1034 122.235 72.1709C122.178 72.2288 122.111 72.2577 122.025 72.2577H115.357C115.481 73.0966 115.834 73.7619 116.408 74.2536C116.981 74.7454 117.621 74.9961 118.318 74.9961C119.149 74.9961 119.971 74.6586 120.783 73.9933C120.955 73.8487 121.098 73.8776 121.223 74.0608L121.681 74.6297C121.796 74.8033 121.796 74.9479 121.681 75.0732C121.385 75.4011 120.898 75.7 120.229 75.9892C119.551 76.2592 118.853 76.3942 118.127 76.3942C116.866 76.3942 115.787 75.9507 114.908 75.0732C114.038 74.1958 113.599 73.0773 113.599 71.7178C113.599 70.3678 114.038 69.259 114.927 68.3816C115.834 67.5041 116.895 67.0702 118.137 67.0702ZM119.77 69.1722C119.321 68.7094 118.758 68.4683 118.07 68.4683C117.382 68.4683 116.79 68.6901 116.283 69.124C115.796 69.5675 115.481 70.175 115.357 70.9464H120.573C120.487 70.2329 120.219 69.6447 119.77 69.1722ZM130.47 67.7066C130.652 67.8223 130.69 67.9477 130.575 68.0923L130.05 68.9601C129.954 69.1047 129.821 69.1336 129.668 69.0469C129.228 68.6805 128.712 68.4973 128.111 68.4973C127.576 68.4973 127.107 68.6708 126.697 69.0083C126.305 69.3458 126.104 69.8182 126.104 70.4353V75.9121C126.104 76.1242 125.999 76.2303 125.789 76.2303H124.652C124.442 76.2303 124.337 76.1242 124.337 75.9121V67.6102C124.337 67.3691 124.442 67.2534 124.652 67.2534H125.35C125.522 67.2534 125.655 67.3691 125.77 67.6102L125.913 67.9477C126.458 67.3691 127.232 67.0799 128.225 67.0799C129.085 67.0702 129.83 67.2823 130.47 67.7066ZM140.769 67.2438C140.864 67.2438 140.95 67.292 141.017 67.3884C141.103 67.4752 141.113 67.5716 141.056 67.6873L134.464 80.8393C134.406 80.955 134.32 81.0128 134.187 81.0128H133.136C133.021 81.0128 132.935 80.9646 132.859 80.8682C132.801 80.7814 132.801 80.685 132.859 80.5693L135.276 75.7482L131.588 67.697C131.55 67.6102 131.55 67.5234 131.588 67.4173C131.645 67.3016 131.731 67.2438 131.865 67.2438H133.002C133.155 67.2438 133.279 67.3498 133.355 67.562L136.155 73.9355L139.422 67.4366C139.479 67.3113 139.575 67.2438 139.718 67.2438H140.769Z" fill="white"/>
<path d="M93.1919 32.6851C93.488 32.6851 93.6791 32.8104 93.7746 33.0707C93.9084 33.2925 93.9179 33.5046 93.8224 33.6878L86.6669 52.4033C86.5331 52.7215 86.3134 52.8855 85.9886 52.8855H83.1703C82.8741 52.8855 82.6544 52.7215 82.492 52.4033L78.5942 41.3245L74.6964 52.4516C74.5626 52.7408 74.3524 52.8855 74.0658 52.8855H71.1425C70.8463 52.8855 70.6266 52.7408 70.4642 52.4516L63.4042 33.6878C63.3086 33.495 63.3086 33.2925 63.4042 33.0707C63.5379 32.82 63.7481 32.6851 64.0347 32.6851H69.8241C70.2158 32.6851 70.4546 32.8393 70.5502 33.1672L72.9385 43.1951L76.8363 33.1672C76.9701 32.849 77.1803 32.6851 77.4669 32.6851H79.7501C80.075 32.6851 80.2851 32.8393 80.3807 33.1672L84.2785 43.1468L86.6669 33.2154C86.7624 32.8683 87.0108 32.6947 87.3929 32.6947H93.1919V32.6851Z" fill="white"/>
<path d="M96.2495 52.2105C96.2495 52.654 96.4884 52.8758 96.9756 52.8758H102.813C103.3 52.8758 103.539 52.654 103.539 52.2105V33.495C103.539 32.955 103.3 32.6851 102.813 32.6851H96.9756C96.4884 32.6851 96.2495 32.955 96.2495 33.495V52.2105Z" fill="white"/>
<path d="M99.8983 27.16C102.051 27.16 103.796 25.3987 103.796 23.226C103.796 21.0533 102.051 19.292 99.8983 19.292C97.7456 19.292 96.0005 21.0533 96.0005 23.226C96.0005 25.3987 97.7456 27.16 99.8983 27.16Z" fill="white"/>
<path d="M109.232 32.6851H107.331C106.873 32.6851 106.653 32.9261 106.653 33.3986V37.4579C106.653 37.9401 106.882 38.1715 107.331 38.1715H109.232V52.1623C109.232 52.6444 109.471 52.8758 109.958 52.8758H115.796C116.283 52.8758 116.522 52.6347 116.522 52.1623V38.1811H121.05C121.241 38.1811 121.403 38.1136 121.537 37.9883C121.7 37.834 121.786 37.6508 121.786 37.4676V33.4082C121.786 33.2154 121.7 33.0611 121.537 32.9261C121.403 32.7622 121.241 32.6851 121.05 32.6851H116.522H109.232Z" fill="white"/>
<path d="M116.531 28.4232C116.531 26.7358 116.789 25.492 117.315 24.7013C117.831 23.8721 118.69 23.4575 119.894 23.4575C120.611 23.4575 121.356 23.6214 122.13 23.9396C122.158 23.9685 122.216 24.0071 122.273 24.036C122.368 24.036 122.483 24.0071 122.617 23.9396C122.751 23.8721 122.865 23.7757 122.961 23.6503L125.445 20.3527C125.473 20.3238 125.512 20.2563 125.54 20.1599C125.569 20.0345 125.559 19.8899 125.492 19.726C125.426 19.5717 125.311 19.4367 125.149 19.3403C123.563 18.4532 121.566 18 119.158 18C112.576 18 109.261 21.4037 109.232 28.2207V30.0238H116.531V28.4232Z" fill="white"/>
<path d="M133.699 26.6105C133.699 26.1284 133.451 25.897 132.973 25.897H127.136C126.649 25.897 126.41 26.138 126.41 26.6105V30.0238H133.709V26.6105H133.699Z" fill="#0EC69A"/>
<path d="M140.511 50.9281V50.7835L139.097 47.3412C139.001 47.1773 138.867 47.0712 138.705 47.0037C138.543 46.9362 138.409 46.9266 138.313 46.9555C138.218 46.9844 138.151 47.023 138.122 47.0519C137.406 47.5919 136.594 47.8619 135.686 47.8619C134.358 47.8619 133.689 47.0326 133.689 45.3838V38.1233H138.122C138.609 38.1233 138.848 37.8726 138.848 37.3615V33.495C138.848 32.955 138.6 32.6851 138.122 32.6851H133.689H126.391H124.537C124.079 32.6851 123.859 32.955 123.859 33.495V37.3615C123.859 37.8726 124.088 38.1233 124.537 38.1233H126.391V46.1938C126.62 50.9088 128.903 53.2615 133.25 53.2615C136.106 53.2615 138.428 52.7505 140.214 51.738C140.348 51.6705 140.425 51.5934 140.453 51.497C140.52 51.3716 140.549 51.2752 140.549 51.2077C140.558 51.1113 140.539 51.0245 140.511 50.9281Z" fill="white"/>
<path d="M62.5347 42.7995C62.4774 40.0804 61.4934 37.9398 59.5732 36.3682C57.6243 34.7097 54.443 33.4852 50.0293 32.6945C48.367 32.357 47.039 32.0003 46.055 31.6146C45.864 31.5374 45.692 31.4699 45.52 31.3928C45.3194 31.306 45.1283 31.2096 44.9659 31.1132C44.0583 30.5732 43.5711 29.8693 43.5138 29.0015C43.5138 29.0015 43.5138 29.0015 43.5138 28.9919C43.5138 28.934 43.5042 28.8762 43.5042 28.8183C43.5042 27.8927 44.0106 27.1792 45.0137 26.6681C45.0806 26.6296 45.157 26.6006 45.2334 26.5717C46.2461 26.1282 47.5836 25.9064 49.2459 25.9064C49.3892 25.9064 49.542 25.9064 49.6853 25.916C52.6087 25.9835 55.0926 26.7838 57.137 28.2977C57.4332 28.4905 57.7389 28.4616 58.0637 28.2012L61.8564 24.2865C62.2099 23.9394 62.2004 23.5826 61.8087 23.2355C59.7738 21.6542 57.5001 20.526 54.9971 19.8511C53.115 19.3401 51.0992 19.0894 48.9593 19.0894C47.8033 19.0894 46.7142 19.1761 45.692 19.3593C45.0519 19.475 44.4309 19.6197 43.8386 19.8029C43.5425 19.8897 43.2559 19.9957 42.9693 20.1018C41.6891 20.5935 40.6095 21.1914 39.7402 21.9049C39.4631 22.1266 39.2147 22.3677 38.9759 22.6184C38.9377 22.657 38.909 22.6955 38.8708 22.7245C37.925 23.7755 37.2181 24.8747 36.7308 26.0221C36.2436 27.1406 36.0048 28.2494 36.0048 29.3679C36.0048 31.846 36.9601 33.948 38.8804 35.6739C40.2752 36.8985 42.3865 37.9206 45.2048 38.7209C46.2556 39.0198 47.4116 39.2898 48.6631 39.5404C51.1279 40.0226 52.7998 40.495 53.6787 40.9771C54.5003 41.411 54.9493 42.0281 55.0257 42.8284C55.0353 42.9056 55.0353 42.9924 55.0353 43.0791C55.0353 44.2266 54.4047 45.0847 53.1341 45.6536C51.8731 46.1936 50.5738 46.4635 49.2363 46.4635C45.9308 46.4635 43.189 45.6247 41.0108 43.9373C40.6573 43.6866 40.3325 43.6962 40.0363 43.9855L36.2436 47.8038C35.9188 48.122 35.9188 48.4402 36.2436 48.7584C39.3294 51.786 43.638 53.2902 49.1886 53.2902C51.5578 53.2902 53.6309 52.972 55.4174 52.3356C57.2326 51.6703 58.6274 50.8122 59.6018 49.7612C60.6049 48.6812 61.3406 47.582 61.7896 46.4635C62.2768 45.345 62.5156 44.2169 62.5156 43.0695C62.5347 42.9634 62.5347 42.8766 62.5347 42.7995Z" fill="white"/>
<path d="M7.13981 21.9776C3.73878 25.7574 -0.130376 30.8485 0.00337284 36.142C-0.0730549 41.4452 3.86297 46.4785 7.30222 50.2196C13.8368 57.3163 20.8204 63.8055 28.081 70.1404C29.6764 71.5385 32.2081 72.5509 34.2143 71.3746C36.2206 70.1982 36.0104 67.4502 34.8544 65.7435C31.9024 61.3756 28.6542 57.4995 25.5016 53.2762C24.0303 51.3092 20.2567 46.2856 17.9257 41.8213C16.9703 40.0182 15.7857 37.5305 14.7253 34.5511C12.5471 28.4186 11.6682 22.3633 12.1076 16.7227C10.4071 18.4293 8.74479 20.1842 7.13981 21.9776Z" fill="#0EC69A"/>
<path d="M28.0618 1.80625C24.0207 5.42207 19.9413 9.0861 15.9958 12.8755C14.4768 19.8371 15.6709 26.606 17.2186 31.5813C19.3681 26.7988 23.7054 20.8978 25.2913 18.709C28.3962 14.4472 31.9883 10.5228 34.883 6.12595C36.0198 4.39999 36.1918 1.65197 34.176 0.494907C32.1602 -0.662157 29.6381 0.388843 28.0618 1.80625Z" fill="#0EC69A"/>
</svg>
